<?xml version="1.0" encoding="UTF-8" standalone="no"?>
<svg
   width="512"
   height="512"
   xml:space="preserve"
   overflow="hidden"
   version="1.1"
   id="svg6"
   sodipodi:docname="emission_accumulation.svg"
   inkscape:version="1.3.2 (091e20e, 2023-11-25)"
   xmlns:inkscape="http://www.inkscape.org/namespaces/inkscape"
   xmlns:sodipodi="http://sodipodi.sourceforge.net/DTD/sodipodi-0.dtd"
   xmlns="http://www.w3.org/2000/svg"
   xmlns:svg="http://www.w3.org/2000/svg"><defs
     id="defs6" /><sodipodi:namedview
     id="namedview6"
     pagecolor="#ffffff"
     bordercolor="#8ebae5"
     borderopacity="0.25"
     inkscape:showpageshadow="2"
     inkscape:pageopacity="0.0"
     inkscape:pagecheckerboard="0"
     inkscape:deskcolor="#d1d1d1"
     inkscape:zoom="0.55778755"
     inkscape:cx="43.027135"
     inkscape:cy="181.07253"
     inkscape:window-width="1920"
     inkscape:window-height="1027"
     inkscape:window-x="1512"
     inkscape:window-y="25"
     inkscape:window-maximized="0"
     inkscape:current-layer="g5" /><g
     transform="matrix(0.83747447,0,0,0.83747447,-2159.6951,-565.14372)"
     id="g6"><g
       id="g5"><g
         id="g7"
         transform="translate(1.4290896)"><path
           d="m 2599,980.5 c 0,-9.113 7.39,-16.5 16.5,-16.5 9.11,0 16.5,7.387 16.5,16.5 0,9.113 -7.39,16.5 -16.5,16.5 -9.11,0 -16.5,-7.387 -16.5,-16.5 z"
           fill="#8ebae5"
           fill-rule="evenodd"
           fill-opacity="1"
           id="path1" /><path
           d="m 2891.676,980.5 c 0,-27.92106 22.6304,-50.55487 50.5549,-50.55487 27.9245,0 50.5549,22.63381 50.5549,50.55487 0,27.9245 -22.6304,50.5549 -50.5549,50.5549 -27.9245,0 -50.5549,-22.6304 -50.5549,-50.5549 z"
           fill="#8ebae5"
           fill-rule="evenodd"
           fill-opacity="1"
           id="path2"
           style="stroke-width:1.13606" /><path
           d="m 3031.9772,980.5 c 0,-37.32507 30.2561,-67.5823 67.5823,-67.5823 37.3262,0 67.5823,30.25723 67.5823,67.5823 0,37.3262 -30.2561,67.5823 -67.5823,67.5823 -37.3262,0 -67.5823,-30.2561 -67.5823,-67.5823 z"
           fill="#8ebae5"
           fill-rule="evenodd"
           fill-opacity="1"
           id="path3"
           style="stroke-width:1.15525" /><path
           d="m 2772.1785,981 c 0,-18.225 14.77,-33 33,-33 18.23,0 33,14.775 33,33 0,18.225 -14.77,33 -33,33 -18.23,0 -33,-14.775 -33,-33 z"
           fill="#8ebae5"
           fill-rule="evenodd"
           fill-opacity="1"
           id="path4" /><path
           d="m 2680.5071,981 c 0,-12.702 10.3,-23 23,-23 12.7,0 23,10.298 23,23 0,12.703 -10.3,23 -23,23 -12.7,0 -23,-10.297 -23,-23 z"
           fill="#8ebae5"
           fill-rule="evenodd"
           fill-opacity="1"
           id="path5" /></g></g></g></svg>
