<?xml version="1.0" encoding="UTF-8" standalone="no"?>
<svg
   id="Layer_1"
   data-name="Layer 1"
   viewBox="0 0 1615 468"
   version="1.1"
   sodipodi:docname="optimex_dark_rtd.svg"
   inkscape:version="1.3.2 (091e20e, 2023-11-25)"
   xmlns:inkscape="http://www.inkscape.org/namespaces/inkscape"
   xmlns:sodipodi="http://sodipodi.sourceforge.net/DTD/sodipodi-0.dtd"
   xmlns="http://www.w3.org/2000/svg"
   xmlns:svg="http://www.w3.org/2000/svg">
  <sodipodi:namedview
     id="namedview1"
     pagecolor="#ffffff"
     bordercolor="#000000"
     borderopacity="0.25"
     inkscape:showpageshadow="2"
     inkscape:pageopacity="0.0"
     inkscape:pagecheckerboard="0"
     inkscape:deskcolor="#d1d1d1"
     inkscape:zoom="0.35136346"
     inkscape:cx="-21.345418"
     inkscape:cy="-93.919839"
     inkscape:window-width="2560"
     inkscape:window-height="1387"
     inkscape:window-x="1512"
     inkscape:window-y="25"
     inkscape:window-maximized="0"
     inkscape:current-layer="Layer_1" />
  <defs
     id="defs1">
    <inkscape:path-effect
       effect="fillet_chamfer"
       id="path-effect1"
       is_visible="true"
       lpeversion="1"
       nodesatellites_param="F,0,0,1,0,0,0,1 @ F,0,0,1,0,0,0,1 @ F,0,0,1,0,0,0,1 @ F,0,0,1,0,0,0,1 @ F,0,0,1,0,0,0,1 @ F,0,0,1,0,0,0,1 @ F,0,0,1,0,0,0,1 @ F,0,0,1,0,0,0,1 @ F,0,0,1,0,0,0,1 @ F,0,0,1,0,0,0,1 @ F,0,0,1,0,0,0,1 @ F,0,0,1,0,0,0,1 @ F,0,0,1,0,0,0,1 @ F,0,0,1,0,0,0,1 @ F,0,0,1,0,0,0,1 @ F,0,0,1,0,0,0,1 @ F,0,0,1,0,0,0,1 @ F,0,0,1,0,0,0,1 @ F,0,0,1,0,0,0,1 @ F,0,0,1,0,0,0,1 @ F,0,0,1,0,0,0,1 @ F,0,0,1,0,0,0,1 @ F,0,0,1,0,0,0,1 @ F,0,0,1,0,0,0,1 @ F,0,0,1,0,0,0,1 @ F,0,0,1,0,0,0,1 @ F,0,0,1,0,0,0,1 @ F,0,0,1,0,0,0,1 @ F,0,0,1,0,0,0,1 @ F,0,0,1,0,0,0,1 @ F,0,0,1,0,0,0,1 @ F,0,0,1,0,0,0,1 @ F,0,0,1,0,0,0,1 @ F,0,0,1,0,0,0,1 @ F,0,0,1,0,0,0,1 @ F,0,0,1,0,0,0,1 @ F,0,0,1,0,0,0,1 @ F,0,0,1,0,0,0,1 @ F,0,0,1,0,0,0,1 @ F,0,0,1,0,0,0,1 @ F,0,0,1,0,0,0,1 @ F,0,0,1,0,0,0,1 @ F,0,0,1,0,0,0,1 @ F,0,0,1,0,0,0,1 @ F,0,0,1,0,0,0,1 @ F,0,0,1,0,4.7038729,0,1 @ F,0,0,1,0,0,0,1 @ F,0,0,1,0,4.6638673,0,1 @ F,0,0,1,0,0,0,1 @ F,0,0,1,0,0,0,1 @ F,0,0,1,0,0,0,1 @ F,0,0,1,0,0,0,1 @ F,0,0,1,0,0,0,1 @ F,0,0,1,0,0,0,1 @ F,0,0,1,0,0,0,1 @ F,0,0,1,0,0,0,1 @ F,0,0,1,0,0,0,1 @ F,0,0,1,0,0,0,1 @ F,0,0,1,0,0,0,1 @ F,0,0,1,0,0,0,1 @ F,0,0,1,0,0,0,1 @ F,0,0,1,0,0,0,1 @ F,0,0,1,0,0,0,1 @ F,0,0,1,0,0,0,1 @ F,0,0,1,0,0,0,1 @ F,0,0,1,0,0,0,1 @ F,0,0,1,0,0,0,1"
       radius="0"
       unit="px"
       method="auto"
       mode="F"
       chamfer_steps="1"
       flexible="false"
       use_knot_distance="true"
       apply_no_radius="true"
       apply_with_radius="true"
       only_selected="false"
       hide_knots="false" />
    <inkscape:path-effect
       effect="fillet_chamfer"
       id="path-effect17"
       is_visible="true"
       lpeversion="1"
       nodesatellites_param="F,0,0,1,0,0,0,1 @ F,0,0,1,0,0,0,1 @ F,0,0,1,0,0,0,1 @ F,0,0,1,0,0,0,1 @ F,0,0,1,0,0,0,1 @ F,0,0,1,0,0,0,1 @ F,0,0,1,0,0,0,1 @ F,0,0,1,0,0,0,1 @ F,0,0,1,0,0,0,1 @ F,0,0,1,0,0,0,1 @ F,0,0,1,0,0,0,1 @ F,0,0,1,0,0,0,1 @ F,0,0,1,0,0,0,1 @ F,0,0,1,0,0,0,1 @ F,0,0,1,0,0,0,1 @ F,0,0,1,0,0,0,1 @ F,0,0,1,0,0,0,1 @ F,0,0,1,0,0,0,1 @ F,0,0,1,0,0,0,1 @ F,0,0,1,0,0,0,1"
       radius="0"
       unit="px"
       method="auto"
       mode="F"
       chamfer_steps="1"
       flexible="false"
       use_knot_distance="true"
       apply_no_radius="true"
       apply_with_radius="true"
       only_selected="false"
       hide_knots="false" />
    <inkscape:path-effect
       effect="fillet_chamfer"
       id="path-effect16"
       is_visible="true"
       lpeversion="1"
       nodesatellites_param="F,0,0,1,0,0,0,1 @ F,0,0,1,0,0,0,1 @ F,0,0,1,0,0,0,1 @ F,0,0,1,0,0,0,1 @ F,0,0,1,0,0,0,1 @ F,0,0,1,0,0,0,1 @ F,0,0,1,0,0,0,1 @ F,0,1,1,0,2.954802,0,1 @ F,0,0,1,0,2.954802,0,1 @ F,0,0,1,0,0,0,1 @ F,0,0,1,0,0,0,1 @ F,0,0,1,0,0,0,1 @ F,0,0,1,0,0,0,1 @ F,0,0,1,0,0,0,1 @ F,0,0,1,0,0,0,1"
       radius="0"
       unit="px"
       method="auto"
       mode="F"
       chamfer_steps="1"
       flexible="false"
       use_knot_distance="true"
       apply_no_radius="true"
       apply_with_radius="true"
       only_selected="false"
       hide_knots="false" />
    <style
       id="style1">
      .cls-1 {
        fill: #316733;
      }

      .cls-1, .cls-2, .cls-3 {
        stroke-width: 0px;
      }

      .cls-2 {
        fill: #222832;
      }

      .cls-3 {
        fill: #74b944;
      }
    </style>
  </defs>
  <g
     id="g9">
    <g
       id="g8"
       style="fill:#feffff;fill-opacity:1">
      <path
         id="path5"
         class="cls-2"
         d="m 215.32031,54 0.01,0.0098 c -31.60994,0 -63.22014,-0.02 -94.83008,0 -8.82998,0 -13.67969,5.009783 -13.67969,14.009765 0.01,14.569972 -0.11992,29.150737 0.0801,43.720699 0.13,9.37 0.18953,18.80963 1.26953,28.09961 3.07,26.35996 14.80973,48.52067 33.67969,66.89063 9.84998,9.58998 21.70947,16.07883 34.18945,21.54883 3.44,1.51 6.96166,3.09008 9.93164,5.33008 4.79,3.60998 4.83858,9.36056 0.3086,13.31054 -2.02,1.77 -4.47868,3.09961 -6.88868,4.34961 -6.40998,3.34 -13.11009,6.18133 -19.33007,9.86133 -33.38994,19.75996 -50.36094,49.87875 -52.96094,88.13867 -1.17,17.23996 -0.30897,34.63121 -0.20899,51.95117 0.04,7.3 5.64993,12.63977 12.91993,12.75977 1.16,0.02 2.30875,0.0195 3.46875,0.0195 h 186.5 c 8.94998,0 13.96093,-5.07971 13.96093,-14.17969 0,-14.99996 -0.0995,-29.99027 -0.0195,-44.99023 0.1,-20.36996 -5.23049,-39.20082 -15.73047,-56.55078 -0.14988,-0.24766 -0.32123,-0.47089 -0.47265,-0.7168 l -16.29883,16.61523 c 4.09755,7.76881 7.06103,16.32617 8.80078,25.71289 0.89,4.84 1.23985,9.82979 1.33985,14.75977 0.20998,10.66998 0.0916,21.33002 0.10156,32 v 3.5 c -13.06998,0.84 -25.50057,0.80867 -37.31055,-5.61133 -17.14996,-9.30998 -33.58963,-19.52955 -47.84961,-33.01953 -0.29718,-0.28727 -0.62891,-0.53623 -1.11133,-0.92969 -6.64998,5.36 -12.79892,11.01971 -19.6289,15.67969 -9.69998,6.61998 -19.78143,12.72135 -29.94141,18.61133 -7.18998,4.17 -15.0693,6.21891 -23.5293,5.62891 -4.04998,-0.28 -8.14939,-0.0488 -12.35937,-0.0488 -0.15,-0.78 -0.33008,-1.26 -0.33008,-1.75 -0.01,-12.45998 -0.23945,-24.93088 0.0606,-37.38086 0.57,-23.60996 10.43902,-43.05098 26.95898,-59.46094 8.11998,-8.06998 17.73041,-13.68914 27.90039,-18.61914 6.59,-3.2 13.21924,-6.27008 18.44922,-11.83008 9.66998,-10.29998 9.98078,-28.73986 2.80078,-38.83984 -3.10998,-4.36 -7.30017,-7.15033 -11.91015,-9.57031 -7.61,-3.99 -15.55041,-7.5401 -22.65039,-12.33008 -21.96996,-14.80998 -36.49993,-34.86067 -40.66993,-61.64063 -0.67,-4.35998 -0.91922,-8.83 -0.94922,-13.25 -0.1,-15.30996 -0.0102,-30.619715 0.01,-45.929685 0,-0.619998 0.0789,-1.239846 0.12891,-2.089844 h 33.4641 c 2.59787,0 6.51157,1.080765 8.71822,2.451732 16.70718,10.380002 31.9038,22.086827 45.82158,36.513117 12.83497,-15.29813 28.32895,-26.418057 44.76243,-36.539665 2.19314,-1.350787 6.07175,-2.425184 8.64754,-2.425184 l 30.47675,0 v 3.570313 c 0.01,13.939972 0.0393,27.880336 0.0293,41.820316 -0.01,19.18996 -4.8794,36.87963 -16.10938,52.59961 C 275.78986,189.11973 263.76998,199.57002 249,206.75 c -4.34,2.11 -8.62969,4.32953 -12.92969,6.51953 -10.85998,5.51 -15.62945,14.58135 -15.93945,26.61133 -0.34,13.47998 5.5883,22.98844 17.23828,29.14844 7.12998,3.76998 14.58994,6.9807 21.41992,11.2207 1.32113,0.81948 2.60954,1.66211 3.87305,2.52344 l 15.97851,-16.29102 c -6.37191,-4.61514 -13.25182,-8.64774 -20.65039,-12.08203 -4.08998,-1.9 -8.22095,-3.83055 -11.96093,-6.31055 -6.43,-4.25998 -6.26983,-11.60009 0.16015,-15.83007 2.27,-1.5 4.76071,-2.67985 7.22071,-3.83985 13.06996,-6.13998 25.64947,-12.90017 36.18945,-23.16015 21.56996,-20.99996 33.17133,-46.51061 34.11133,-76.56055 0.62,-19.93996 0.0695,-39.918946 0.0195,-59.878908 C 323.70047,58.560334 319.1206,54 308.89062,54 Z"
         inkscape:path-effect="#path-effect1"
         inkscape:original-d="M 215.32031 54 L 215.33008 54.009766 C 183.72014 54.009766 152.10994 53.989766 120.5 54.009766 C 111.67002 54.009766 106.82031 59.019549 106.82031 68.019531 C 106.83031 82.589503 106.70039 97.170268 106.90039 111.74023 C 107.03039 121.11023 107.08992 130.54986 108.16992 139.83984 C 111.23992 166.1998 122.97965 188.36051 141.84961 206.73047 C 151.69959 216.32045 163.55908 222.8093 176.03906 228.2793 C 179.47906 229.7893 183.00072 231.36938 185.9707 233.60938 C 190.7607 237.21936 190.80928 242.96994 186.2793 246.91992 C 184.2593 248.68992 181.80062 250.01953 179.39062 251.26953 C 172.98064 254.60953 166.28053 257.45086 160.06055 261.13086 C 126.67061 280.89082 109.69961 311.00961 107.09961 349.26953 C 105.92961 366.50949 106.79064 383.90074 106.89062 401.2207 C 106.93062 408.5207 112.54055 413.86047 119.81055 413.98047 C 120.97055 414.00047 122.1193 414 123.2793 414 L 309.7793 414 C 318.72928 414 323.74023 408.92029 323.74023 399.82031 C 323.74023 384.82035 323.6407 369.83004 323.7207 354.83008 C 323.8207 334.46012 318.49021 315.62926 307.99023 298.2793 C 307.84035 298.03164 307.669 297.80841 307.51758 297.5625 L 291.21875 314.17773 C 295.3163 321.94654 298.27978 330.5039 300.01953 339.89062 C 300.90953 344.73062 301.25938 349.72041 301.35938 354.65039 C 301.56936 365.32037 301.45094 375.98041 301.46094 386.65039 L 301.46094 390.15039 C 288.39096 390.99039 275.96037 390.95906 264.15039 384.53906 C 247.00043 375.22908 230.56076 365.00951 216.30078 351.51953 C 216.0036 351.23226 215.67187 350.9833 215.18945 350.58984 C 208.53947 355.94984 202.39053 361.60955 195.56055 366.26953 C 185.86057 372.88951 175.77912 378.99088 165.61914 384.88086 C 158.42916 389.05086 150.54984 391.09977 142.08984 390.50977 C 138.03986 390.22977 133.94045 390.46094 129.73047 390.46094 C 129.58047 389.68094 129.40039 389.20094 129.40039 388.71094 C 129.39039 376.25096 129.16094 363.78006 129.46094 351.33008 C 130.03094 327.72012 139.89996 308.2791 156.41992 291.86914 C 164.5399 283.79916 174.15033 278.18 184.32031 273.25 C 190.91031 270.05 197.53955 266.97992 202.76953 261.41992 C 212.43951 251.11994 212.75031 232.68006 205.57031 222.58008 C 202.46033 218.22008 198.27014 215.42975 193.66016 213.00977 C 186.05016 209.01977 178.10975 205.46967 171.00977 200.67969 C 149.03981 185.86971 134.50984 165.81902 130.33984 139.03906 C 129.66984 134.67908 129.42062 130.20906 129.39062 125.78906 C 129.29064 110.4791 129.38039 95.169345 129.40039 79.859375 C 129.40039 79.239377 129.4793 78.619529 129.5293 77.769531 L 167.69727 77.769531 C 185.99389 88.756646 202.5087 101.16094 217.5332 116.73438 C 231.40077 100.20548 248.37241 88.554125 266.2793 77.769531 L 301.41992 77.769531 L 301.41992 81.339844 C 301.42992 95.279816 301.45922 109.22018 301.44922 123.16016 C 301.43922 142.35012 296.56982 160.03979 285.33984 175.75977 C 275.78986 189.11973 263.76998 199.57002 249 206.75 C 244.66 208.86 240.37031 211.07953 236.07031 213.26953 C 225.21033 218.77953 220.44086 227.85088 220.13086 239.88086 C 219.79086 253.36084 225.71916 262.8693 237.36914 269.0293 C 244.49912 272.79928 251.95908 276.01 258.78906 280.25 C 260.11019 281.06948 261.3986 281.91211 262.66211 282.77344 L 278.64062 266.48242 C 272.26871 261.86728 265.3888 257.83468 257.99023 254.40039 C 253.90025 252.50039 249.76928 250.56984 246.0293 248.08984 C 239.5993 243.82986 239.75947 236.48975 246.18945 232.25977 C 248.45945 230.75977 250.95016 229.57992 253.41016 228.41992 C 266.48012 222.27994 279.05963 215.51975 289.59961 205.25977 C 311.16957 184.25981 322.77094 158.74916 323.71094 128.69922 C 324.33094 108.75926 323.78047 88.780274 323.73047 68.820312 C 323.70047 58.560334 319.1206 54 308.89062 54 L 215.32031 54 z "
         style="fill:#feffff;fill-opacity:1" />
    </g>
    <text
       xml:space="preserve"
       style="font-weight:800;font-size:266.667px;line-height:0;font-family:TheSansMonoSCd;-inkscape-font-specification:'TheSansMonoSCd Ultra-Bold';fill:#00549f;stroke:#ffffff;stroke-width:0"
       x="-123.73278"
       y="79.84465"
       id="text2"><tspan
         sodipodi:role="line"
         id="tspan1"
         x="-123.73278"
         y="79.84465" /></text>
    <g
       id="path2">
      <path
         id="path16"
         style="color:#000000;fill:#8ebae5;stroke-linejoin:round;stroke-width:0;stroke-dasharray:none;fill-opacity:1"
         d="m 356.45312,217.77148 -52.97851,14.59375 11.75586,11.58008 -59.96094,60.86914 -14.17578,-11.95703 -4.81055,-4.05859 c -4.53473,-3.82467 -11.28533,-3.36501 -15.25976,1.03906 0,0 -16.06033,17.67644 -23.69532,24.66602 -11.11987,10.17988 -21.48664,20.05722 -32.79101,26.5332 -3.25286,1.86348 -13.55969,5.40725 -18.58203,7.08594 -1.54759,0.51727 -2.80334,2.24897 -2.80078,3.88086 l 0.0254,15.42773 c 0.003,1.63189 1.32973,2.93285 2.95312,2.77148 5.22152,-0.51904 16.73842,-2.50228 29.33985,-10.07617 14.32052,-8.60711 25.89768,-19.49535 36.71093,-29.39453 5.79966,-5.30938 12.59008,-12.4913 17.97657,-18.3164 l 18.70703,15.77929 c 4.3925,3.70354 10.8953,3.40321 14.92773,-0.68945 l 67.10742,-68.12305 11.75391,11.58008 z"
         inkscape:original-d="M 356.45312 217.77148 L 303.47461 232.36523 L 315.23047 243.94531 L 255.26953 304.81445 L 241.09375 292.85742 L 236.2832 288.79883 C 231.74847 284.97416 224.99787 285.43382 221.02344 289.83789 C 221.02344 289.83789 204.96311 307.51433 197.32812 314.50391 C 186.20825 324.68379 175.84148 334.56113 164.53711 341.03711 C 161.28425 342.90059 150.97742 346.44436 145.95508 348.12305 C 144.40749 348.64032 143.15174 350.37202 143.1543 352.00391 L 143.17969 367.43164 C 143.18269 369.06353 144.50942 370.36449 146.13281 370.20312 C 151.35433 369.68408 162.87123 367.70084 175.47266 360.12695 C 189.79318 351.51984 201.37034 340.6316 212.18359 330.73242 C 217.98325 325.42304 224.77367 318.24112 230.16016 312.41602 L 248.86719 328.19531 C 253.25969 331.89885 259.76249 331.59852 263.79492 327.50586 L 330.90234 259.38281 L 342.65625 270.96289 L 356.45312 217.77148 z "
         inkscape:path-effect="#path-effect17" />
      <g
         id="g13">
        <g
           id="path13">
          <path
             style="color:#000000;fill:#8ebae5;fill-rule:evenodd;stroke-width:0;stroke-dasharray:none;fill-opacity:1"
             d="m 361.59375,212.55273 -65.21875,17.96485 48.23633,47.51758 z m -10.28125,10.4375 -10.60938,40.90039 -30.12695,-29.67773 z"
             id="path15" />
        </g>
      </g>
    </g>
    <path
       id="path1"
       style="fill:#8ebae5;fill-opacity:1;stroke-width:0.453735"
       d="M 169.69141 103.70117 L 168.33789 106.47656 C 167.54849 108.09557 166.90234 109.6896 166.90234 110.02148 C 166.90234 111.45656 165.70911 112.17051 162.5918 112.59766 C 150.65301 114.23349 148.30254 114.72433 147.51953 115.74805 C 147.11964 116.27087 146.96403 119.63925 146.95312 127.92773 C 146.93663 141.0604 146.89112 140.9086 150.875 141.41016 C 152.07836 141.56167 154.18605 141.87579 155.55859 142.10938 C 156.93114 142.34297 159.81543 142.76079 161.96875 143.03906 C 165.44848 143.48871 165.94038 143.6716 166.39258 144.66406 C 166.67241 145.27821 166.90234 145.95929 166.90234 146.17969 C 166.90235 146.40008 167.53096 147.93866 168.29883 149.59766 C 169.0667 151.25667 169.59445 152.85208 169.47266 153.14453 C 169.35087 153.43696 167.18607 156.33198 164.66211 159.57617 C 159.93073 165.65757 159.35122 166.74034 159.82031 168.60938 C 160.14155 169.88928 167.82689 178.06862 172.9707 182.60547 C 176.07701 185.34522 176.71197 185.72245 177.85352 185.49414 C 178.57533 185.34977 182.10567 182.98112 185.69922 180.23047 C 189.29274 177.47984 192.36491 175.23048 192.52734 175.23047 C 192.68977 175.23047 193.92744 175.7341 195.27734 176.35156 C 196.62725 176.96903 198.23908 177.60213 198.85938 177.75781 C 199.47967 177.91349 200.1682 178.27699 200.39062 178.56445 C 200.84939 179.15731 201.59794 182.82589 202.3457 188.16016 C 203.45848 196.09834 203.4898 196.23239 204.53906 197.08203 C 205.4756 197.84038 206.57511 197.91602 216.66797 197.91602 C 223.17304 197.91602 228.11202 197.72802 228.60742 197.46289 C 229.9476 196.74564 230.95834 192.31216 232.17773 181.80859 C 232.53294 178.74881 232.88996 177.95313 233.89648 177.95312 C 234.27812 177.95312 235.91376 177.34047 237.53125 176.5918 C 239.14872 175.84314 240.68832 175.23048 240.95508 175.23047 C 241.39682 175.23047 242.8838 176.36259 250.38867 182.41602 C 253.86845 185.22276 255.55671 185.88519 257.36719 185.15625 C 259.1024 184.45761 272.64796 171.04315 273.71484 168.9668 C 274.70481 167.04018 274.47044 166.40868 271.39258 162.67188 C 269.99004 160.96909 267.67461 158.00477 266.24414 156.08398 L 263.64258 152.5918 L 265.46875 148.30859 L 267.29492 144.02539 L 269.16406 143.76562 C 272.9019 143.24703 280.16835 142.14587 282.56055 141.73438 C 286.66914 141.02772 286.66595 141.03206 286.67773 128.21484 C 286.68673 117.96454 286.63023 117.19998 285.7832 116.12305 C 285.14282 115.30894 284.31518 114.91269 282.94727 114.76367 C 281.88491 114.64794 278.77047 114.1937 276.02539 113.75391 C 273.28029 113.31411 270.23315 112.82789 269.25391 112.67188 C 267.49397 112.39147 267.45138 112.3358 265.51953 107.87109 C 264.72728 106.04013 264.22114 104.967 264.04688 104.12109 C 257.27846 109.21666 250.67468 114.54234 244.29883 120.20898 A 29.065057 28.882283 0 0 1 245.59961 128.04883 A 29.065057 28.882283 0 0 1 216.53516 156.93164 A 29.065057 28.882283 0 0 1 187.4707 128.04883 A 29.065057 28.882283 0 0 1 189.08203 119.2168 C 182.74985 113.84511 176.2946 108.67306 169.69141 103.70117 z " />
  </g>
  <g
     id="text1"
     style="font-weight:600;font-size:280.326px;line-height:0;font-family:TheSansMonoSCd;-inkscape-font-specification:'TheSansMonoSCd Semi-Bold';fill:#222832;stroke:#222832;stroke-width:4"
     transform="scale(1.0159479,0.98430245)"
     aria-label="optimex">
    <path
       style="fill:#8ebae5;stroke:#8ebae5;fill-opacity:1;stroke-opacity:1"
       d="m 566.85344,263.79562 c 0,-49.33737 -25.50966,-70.64215 -61.95204,-70.64215 -39.52597,0 -66.71759,31.39651 -66.71759,73.72574 0,50.739 25.78999,71.2028 61.67172,71.2028 39.52597,0 66.99791,-31.11619 66.99791,-74.28639 z m -29.43423,1.96228 c 0,31.67684 -15.41793,47.93575 -34.76042,47.93575 -22.42608,0 -35.04075,-17.09989 -35.04075,-49.05705 0,-32.51782 16.81956,-47.65542 35.32108,-47.65542 22.42608,0 34.48009,17.38021 34.48009,48.77672 z m 181.65103,-6.72782 c 0,-42.0489 -18.22119,-65.87661 -49.05705,-65.87661 -20.18347,0 -36.44238,11.77369 -44.01118,32.51782 l -0.56065,-0.28033 c 1.68195,-10.37206 1.96228,-21.02445 1.96228,-29.43423 h -26.63097 v 207.72156 h 28.31293 v -68.39954 c 5.32619,1.40163 12.89499,1.96228 20.74412,1.96228 41.48825,0 69.24052,-28.87358 69.24052,-78.21095 z m -30.27521,2.80326 c 0,37.56368 -17.38021,52.98161 -38.12433,52.98161 -8.97043,0 -15.69826,-1.40163 -21.5851,-3.36391 V 271.0841 c 0,-26.63097 12.89499,-54.10292 32.79814,-54.10292 17.09988,0 26.91129,15.1376 26.91129,44.85216 z m 180.52972,68.67987 -4.76554,-22.14576 c -8.40978,3.36391 -18.50152,5.3262 -27.47195,5.3262 -15.69825,0 -25.78999,-7.00815 -25.78999,-30.83586 v -64.19465 h 54.66357 V 195.95673 H 811.29727 V 143.8161 l -28.0326,7.5688 v 44.57183 h -40.92759 v 22.70641 h 40.92759 v 71.48312 c 0,34.76043 16.53924,47.65542 45.69314,47.65542 12.61467,0 28.31292,-2.52293 40.36694,-7.28847 z"
       id="path10" />
    <path
       d="M 1024.9055,335.27875 V 312.85267 H 983.69754 V 195.95673 h -70.92248 v 21.86543 h 42.60955 v 95.03051 h -47.09476 v 22.42608 z M 968.84026,131.76208 c -12.05402,0 -21.5851,9.53108 -21.5851,21.02445 0,11.77369 9.53108,21.30477 21.5851,21.30477 11.77369,0 21.30478,-9.53108 21.30478,-21.30477 0,-11.49337 -9.53109,-21.02445 -21.30478,-21.02445 z M 1185.532,335.27875 v -96.99279 c 0,-28.87358 -7.0081,-45.13249 -26.0703,-45.13249 -15.9786,0 -26.631,12.895 -31.6768,32.51782 -0.5607,-20.18348 -7.5688,-32.51782 -23.2671,-32.51782 -15.9786,0 -26.6309,13.17532 -31.6768,32.79814 h -0.2803 c 1.1213,-10.93271 1.9622,-20.74412 1.9622,-29.99488 h -21.8654 v 139.32202 h 22.9867 v -66.71759 c 0,-29.71455 10.9328,-52.70128 21.8655,-52.70128 8.4098,0 10.0917,8.6901 10.0917,29.1539 v 90.26497 h 22.9867 v -66.71759 c 0,-29.71455 10.9328,-52.70128 21.8655,-52.70128 8.4097,0 9.8114,8.6901 9.8114,28.31292 v 91.10595 z m 148.2923,-80.73389 c 0,-33.35879 -19.6229,-61.67171 -58.5882,-61.67171 -39.8063,0 -64.1946,31.39651 -64.1946,73.72573 0,48.77672 25.5096,71.76345 66.7176,71.76345 17.6605,0 37.844,-4.20489 52.4209,-10.65238 l -4.4852,-22.14576 c -12.6147,6.16717 -29.4342,9.81141 -42.8899,9.81141 -25.5096,0 -42.8898,-13.17532 -42.8898,-44.2915 0,-0.84098 0,-1.40163 0,-2.24261 h 93.0682 c 0.5606,-5.04587 0.841,-10.37206 0.841,-14.29663 z m -28.313,-5.60652 h -65.0356 c 2.2426,-22.14575 16.8196,-35.04075 33.9195,-35.04075 17.6605,0 31.1161,12.895 31.1161,35.04075 z m 191.4625,86.34041 -49.8981,-70.92248 47.0948,-68.39954 h -31.6768 l -33.6391,49.89803 -33.6392,-49.89803 h -34.1997 l 48.216,68.67987 -51.2996,70.64215 h 34.1998 l 34.4801,-51.57998 34.1997,51.57998 z"
       id="path11"
       style="fill:#feffff;fill-opacity:1;stroke:#ffffff;stroke-opacity:1" />
  </g>
</svg>
