<?xml version="1.0" encoding="UTF-8" standalone="no"?>
<svg
   width="512"
   height="512"
   xml:space="preserve"
   overflow="hidden"
   version="1.1"
   id="svg7"
   sodipodi:docname="technology_evolution.svg"
   inkscape:version="1.3.2 (091e20e, 2023-11-25)"
   xmlns:inkscape="http://www.inkscape.org/namespaces/inkscape"
   xmlns:sodipodi="http://sodipodi.sourceforge.net/DTD/sodipodi-0.dtd"
   xmlns="http://www.w3.org/2000/svg"
   xmlns:svg="http://www.w3.org/2000/svg"><defs
     id="defs7" /><sodipodi:namedview
     id="namedview7"
     pagecolor="#ffffff"
     bordercolor="#8ebae5"
     borderopacity="0.25"
     inkscape:showpageshadow="2"
     inkscape:pageopacity="0.0"
     inkscape:pagecheckerboard="0"
     inkscape:deskcolor="#d1d1d1"
     inkscape:zoom="1.0653742"
     inkscape:cx="288.16166"
     inkscape:cy="356.68218"
     inkscape:window-width="1920"
     inkscape:window-height="1027"
     inkscape:window-x="1512"
     inkscape:window-y="25"
     inkscape:window-maximized="0"
     inkscape:current-layer="svg7" /><g
     transform="matrix(0.84927491,0,0,0.84927491,-1361.4441,-577.98796)"
     id="g7"><g
       id="g6"><path
         d="m 1683.79,906.17 c -1.75,5.017 -6.2,8.643 -11.62,9.456 l -38.51,5.797 c -14.58,2.197 -25.16,14.399 -25.16,29.02 v 63.117 c 0,14.62 10.58,26.82 25.16,29.02 l 38.51,5.79 c 5.42,0.82 9.87,4.44 11.62,9.46 3,8.6 6.56,17.11 10.57,25.29 2.33,4.78 1.77,10.47 -1.48,14.85 l -23.09,31.1 c -8.75,11.77 -7.52,27.82 2.9,38.15 l 45.01,44.63 c 10.41,10.34 26.61,11.55 38.48,2.88 l 31.36,-22.89 c 4.42,-3.23 10.16,-3.79 14.98,-1.47 8.26,3.98 16.84,7.5 25.5,10.47 5.06,1.74 8.72,6.16 9.54,11.53 l 5.85,38.18 c 2.21,14.46 14.52,24.95 29.26,24.95 h 63.66 c 14.74,0 27.05,-10.49 29.26,-24.95 l 5.85,-38.18 c 0.82,-5.37 4.48,-9.79 9.53,-11.52 8.67,-2.98 17.25,-6.5 25.51,-10.48 4.81,-2.32 10.56,-1.76 14.98,1.46 l 31.36,22.9 c 11.86,8.67 28.06,7.46 38.48,-2.88 l 45.01,-44.63 c 10.42,-10.33 11.65,-26.38 2.9,-38.15 l -23.09,-31.1 c -3.25,-4.38 -3.81,-10.07 -1.48,-14.85 4.01,-8.18 7.57,-16.69 10.57,-25.29 1.75,-5.02 6.2,-8.64 11.62,-9.46 l 38.51,-5.79 c 14.58,-2.2 25.16,-14.4 25.16,-29.02 v -63.117 c 0,-14.621 -10.58,-26.823 -25.16,-29.02 l -38.51,-5.797 c -5.42,-0.813 -9.87,-4.439 -11.62,-9.456 -3,-8.601 -6.56,-17.11 -10.57,-25.287 -2.33,-4.782 -1.77,-10.475 1.48,-14.853 l 23.09,-31.095 c 8.75,-11.774 7.52,-27.82 -2.9,-38.157 l -45.01,-44.63 c -10.43,-10.337 -26.62,-11.551 -38.48,-2.877 l -31.36,22.893 c -4.41,3.225 -10.15,3.788 -14.98,1.467 -8.26,-3.977 -16.84,-7.503 -25.5,-10.473 -5.06,-1.738 -8.72,-6.156 -9.54,-11.53 l -5.85,-38.181 c -2.21,-14.456 -14.52,-24.947 -29.26,-24.947 h -63.66 c -14.74,0 -27.05,10.491 -29.26,24.947 l -5.85,38.181 c -0.82,5.374 -4.48,9.792 -9.53,11.526 -8.67,2.974 -17.25,6.5 -25.51,10.477 -4.82,2.318 -10.57,1.755 -14.98,-1.463 l -31.36,-22.897 c -11.86,-8.663 -28.05,-7.46 -38.48,2.877 l -45.01,44.63 c -10.42,10.337 -11.65,26.383 -2.9,38.157 l 23.09,31.095 c 3.25,4.378 3.81,10.071 1.48,14.85 -4.01,8.18 -7.57,16.689 -10.57,25.29 z m 21.01,-48.839 -23.09,-31.095 c -4.38,-5.887 -3.77,-13.912 1.45,-19.082 l 45,-44.627 c 5.21,-5.177 13.3,-5.783 19.25,-1.44 l 31.36,22.901 c 8.85,6.46 20.43,7.552 30.22,2.841 7.73,-3.722 15.76,-7.023 23.88,-9.806 10.27,-3.521 17.67,-12.411 19.32,-23.195 l 5.85,-38.181 c 1.11,-7.227 7.26,-12.472 14.63,-12.472 h 63.66 c 7.37,0 13.52,5.245 14.63,12.472 l 5.85,38.181 c 1.65,10.784 9.05,19.674 19.33,23.198 8.11,2.78 16.14,6.081 23.88,9.803 9.77,4.711 21.35,3.626 30.21,-2.845 l 31.36,-22.897 c 5.94,-4.343 14.03,-3.73 19.24,1.436 l 45.01,44.631 c 5.22,5.17 5.83,13.195 1.45,19.082 l -23.09,31.095 c -6.52,8.782 -7.61,20.264 -2.87,29.962 3.75,7.656 7.08,15.625 9.89,23.679 3.55,10.186 12.52,17.527 23.4,19.164 l 38.5,5.797 c 7.29,1.096 12.58,7.197 12.58,14.51 v 63.117 c 0,7.31 -5.29,13.41 -12.58,14.51 l -38.5,5.79 c -10.88,1.64 -19.85,8.98 -23.4,19.17 -2.81,8.05 -6.14,16.02 -9.89,23.68 -4.74,9.7 -3.65,21.18 2.87,29.96 l 23.09,31.09 c 4.38,5.89 3.77,13.92 -1.45,19.09 l -45.01,44.62 c -5.21,5.17 -13.3,5.77 -19.24,1.44 l -31.36,-22.9 c -8.86,-6.46 -20.43,-7.55 -30.22,-2.84 -7.73,3.72 -15.76,7.02 -23.88,9.81 -10.27,3.52 -17.67,12.41 -19.32,23.19 l -5.85,38.18 c -1.11,7.23 -7.26,12.47 -14.63,12.47 h -63.66 c -7.37,0 -13.52,-5.24 -14.63,-12.47 l -5.85,-38.18 c -1.65,-10.78 -9.05,-19.67 -19.33,-23.2 -8.11,-2.78 -16.14,-6.08 -23.88,-9.8 -4.03,-1.94 -8.37,-2.9 -12.69,-2.9 -6.17,0 -12.32,1.94 -17.52,5.75 l -31.36,22.89 c -5.95,4.33 -14.04,3.73 -19.25,-1.44 l -45,-44.62 c -5.22,-5.17 -5.83,-13.2 -1.45,-19.09 l 23.09,-31.09 c 6.52,-8.78 7.61,-20.26 2.87,-29.96 -3.75,-7.66 -7.08,-15.63 -9.89,-23.68 -3.56,-10.19 -12.52,-17.53 -23.4,-19.17 l -38.5,-5.79 c -7.29,-1.1 -12.58,-7.2 -12.58,-14.51 v -63.117 c 0,-7.313 5.29,-13.414 12.58,-14.51 l 38.5,-5.797 c 10.88,-1.637 19.84,-8.978 23.4,-19.164 2.81,-8.054 6.14,-16.023 9.89,-23.682 4.74,-9.695 3.65,-21.177 -2.87,-29.959 z"
         stroke="#8ebae5"
         stroke-width="6.875"
         stroke-linecap="butt"
         stroke-linejoin="miter"
         stroke-miterlimit="8"
         stroke-opacity="1"
         fill="#8ebae5"
         fill-rule="evenodd"
         fill-opacity="1"
         id="path1" /><path
         d="m 1904.5,1031.5 v 82.19"
         stroke="#8ebae5"
         stroke-width="22.9167"
         stroke-linecap="round"
         stroke-linejoin="miter"
         stroke-miterlimit="8"
         stroke-opacity="1"
         fill="none"
         fill-rule="evenodd"
         id="path2" /><path
         d="m 1791.72,920.897 c 57.42,-4.057 107.52,39.225 111.91,96.673 0.47,6.09 0.4,12.21 -0.21,18.28"
         stroke="#8ebae5"
         stroke-width="22.9167"
         stroke-linecap="round"
         stroke-linejoin="round"
         stroke-miterlimit="10"
         stroke-opacity="1"
         fill="none"
         fill-rule="evenodd"
         id="path3" /><path
         d="m 170.853,24.5125 c 43.96,37.1544 49.651,103.1175 12.712,147.3335 -3.853,4.611 -8.094,8.879 -12.677,12.756"
         stroke="#8ebae5"
         stroke-width="22.9167"
         stroke-linecap="round"
         stroke-linejoin="round"
         stroke-miterlimit="10"
         stroke-opacity="1"
         fill="none"
         fill-rule="evenodd"
         transform="matrix(-0.716349,0.697743,0.697743,0.716349,1896.28,784.839)"
         id="path4" /><path
         d="m 2010.39,875.427 c 12.54,61.175 -25.81,130.293 -85.67,154.383 -3.27,1.31 -6.56,2.48 -9.88,3.49"
         stroke="#8ebae5"
         stroke-width="22.9167"
         stroke-linecap="round"
         stroke-linejoin="round"
         stroke-miterlimit="10"
         stroke-opacity="1"
         fill="none"
         fill-rule="evenodd"
         id="path5" /><path
         d="m 170.911,29.3588 c 43.933,44.4505 49.578,123.3052 12.606,176.1262 -1.856,2.653 -3.803,5.211 -5.837,7.669"
         stroke="#8ebae5"
         stroke-width="22.9167"
         stroke-linecap="round"
         stroke-linejoin="round"
         stroke-miterlimit="10"
         stroke-opacity="1"
         fill="none"
         fill-rule="evenodd"
         transform="matrix(-0.835557,-0.549404,-0.549404,0.835557,2168.47,944.649)"
         id="path6" /></g></g></svg>
