<?xml version="1.0" encoding="utf-8" standalone="no"?>
<!DOCTYPE svg PUBLIC "-//W3C//DTD SVG 1.1//EN"
  "http://www.w3.org/Graphics/SVG/1.1/DTD/svg11.dtd">
<svg xmlns:xlink="http://www.w3.org/1999/xlink" width="864pt" height="288pt" viewBox="0 0 864 288" xmlns="http://www.w3.org/2000/svg" version="1.1">
 <metadata>
  <rdf:RDF xmlns:dc="http://purl.org/dc/elements/1.1/" xmlns:cc="http://creativecommons.org/ns#" xmlns:rdf="http://www.w3.org/1999/02/22-rdf-syntax-ns#">
   <cc:Work>
    <dc:type rdf:resource="http://purl.org/dc/dcmitype/StillImage"/>
    <dc:date>2025-01-30T01:08:23.742515</dc:date>
    <dc:format>image/svg+xml</dc:format>
    <dc:creator>
     <cc:Agent>
      <dc:title>Matplotlib v3.10.0, https://matplotlib.org/</dc:title>
     </cc:Agent>
    </dc:creator>
   </cc:Work>
  </rdf:RDF>
 </metadata>
 <defs>
  <style type="text/css">*{stroke-linejoin: round; stroke-linecap: butt}</style>
 </defs>
 <g id="figure_1">
  <g id="patch_1">
   <path d="M 0 288 
L 864 288 
L 864 0 
L 0 0 
z
" style="fill: #ffffff"/>
  </g>
  <g id="axes_1">
   <g id="patch_2">
    <path d="M 50.87 231.045994 
L 426.6 231.045994 
L 426.6 10.8 
L 50.87 10.8 
z
" style="fill: #ffffff"/>
   </g>
   <g id="matplotlib.axis_1">
    <g id="xtick_1">
     <g id="line2d_1">
      <defs>
       <path id="mc2d35aca14" d="M 0 0 
L 0 3.5 
" style="stroke: #000000; stroke-width: 0.8"/>
      </defs>
      <g>
       <use xlink:href="#mc2d35aca14" x="57.132167" y="231.045994" style="stroke: #000000; stroke-width: 0.8"/>
      </g>
     </g>
     <g id="text_1">
      <!-- 2020 -->
      <g transform="translate(50.085406 261.414768) rotate(-45) scale(0.1 -0.1)">
       <defs>
        <path id="DejaVuSerif-32" d="M 819 3553 
L 469 3553 
L 469 4384 
Q 803 4563 1142 4656 
Q 1481 4750 1806 4750 
Q 2534 4750 2956 4397 
Q 3378 4044 3378 3438 
Q 3378 2753 2422 1800 
Q 2347 1728 2309 1691 
L 1131 513 
L 3078 513 
L 3078 1088 
L 3444 1088 
L 3444 0 
L 434 0 
L 434 341 
L 1850 1753 
Q 2319 2222 2519 2614 
Q 2719 3006 2719 3438 
Q 2719 3909 2473 4175 
Q 2228 4441 1797 4441 
Q 1350 4441 1106 4219 
Q 863 3997 819 3553 
z
" transform="scale(0.015625)"/>
        <path id="DejaVuSerif-30" d="M 2034 219 
Q 2513 219 2750 744 
Q 2988 1269 2988 2328 
Q 2988 3391 2750 3916 
Q 2513 4441 2034 4441 
Q 1556 4441 1318 3916 
Q 1081 3391 1081 2328 
Q 1081 1269 1318 744 
Q 1556 219 2034 219 
z
M 2034 -91 
Q 1275 -91 848 546 
Q 422 1184 422 2328 
Q 422 3475 848 4112 
Q 1275 4750 2034 4750 
Q 2797 4750 3222 4112 
Q 3647 3475 3647 2328 
Q 3647 1184 3222 546 
Q 2797 -91 2034 -91 
z
" transform="scale(0.015625)"/>
       </defs>
       <use xlink:href="#DejaVuSerif-32"/>
       <use xlink:href="#DejaVuSerif-30" transform="translate(63.623047 0)"/>
       <use xlink:href="#DejaVuSerif-32" transform="translate(127.246094 0)"/>
       <use xlink:href="#DejaVuSerif-30" transform="translate(190.869141 0)"/>
      </g>
     </g>
    </g>
    <g id="xtick_2">
     <g id="line2d_2">
      <g>
       <use xlink:href="#mc2d35aca14" x="82.180833" y="231.045994" style="stroke: #000000; stroke-width: 0.8"/>
      </g>
     </g>
     <g id="text_2">
      <!-- 2022 -->
      <g transform="translate(75.134072 261.414768) rotate(-45) scale(0.1 -0.1)">
       <use xlink:href="#DejaVuSerif-32"/>
       <use xlink:href="#DejaVuSerif-30" transform="translate(63.623047 0)"/>
       <use xlink:href="#DejaVuSerif-32" transform="translate(127.246094 0)"/>
       <use xlink:href="#DejaVuSerif-32" transform="translate(190.869141 0)"/>
      </g>
     </g>
    </g>
    <g id="xtick_3">
     <g id="line2d_3">
      <g>
       <use xlink:href="#mc2d35aca14" x="107.2295" y="231.045994" style="stroke: #000000; stroke-width: 0.8"/>
      </g>
     </g>
     <g id="text_3">
      <!-- 2024 -->
      <g transform="translate(100.182739 261.414768) rotate(-45) scale(0.1 -0.1)">
       <defs>
        <path id="DejaVuSerif-34" d="M 2234 1581 
L 2234 4063 
L 641 1581 
L 2234 1581 
z
M 3609 0 
L 1484 0 
L 1484 331 
L 2234 331 
L 2234 1247 
L 197 1247 
L 197 1588 
L 2241 4750 
L 2859 4750 
L 2859 1581 
L 3750 1581 
L 3750 1247 
L 2859 1247 
L 2859 331 
L 3609 331 
L 3609 0 
z
" transform="scale(0.015625)"/>
       </defs>
       <use xlink:href="#DejaVuSerif-32"/>
       <use xlink:href="#DejaVuSerif-30" transform="translate(63.623047 0)"/>
       <use xlink:href="#DejaVuSerif-32" transform="translate(127.246094 0)"/>
       <use xlink:href="#DejaVuSerif-34" transform="translate(190.869141 0)"/>
      </g>
     </g>
    </g>
    <g id="xtick_4">
     <g id="line2d_4">
      <g>
       <use xlink:href="#mc2d35aca14" x="132.278167" y="231.045994" style="stroke: #000000; stroke-width: 0.8"/>
      </g>
     </g>
     <g id="text_4">
      <!-- 2026 -->
      <g transform="translate(125.231406 261.414768) rotate(-45) scale(0.1 -0.1)">
       <defs>
        <path id="DejaVuSerif-36" d="M 2094 219 
Q 2534 219 2771 542 
Q 3009 866 3009 1472 
Q 3009 2078 2771 2401 
Q 2534 2725 2094 2725 
Q 1647 2725 1412 2412 
Q 1178 2100 1178 1509 
Q 1178 888 1415 553 
Q 1653 219 2094 219 
z
M 1075 2569 
Q 1288 2803 1556 2918 
Q 1825 3034 2163 3034 
Q 2859 3034 3264 2615 
Q 3669 2197 3669 1472 
Q 3669 763 3233 336 
Q 2797 -91 2069 -91 
Q 1278 -91 853 498 
Q 428 1088 428 2181 
Q 428 3406 931 4078 
Q 1434 4750 2350 4750 
Q 2597 4750 2869 4703 
Q 3141 4656 3425 4563 
L 3425 3794 
L 3072 3794 
Q 3034 4109 2831 4275 
Q 2628 4441 2284 4441 
Q 1678 4441 1381 3981 
Q 1084 3522 1075 2569 
z
" transform="scale(0.015625)"/>
       </defs>
       <use xlink:href="#DejaVuSerif-32"/>
       <use xlink:href="#DejaVuSerif-30" transform="translate(63.623047 0)"/>
       <use xlink:href="#DejaVuSerif-32" transform="translate(127.246094 0)"/>
       <use xlink:href="#DejaVuSerif-36" transform="translate(190.869141 0)"/>
      </g>
     </g>
    </g>
    <g id="xtick_5">
     <g id="line2d_5">
      <g>
       <use xlink:href="#mc2d35aca14" x="157.326833" y="231.045994" style="stroke: #000000; stroke-width: 0.8"/>
      </g>
     </g>
     <g id="text_5">
      <!-- 2028 -->
      <g transform="translate(150.280072 261.414768) rotate(-45) scale(0.1 -0.1)">
       <defs>
        <path id="DejaVuSerif-38" d="M 2981 1275 
Q 2981 1775 2732 2051 
Q 2484 2328 2034 2328 
Q 1584 2328 1336 2051 
Q 1088 1775 1088 1275 
Q 1088 772 1336 495 
Q 1584 219 2034 219 
Q 2484 219 2732 495 
Q 2981 772 2981 1275 
z
M 2853 3541 
Q 2853 3966 2637 4203 
Q 2422 4441 2034 4441 
Q 1650 4441 1433 4203 
Q 1216 3966 1216 3541 
Q 1216 3113 1433 2875 
Q 1650 2638 2034 2638 
Q 2422 2638 2637 2875 
Q 2853 3113 2853 3541 
z
M 2516 2484 
Q 3047 2413 3344 2092 
Q 3641 1772 3641 1275 
Q 3641 619 3225 264 
Q 2809 -91 2034 -91 
Q 1263 -91 845 264 
Q 428 619 428 1275 
Q 428 1772 725 2092 
Q 1022 2413 1556 2484 
Q 1084 2569 832 2842 
Q 581 3116 581 3541 
Q 581 4103 968 4426 
Q 1356 4750 2034 4750 
Q 2713 4750 3100 4426 
Q 3488 4103 3488 3541 
Q 3488 3116 3236 2842 
Q 2984 2569 2516 2484 
z
" transform="scale(0.015625)"/>
       </defs>
       <use xlink:href="#DejaVuSerif-32"/>
       <use xlink:href="#DejaVuSerif-30" transform="translate(63.623047 0)"/>
       <use xlink:href="#DejaVuSerif-32" transform="translate(127.246094 0)"/>
       <use xlink:href="#DejaVuSerif-38" transform="translate(190.869141 0)"/>
      </g>
     </g>
    </g>
    <g id="xtick_6">
     <g id="line2d_6">
      <g>
       <use xlink:href="#mc2d35aca14" x="182.3755" y="231.045994" style="stroke: #000000; stroke-width: 0.8"/>
      </g>
     </g>
     <g id="text_6">
      <!-- 2030 -->
      <g transform="translate(175.328739 261.414768) rotate(-45) scale(0.1 -0.1)">
       <defs>
        <path id="DejaVuSerif-33" d="M 622 4469 
Q 988 4606 1323 4678 
Q 1659 4750 1953 4750 
Q 2638 4750 3022 4454 
Q 3406 4159 3406 3634 
Q 3406 3213 3140 2930 
Q 2875 2647 2388 2547 
Q 2963 2466 3280 2130 
Q 3597 1794 3597 1259 
Q 3597 606 3158 257 
Q 2719 -91 1894 -91 
Q 1528 -91 1179 -12 
Q 831 66 488 225 
L 488 1131 
L 838 1131 
Q 869 681 1141 450 
Q 1413 219 1906 219 
Q 2384 219 2661 495 
Q 2938 772 2938 1253 
Q 2938 1803 2653 2086 
Q 2369 2369 1819 2369 
L 1522 2369 
L 1522 2688 
L 1678 2688 
Q 2225 2688 2498 2914 
Q 2772 3141 2772 3597 
Q 2772 4006 2547 4223 
Q 2322 4441 1900 4441 
Q 1478 4441 1245 4241 
Q 1013 4041 972 3647 
L 622 3647 
L 622 4469 
z
" transform="scale(0.015625)"/>
       </defs>
       <use xlink:href="#DejaVuSerif-32"/>
       <use xlink:href="#DejaVuSerif-30" transform="translate(63.623047 0)"/>
       <use xlink:href="#DejaVuSerif-33" transform="translate(127.246094 0)"/>
       <use xlink:href="#DejaVuSerif-30" transform="translate(190.869141 0)"/>
      </g>
     </g>
    </g>
    <g id="xtick_7">
     <g id="line2d_7">
      <g>
       <use xlink:href="#mc2d35aca14" x="207.424167" y="231.045994" style="stroke: #000000; stroke-width: 0.8"/>
      </g>
     </g>
     <g id="text_7">
      <!-- 2032 -->
      <g transform="translate(200.377406 261.414768) rotate(-45) scale(0.1 -0.1)">
       <use xlink:href="#DejaVuSerif-32"/>
       <use xlink:href="#DejaVuSerif-30" transform="translate(63.623047 0)"/>
       <use xlink:href="#DejaVuSerif-33" transform="translate(127.246094 0)"/>
       <use xlink:href="#DejaVuSerif-32" transform="translate(190.869141 0)"/>
      </g>
     </g>
    </g>
    <g id="xtick_8">
     <g id="line2d_8">
      <g>
       <use xlink:href="#mc2d35aca14" x="232.472833" y="231.045994" style="stroke: #000000; stroke-width: 0.8"/>
      </g>
     </g>
     <g id="text_8">
      <!-- 2034 -->
      <g transform="translate(225.426072 261.414768) rotate(-45) scale(0.1 -0.1)">
       <use xlink:href="#DejaVuSerif-32"/>
       <use xlink:href="#DejaVuSerif-30" transform="translate(63.623047 0)"/>
       <use xlink:href="#DejaVuSerif-33" transform="translate(127.246094 0)"/>
       <use xlink:href="#DejaVuSerif-34" transform="translate(190.869141 0)"/>
      </g>
     </g>
    </g>
    <g id="xtick_9">
     <g id="line2d_9">
      <g>
       <use xlink:href="#mc2d35aca14" x="257.5215" y="231.045994" style="stroke: #000000; stroke-width: 0.8"/>
      </g>
     </g>
     <g id="text_9">
      <!-- 2036 -->
      <g transform="translate(250.474739 261.414768) rotate(-45) scale(0.1 -0.1)">
       <use xlink:href="#DejaVuSerif-32"/>
       <use xlink:href="#DejaVuSerif-30" transform="translate(63.623047 0)"/>
       <use xlink:href="#DejaVuSerif-33" transform="translate(127.246094 0)"/>
       <use xlink:href="#DejaVuSerif-36" transform="translate(190.869141 0)"/>
      </g>
     </g>
    </g>
    <g id="xtick_10">
     <g id="line2d_10">
      <g>
       <use xlink:href="#mc2d35aca14" x="282.570167" y="231.045994" style="stroke: #000000; stroke-width: 0.8"/>
      </g>
     </g>
     <g id="text_10">
      <!-- 2038 -->
      <g transform="translate(275.523406 261.414768) rotate(-45) scale(0.1 -0.1)">
       <use xlink:href="#DejaVuSerif-32"/>
       <use xlink:href="#DejaVuSerif-30" transform="translate(63.623047 0)"/>
       <use xlink:href="#DejaVuSerif-33" transform="translate(127.246094 0)"/>
       <use xlink:href="#DejaVuSerif-38" transform="translate(190.869141 0)"/>
      </g>
     </g>
    </g>
    <g id="xtick_11">
     <g id="line2d_11">
      <g>
       <use xlink:href="#mc2d35aca14" x="307.618833" y="231.045994" style="stroke: #000000; stroke-width: 0.8"/>
      </g>
     </g>
     <g id="text_11">
      <!-- 2040 -->
      <g transform="translate(300.572072 261.414768) rotate(-45) scale(0.1 -0.1)">
       <use xlink:href="#DejaVuSerif-32"/>
       <use xlink:href="#DejaVuSerif-30" transform="translate(63.623047 0)"/>
       <use xlink:href="#DejaVuSerif-34" transform="translate(127.246094 0)"/>
       <use xlink:href="#DejaVuSerif-30" transform="translate(190.869141 0)"/>
      </g>
     </g>
    </g>
    <g id="xtick_12">
     <g id="line2d_12">
      <g>
       <use xlink:href="#mc2d35aca14" x="332.6675" y="231.045994" style="stroke: #000000; stroke-width: 0.8"/>
      </g>
     </g>
     <g id="text_12">
      <!-- 2042 -->
      <g transform="translate(325.620739 261.414768) rotate(-45) scale(0.1 -0.1)">
       <use xlink:href="#DejaVuSerif-32"/>
       <use xlink:href="#DejaVuSerif-30" transform="translate(63.623047 0)"/>
       <use xlink:href="#DejaVuSerif-34" transform="translate(127.246094 0)"/>
       <use xlink:href="#DejaVuSerif-32" transform="translate(190.869141 0)"/>
      </g>
     </g>
    </g>
    <g id="xtick_13">
     <g id="line2d_13">
      <g>
       <use xlink:href="#mc2d35aca14" x="357.716167" y="231.045994" style="stroke: #000000; stroke-width: 0.8"/>
      </g>
     </g>
     <g id="text_13">
      <!-- 2044 -->
      <g transform="translate(350.669406 261.414768) rotate(-45) scale(0.1 -0.1)">
       <use xlink:href="#DejaVuSerif-32"/>
       <use xlink:href="#DejaVuSerif-30" transform="translate(63.623047 0)"/>
       <use xlink:href="#DejaVuSerif-34" transform="translate(127.246094 0)"/>
       <use xlink:href="#DejaVuSerif-34" transform="translate(190.869141 0)"/>
      </g>
     </g>
    </g>
    <g id="xtick_14">
     <g id="line2d_14">
      <g>
       <use xlink:href="#mc2d35aca14" x="382.764833" y="231.045994" style="stroke: #000000; stroke-width: 0.8"/>
      </g>
     </g>
     <g id="text_14">
      <!-- 2046 -->
      <g transform="translate(375.718072 261.414768) rotate(-45) scale(0.1 -0.1)">
       <use xlink:href="#DejaVuSerif-32"/>
       <use xlink:href="#DejaVuSerif-30" transform="translate(63.623047 0)"/>
       <use xlink:href="#DejaVuSerif-34" transform="translate(127.246094 0)"/>
       <use xlink:href="#DejaVuSerif-36" transform="translate(190.869141 0)"/>
      </g>
     </g>
    </g>
    <g id="xtick_15">
     <g id="line2d_15">
      <g>
       <use xlink:href="#mc2d35aca14" x="407.8135" y="231.045994" style="stroke: #000000; stroke-width: 0.8"/>
      </g>
     </g>
     <g id="text_15">
      <!-- 2048 -->
      <g transform="translate(400.766739 261.414768) rotate(-45) scale(0.1 -0.1)">
       <use xlink:href="#DejaVuSerif-32"/>
       <use xlink:href="#DejaVuSerif-30" transform="translate(63.623047 0)"/>
       <use xlink:href="#DejaVuSerif-34" transform="translate(127.246094 0)"/>
       <use xlink:href="#DejaVuSerif-38" transform="translate(190.869141 0)"/>
      </g>
     </g>
    </g>
    <g id="xtick_16">
     <g id="line2d_16">
      <defs>
       <path id="m24b042648a" d="M 0 0 
L 0 2 
" style="stroke: #000000; stroke-width: 0.6"/>
      </defs>
      <g>
       <use xlink:href="#m24b042648a" x="69.6565" y="231.045994" style="stroke: #000000; stroke-width: 0.6"/>
      </g>
     </g>
    </g>
    <g id="xtick_17">
     <g id="line2d_17">
      <g>
       <use xlink:href="#m24b042648a" x="94.705167" y="231.045994" style="stroke: #000000; stroke-width: 0.6"/>
      </g>
     </g>
    </g>
    <g id="xtick_18">
     <g id="line2d_18">
      <g>
       <use xlink:href="#m24b042648a" x="119.753833" y="231.045994" style="stroke: #000000; stroke-width: 0.6"/>
      </g>
     </g>
    </g>
    <g id="xtick_19">
     <g id="line2d_19">
      <g>
       <use xlink:href="#m24b042648a" x="144.8025" y="231.045994" style="stroke: #000000; stroke-width: 0.6"/>
      </g>
     </g>
    </g>
    <g id="xtick_20">
     <g id="line2d_20">
      <g>
       <use xlink:href="#m24b042648a" x="169.851167" y="231.045994" style="stroke: #000000; stroke-width: 0.6"/>
      </g>
     </g>
    </g>
    <g id="xtick_21">
     <g id="line2d_21">
      <g>
       <use xlink:href="#m24b042648a" x="194.899833" y="231.045994" style="stroke: #000000; stroke-width: 0.6"/>
      </g>
     </g>
    </g>
    <g id="xtick_22">
     <g id="line2d_22">
      <g>
       <use xlink:href="#m24b042648a" x="219.9485" y="231.045994" style="stroke: #000000; stroke-width: 0.6"/>
      </g>
     </g>
    </g>
    <g id="xtick_23">
     <g id="line2d_23">
      <g>
       <use xlink:href="#m24b042648a" x="244.997167" y="231.045994" style="stroke: #000000; stroke-width: 0.6"/>
      </g>
     </g>
    </g>
    <g id="xtick_24">
     <g id="line2d_24">
      <g>
       <use xlink:href="#m24b042648a" x="270.045833" y="231.045994" style="stroke: #000000; stroke-width: 0.6"/>
      </g>
     </g>
    </g>
    <g id="xtick_25">
     <g id="line2d_25">
      <g>
       <use xlink:href="#m24b042648a" x="295.0945" y="231.045994" style="stroke: #000000; stroke-width: 0.6"/>
      </g>
     </g>
    </g>
    <g id="xtick_26">
     <g id="line2d_26">
      <g>
       <use xlink:href="#m24b042648a" x="320.143167" y="231.045994" style="stroke: #000000; stroke-width: 0.6"/>
      </g>
     </g>
    </g>
    <g id="xtick_27">
     <g id="line2d_27">
      <g>
       <use xlink:href="#m24b042648a" x="345.191833" y="231.045994" style="stroke: #000000; stroke-width: 0.6"/>
      </g>
     </g>
    </g>
    <g id="xtick_28">
     <g id="line2d_28">
      <g>
       <use xlink:href="#m24b042648a" x="370.2405" y="231.045994" style="stroke: #000000; stroke-width: 0.6"/>
      </g>
     </g>
    </g>
    <g id="xtick_29">
     <g id="line2d_29">
      <g>
       <use xlink:href="#m24b042648a" x="395.289167" y="231.045994" style="stroke: #000000; stroke-width: 0.6"/>
      </g>
     </g>
    </g>
    <g id="xtick_30">
     <g id="line2d_30">
      <g>
       <use xlink:href="#m24b042648a" x="420.337833" y="231.045994" style="stroke: #000000; stroke-width: 0.6"/>
      </g>
     </g>
    </g>
    <g id="text_16">
     <!-- Year -->
     <g transform="translate(227.54125 274.483766) scale(0.1 -0.1)">
      <defs>
       <path id="DejaVuSerif-59" d="M 1209 0 
L 1209 331 
L 1806 331 
L 1806 2009 
L 366 4331 
L -72 4331 
L -72 4666 
L 1663 4666 
L 1663 4331 
L 1119 4331 
L 2284 2444 
L 3450 4331 
L 2925 4331 
L 2925 4666 
L 4281 4666 
L 4281 4331 
L 3841 4331 
L 2438 2069 
L 2438 331 
L 3034 331 
L 3034 0 
L 1209 0 
z
" transform="scale(0.015625)"/>
       <path id="DejaVuSerif-65" d="M 3469 1600 
L 991 1600 
L 991 1575 
Q 991 903 1244 561 
Q 1497 219 1991 219 
Q 2369 219 2611 417 
Q 2853 616 2950 1006 
L 3413 1006 
Q 3275 459 2904 184 
Q 2534 -91 1931 -91 
Q 1203 -91 761 389 
Q 319 869 319 1663 
Q 319 2450 753 2931 
Q 1188 3413 1894 3413 
Q 2647 3413 3050 2948 
Q 3453 2484 3469 1600 
z
M 2791 1931 
Q 2772 2513 2545 2808 
Q 2319 3103 1894 3103 
Q 1497 3103 1269 2806 
Q 1041 2509 991 1931 
L 2791 1931 
z
" transform="scale(0.015625)"/>
       <path id="DejaVuSerif-61" d="M 2547 1044 
L 2547 1747 
L 1806 1747 
Q 1378 1747 1168 1562 
Q 959 1378 959 997 
Q 959 650 1171 447 
Q 1384 244 1747 244 
Q 2106 244 2326 466 
Q 2547 688 2547 1044 
z
M 3122 2075 
L 3122 331 
L 3634 331 
L 3634 0 
L 2547 0 
L 2547 359 
Q 2356 128 2106 18 
Q 1856 -91 1522 -91 
Q 969 -91 644 203 
Q 319 497 319 997 
Q 319 1513 691 1797 
Q 1063 2081 1741 2081 
L 2547 2081 
L 2547 2309 
Q 2547 2688 2317 2895 
Q 2088 3103 1672 3103 
Q 1328 3103 1125 2947 
Q 922 2791 872 2484 
L 575 2484 
L 575 3156 
Q 875 3284 1158 3348 
Q 1441 3413 1709 3413 
Q 2400 3413 2761 3070 
Q 3122 2728 3122 2075 
z
" transform="scale(0.015625)"/>
       <path id="DejaVuSerif-72" d="M 3059 3328 
L 3059 2497 
L 2728 2497 
Q 2713 2744 2591 2866 
Q 2469 2988 2234 2988 
Q 1809 2988 1582 2694 
Q 1356 2400 1356 1850 
L 1356 331 
L 2022 331 
L 2022 0 
L 263 0 
L 263 331 
L 781 331 
L 781 2994 
L 231 2994 
L 231 3322 
L 1356 3322 
L 1356 2731 
Q 1525 3078 1790 3245 
Q 2056 3413 2438 3413 
Q 2578 3413 2733 3391 
Q 2888 3369 3059 3328 
z
" transform="scale(0.015625)"/>
      </defs>
      <use xlink:href="#DejaVuSerif-59"/>
      <use xlink:href="#DejaVuSerif-65" transform="translate(57.265625 0)"/>
      <use xlink:href="#DejaVuSerif-61" transform="translate(116.445312 0)"/>
      <use xlink:href="#DejaVuSerif-72" transform="translate(176.064453 0)"/>
     </g>
    </g>
   </g>
   <g id="matplotlib.axis_2">
    <g id="ytick_1">
     <g id="line2d_31">
      <path d="M 50.87 231.045994 
L 426.6 231.045994 
" clip-path="url(#p264e30fd3d)" style="fill: none; stroke-dasharray: 2.96,1.28; stroke-dashoffset: 0; stroke: #808080; stroke-opacity: 0.7; stroke-width: 0.8"/>
     </g>
     <g id="line2d_32">
      <defs>
       <path id="m5af514ead7" d="M 0 0 
L -3.5 0 
" style="stroke: #000000; stroke-width: 0.8"/>
      </defs>
      <g>
       <use xlink:href="#m5af514ead7" x="50.87" y="231.045994" style="stroke: #000000; stroke-width: 0.8"/>
      </g>
     </g>
     <g id="text_17">
      <!-- 0 -->
      <g transform="translate(37.5075 234.845212) scale(0.1 -0.1)">
       <use xlink:href="#DejaVuSerif-30"/>
      </g>
     </g>
    </g>
    <g id="ytick_2">
     <g id="line2d_33">
      <path d="M 50.87 197.161995 
L 426.6 197.161995 
" clip-path="url(#p264e30fd3d)" style="fill: none; stroke-dasharray: 2.96,1.28; stroke-dashoffset: 0; stroke: #808080; stroke-opacity: 0.7; stroke-width: 0.8"/>
     </g>
     <g id="line2d_34">
      <g>
       <use xlink:href="#m5af514ead7" x="50.87" y="197.161995" style="stroke: #000000; stroke-width: 0.8"/>
      </g>
     </g>
     <g id="text_18">
      <!-- 20 -->
      <g transform="translate(31.145 200.961213) scale(0.1 -0.1)">
       <use xlink:href="#DejaVuSerif-32"/>
       <use xlink:href="#DejaVuSerif-30" transform="translate(63.623047 0)"/>
      </g>
     </g>
    </g>
    <g id="ytick_3">
     <g id="line2d_35">
      <path d="M 50.87 163.277996 
L 426.6 163.277996 
" clip-path="url(#p264e30fd3d)" style="fill: none; stroke-dasharray: 2.96,1.28; stroke-dashoffset: 0; stroke: #808080; stroke-opacity: 0.7; stroke-width: 0.8"/>
     </g>
     <g id="line2d_36">
      <g>
       <use xlink:href="#m5af514ead7" x="50.87" y="163.277996" style="stroke: #000000; stroke-width: 0.8"/>
      </g>
     </g>
     <g id="text_19">
      <!-- 40 -->
      <g transform="translate(31.145 167.077214) scale(0.1 -0.1)">
       <use xlink:href="#DejaVuSerif-34"/>
       <use xlink:href="#DejaVuSerif-30" transform="translate(63.623047 0)"/>
      </g>
     </g>
    </g>
    <g id="ytick_4">
     <g id="line2d_37">
      <path d="M 50.87 129.393997 
L 426.6 129.393997 
" clip-path="url(#p264e30fd3d)" style="fill: none; stroke-dasharray: 2.96,1.28; stroke-dashoffset: 0; stroke: #808080; stroke-opacity: 0.7; stroke-width: 0.8"/>
     </g>
     <g id="line2d_38">
      <g>
       <use xlink:href="#m5af514ead7" x="50.87" y="129.393997" style="stroke: #000000; stroke-width: 0.8"/>
      </g>
     </g>
     <g id="text_20">
      <!-- 60 -->
      <g transform="translate(31.145 133.193215) scale(0.1 -0.1)">
       <use xlink:href="#DejaVuSerif-36"/>
       <use xlink:href="#DejaVuSerif-30" transform="translate(63.623047 0)"/>
      </g>
     </g>
    </g>
    <g id="ytick_5">
     <g id="line2d_39">
      <path d="M 50.87 95.509998 
L 426.6 95.509998 
" clip-path="url(#p264e30fd3d)" style="fill: none; stroke-dasharray: 2.96,1.28; stroke-dashoffset: 0; stroke: #808080; stroke-opacity: 0.7; stroke-width: 0.8"/>
     </g>
     <g id="line2d_40">
      <g>
       <use xlink:href="#m5af514ead7" x="50.87" y="95.509998" style="stroke: #000000; stroke-width: 0.8"/>
      </g>
     </g>
     <g id="text_21">
      <!-- 80 -->
      <g transform="translate(31.145 99.309216) scale(0.1 -0.1)">
       <use xlink:href="#DejaVuSerif-38"/>
       <use xlink:href="#DejaVuSerif-30" transform="translate(63.623047 0)"/>
      </g>
     </g>
    </g>
    <g id="ytick_6">
     <g id="line2d_41">
      <path d="M 50.87 61.625999 
L 426.6 61.625999 
" clip-path="url(#p264e30fd3d)" style="fill: none; stroke-dasharray: 2.96,1.28; stroke-dashoffset: 0; stroke: #808080; stroke-opacity: 0.7; stroke-width: 0.8"/>
     </g>
     <g id="line2d_42">
      <g>
       <use xlink:href="#m5af514ead7" x="50.87" y="61.625999" style="stroke: #000000; stroke-width: 0.8"/>
      </g>
     </g>
     <g id="text_22">
      <!-- 100 -->
      <g transform="translate(24.7825 65.425217) scale(0.1 -0.1)">
       <defs>
        <path id="DejaVuSerif-31" d="M 909 0 
L 909 331 
L 1722 331 
L 1722 4213 
L 781 3603 
L 781 4013 
L 1919 4750 
L 2350 4750 
L 2350 331 
L 3163 331 
L 3163 0 
L 909 0 
z
" transform="scale(0.015625)"/>
       </defs>
       <use xlink:href="#DejaVuSerif-31"/>
       <use xlink:href="#DejaVuSerif-30" transform="translate(63.623047 0)"/>
       <use xlink:href="#DejaVuSerif-30" transform="translate(127.246094 0)"/>
      </g>
     </g>
    </g>
    <g id="ytick_7">
     <g id="line2d_43">
      <path d="M 50.87 27.742 
L 426.6 27.742 
" clip-path="url(#p264e30fd3d)" style="fill: none; stroke-dasharray: 2.96,1.28; stroke-dashoffset: 0; stroke: #808080; stroke-opacity: 0.7; stroke-width: 0.8"/>
     </g>
     <g id="line2d_44">
      <g>
       <use xlink:href="#m5af514ead7" x="50.87" y="27.742" style="stroke: #000000; stroke-width: 0.8"/>
      </g>
     </g>
     <g id="text_23">
      <!-- 120 -->
      <g transform="translate(24.7825 31.541218) scale(0.1 -0.1)">
       <use xlink:href="#DejaVuSerif-31"/>
       <use xlink:href="#DejaVuSerif-32" transform="translate(63.623047 0)"/>
       <use xlink:href="#DejaVuSerif-30" transform="translate(127.246094 0)"/>
      </g>
     </g>
    </g>
    <g id="text_24">
     <!-- Electricity [GWh] -->
     <g transform="translate(18.560625 165.008153) rotate(-90) scale(0.1 -0.1)">
      <defs>
       <path id="DejaVuSerif-45" d="M 353 0 
L 353 331 
L 947 331 
L 947 4331 
L 353 4331 
L 353 4666 
L 4109 4666 
L 4109 3628 
L 3725 3628 
L 3725 4281 
L 1581 4281 
L 1581 2719 
L 3109 2719 
L 3109 3303 
L 3494 3303 
L 3494 1753 
L 3109 1753 
L 3109 2338 
L 1581 2338 
L 1581 384 
L 3775 384 
L 3775 1038 
L 4159 1038 
L 4159 0 
L 353 0 
z
" transform="scale(0.015625)"/>
       <path id="DejaVuSerif-6c" d="M 1313 331 
L 1856 331 
L 1856 0 
L 184 0 
L 184 331 
L 738 331 
L 738 4531 
L 184 4531 
L 184 4863 
L 1313 4863 
L 1313 331 
z
" transform="scale(0.015625)"/>
       <path id="DejaVuSerif-63" d="M 3291 997 
Q 3169 466 2822 187 
Q 2475 -91 1925 -91 
Q 1200 -91 759 389 
Q 319 869 319 1663 
Q 319 2459 759 2936 
Q 1200 3413 1925 3413 
Q 2241 3413 2553 3339 
Q 2866 3266 3181 3116 
L 3181 2266 
L 2847 2266 
Q 2781 2703 2561 2903 
Q 2341 3103 1931 3103 
Q 1466 3103 1228 2742 
Q 991 2381 991 1663 
Q 991 944 1227 581 
Q 1463 219 1931 219 
Q 2303 219 2525 412 
Q 2747 606 2828 997 
L 3291 997 
z
" transform="scale(0.015625)"/>
       <path id="DejaVuSerif-74" d="M 691 2988 
L 184 2988 
L 184 3322 
L 691 3322 
L 691 4353 
L 1269 4353 
L 1269 3322 
L 2350 3322 
L 2350 2988 
L 1269 2988 
L 1269 878 
Q 1269 456 1350 337 
Q 1431 219 1650 219 
Q 1875 219 1978 351 
Q 2081 484 2088 781 
L 2522 781 
Q 2497 328 2275 118 
Q 2053 -91 1600 -91 
Q 1103 -91 897 129 
Q 691 350 691 878 
L 691 2988 
z
" transform="scale(0.015625)"/>
       <path id="DejaVuSerif-69" d="M 622 4353 
Q 622 4497 726 4603 
Q 831 4709 978 4709 
Q 1122 4709 1226 4603 
Q 1331 4497 1331 4353 
Q 1331 4206 1228 4103 
Q 1125 4000 978 4000 
Q 831 4000 726 4103 
Q 622 4206 622 4353 
z
M 1356 331 
L 1900 331 
L 1900 0 
L 231 0 
L 231 331 
L 781 331 
L 781 2988 
L 231 2988 
L 231 3322 
L 1356 3322 
L 1356 331 
z
" transform="scale(0.015625)"/>
       <path id="DejaVuSerif-79" d="M 1381 -609 
L 1600 -56 
L 359 2988 
L -19 2988 
L -19 3322 
L 1509 3322 
L 1509 2988 
L 978 2988 
L 1913 703 
L 2847 2988 
L 2350 2988 
L 2350 3322 
L 3597 3322 
L 3597 2988 
L 3225 2988 
L 1703 -750 
Q 1547 -1138 1356 -1280 
Q 1166 -1422 819 -1422 
Q 672 -1422 517 -1397 
Q 363 -1372 206 -1325 
L 206 -691 
L 500 -691 
Q 519 -903 608 -995 
Q 697 -1088 884 -1088 
Q 1056 -1088 1161 -992 
Q 1266 -897 1381 -609 
z
" transform="scale(0.015625)"/>
       <path id="DejaVuSerif-20" transform="scale(0.015625)"/>
       <path id="DejaVuSerif-5b" d="M 550 4863 
L 2003 4863 
L 2003 4531 
L 1147 4531 
L 1147 -513 
L 2003 -513 
L 2003 -844 
L 550 -844 
L 550 4863 
z
" transform="scale(0.015625)"/>
       <path id="DejaVuSerif-47" d="M 4097 3272 
Q 3988 3856 3641 4136 
Q 3294 4416 2675 4416 
Q 1869 4416 1472 3897 
Q 1075 3378 1075 2328 
Q 1075 1300 1484 772 
Q 1894 244 2688 244 
Q 3041 244 3362 331 
Q 3684 419 3975 594 
L 3975 1797 
L 3097 1797 
L 3097 2131 
L 4609 2131 
L 4609 391 
Q 4194 150 3714 29 
Q 3234 -91 2688 -91 
Q 1631 -91 995 570 
Q 359 1231 359 2328 
Q 359 3434 996 4092 
Q 1634 4750 2713 4750 
Q 3113 4750 3539 4658 
Q 3966 4566 4447 4378 
L 4447 3272 
L 4097 3272 
z
" transform="scale(0.015625)"/>
       <path id="DejaVuSerif-57" d="M 4878 0 
L 4366 0 
L 3297 3794 
L 2228 0 
L 1716 0 
L 494 4331 
L 31 4331 
L 31 4666 
L 1734 4666 
L 1734 4331 
L 1153 4331 
L 2125 884 
L 3188 4666 
L 3694 4666 
L 4775 844 
L 5753 4331 
L 5216 4331 
L 5216 4666 
L 6559 4666 
L 6559 4331 
L 6100 4331 
L 4878 0 
z
" transform="scale(0.015625)"/>
       <path id="DejaVuSerif-68" d="M 263 0 
L 263 331 
L 781 331 
L 781 4531 
L 231 4531 
L 231 4863 
L 1356 4863 
L 1356 2731 
Q 1516 3069 1770 3241 
Q 2025 3413 2363 3413 
Q 2913 3413 3172 3097 
Q 3431 2781 3431 2113 
L 3431 331 
L 3944 331 
L 3944 0 
L 2356 0 
L 2356 331 
L 2853 331 
L 2853 1931 
Q 2853 2541 2704 2764 
Q 2556 2988 2175 2988 
Q 1775 2988 1565 2697 
Q 1356 2406 1356 1850 
L 1356 331 
L 1856 331 
L 1856 0 
L 263 0 
z
" transform="scale(0.015625)"/>
       <path id="DejaVuSerif-5d" d="M 1947 4863 
L 1947 -844 
L 494 -844 
L 494 -513 
L 1350 -513 
L 1350 4531 
L 494 4531 
L 494 4863 
L 1947 4863 
z
" transform="scale(0.015625)"/>
      </defs>
      <use xlink:href="#DejaVuSerif-45"/>
      <use xlink:href="#DejaVuSerif-6c" transform="translate(72.998047 0)"/>
      <use xlink:href="#DejaVuSerif-65" transform="translate(104.980469 0)"/>
      <use xlink:href="#DejaVuSerif-63" transform="translate(164.160156 0)"/>
      <use xlink:href="#DejaVuSerif-74" transform="translate(220.166016 0)"/>
      <use xlink:href="#DejaVuSerif-72" transform="translate(260.351562 0)"/>
      <use xlink:href="#DejaVuSerif-69" transform="translate(308.154297 0)"/>
      <use xlink:href="#DejaVuSerif-63" transform="translate(340.136719 0)"/>
      <use xlink:href="#DejaVuSerif-69" transform="translate(396.142578 0)"/>
      <use xlink:href="#DejaVuSerif-74" transform="translate(428.125 0)"/>
      <use xlink:href="#DejaVuSerif-79" transform="translate(468.310547 0)"/>
      <use xlink:href="#DejaVuSerif-20" transform="translate(524.804688 0)"/>
      <use xlink:href="#DejaVuSerif-5b" transform="translate(556.591797 0)"/>
      <use xlink:href="#DejaVuSerif-47" transform="translate(595.605469 0)"/>
      <use xlink:href="#DejaVuSerif-57" transform="translate(675.488281 0)"/>
      <use xlink:href="#DejaVuSerif-68" transform="translate(778.271484 0)"/>
      <use xlink:href="#DejaVuSerif-5d" transform="translate(842.675781 0)"/>
     </g>
    </g>
   </g>
   <g id="patch_3">
    <path d="M 54.001083 231.045994 
L 60.26325 231.045994 
L 60.26325 231.045994 
L 54.001083 231.045994 
z
" clip-path="url(#p264e30fd3d)" style="fill: #00549f"/>
   </g>
   <g id="patch_4">
    <path d="M 66.525417 231.045994 
L 72.787583 231.045994 
L 72.787583 231.045994 
L 66.525417 231.045994 
z
" clip-path="url(#p264e30fd3d)" style="fill: #00549f"/>
   </g>
   <g id="patch_5">
    <path d="M 79.04975 231.045994 
L 85.311917 231.045994 
L 85.311917 231.045994 
L 79.04975 231.045994 
z
" clip-path="url(#p264e30fd3d)" style="fill: #00549f"/>
   </g>
   <g id="patch_6">
    <path d="M 91.574083 231.045994 
L 97.83625 231.045994 
L 97.83625 231.045994 
L 91.574083 231.045994 
z
" clip-path="url(#p264e30fd3d)" style="fill: #00549f"/>
   </g>
   <g id="patch_7">
    <path d="M 104.098417 231.045994 
L 110.360583 231.045994 
L 110.360583 231.045994 
L 104.098417 231.045994 
z
" clip-path="url(#p264e30fd3d)" style="fill: #00549f"/>
   </g>
   <g id="patch_8">
    <path d="M 116.62275 231.045994 
L 122.884917 231.045994 
L 122.884917 135.904807 
L 116.62275 135.904807 
z
" clip-path="url(#p264e30fd3d)" style="fill: #00549f"/>
   </g>
   <g id="patch_9">
    <path d="M 129.147083 231.045994 
L 135.40925 231.045994 
L 135.40925 135.430431 
L 129.147083 135.430431 
z
" clip-path="url(#p264e30fd3d)" style="fill: #00549f"/>
   </g>
   <g id="patch_10">
    <path d="M 141.671417 231.045994 
L 147.933583 231.045994 
L 147.933583 136.838311 
L 141.671417 136.838311 
z
" clip-path="url(#p264e30fd3d)" style="fill: #00549f"/>
   </g>
   <g id="patch_11">
    <path d="M 154.19575 231.045994 
L 160.457917 231.045994 
L 160.457917 133.261855 
L 154.19575 133.261855 
z
" clip-path="url(#p264e30fd3d)" style="fill: #00549f"/>
   </g>
   <g id="patch_12">
    <path d="M 166.720083 231.045994 
L 172.98225 231.045994 
L 172.98225 133.16698 
L 166.720083 133.16698 
z
" clip-path="url(#p264e30fd3d)" style="fill: #00549f"/>
   </g>
   <g id="patch_13">
    <path d="M 179.244417 231.045994 
L 185.506583 231.045994 
L 185.506583 136.287696 
L 179.244417 136.287696 
z
" clip-path="url(#p264e30fd3d)" style="fill: #00549f"/>
   </g>
   <g id="patch_14">
    <path d="M 191.76875 231.045994 
L 198.030917 231.045994 
L 198.030917 127.845498 
L 191.76875 127.845498 
z
" clip-path="url(#p264e30fd3d)" style="fill: #00549f"/>
   </g>
   <g id="patch_15">
    <path d="M 204.293083 231.045994 
L 210.55525 231.045994 
L 210.55525 109.160167 
L 204.293083 109.160167 
z
" clip-path="url(#p264e30fd3d)" style="fill: #00549f"/>
   </g>
   <g id="patch_16">
    <path d="M 216.817417 231.045994 
L 223.079583 231.045994 
L 223.079583 88.126674 
L 216.817417 88.126674 
z
" clip-path="url(#p264e30fd3d)" style="fill: #00549f"/>
   </g>
   <g id="patch_17">
    <path d="M 229.34175 231.045994 
L 235.603917 231.045994 
L 235.603917 64.628121 
L 229.34175 64.628121 
z
" clip-path="url(#p264e30fd3d)" style="fill: #00549f"/>
   </g>
   <g id="patch_18">
    <path d="M 241.866083 231.045994 
L 248.12825 231.045994 
L 248.12825 49.344743 
L 241.866083 49.344743 
z
" clip-path="url(#p264e30fd3d)" style="fill: #00549f"/>
   </g>
   <g id="patch_19">
    <path d="M 254.390417 231.045994 
L 260.652583 231.045994 
L 260.652583 40.26722 
L 254.390417 40.26722 
z
" clip-path="url(#p264e30fd3d)" style="fill: #00549f"/>
   </g>
   <g id="patch_20">
    <path d="M 266.91475 231.045994 
L 273.176917 231.045994 
L 273.176917 42.935585 
L 266.91475 42.935585 
z
" clip-path="url(#p264e30fd3d)" style="fill: #00549f"/>
   </g>
   <g id="patch_21">
    <path d="M 279.439083 231.045994 
L 285.70125 231.045994 
L 285.70125 50.778036 
L 279.439083 50.778036 
z
" clip-path="url(#p264e30fd3d)" style="fill: #00549f"/>
   </g>
   <g id="patch_22">
    <path d="M 291.963417 231.045994 
L 298.225583 231.045994 
L 298.225583 54.28503 
L 291.963417 54.28503 
z
" clip-path="url(#p264e30fd3d)" style="fill: #00549f"/>
   </g>
   <g id="patch_23">
    <path d="M 304.48775 231.045994 
L 310.749917 231.045994 
L 310.749917 58.207103 
L 304.48775 58.207103 
z
" clip-path="url(#p264e30fd3d)" style="fill: #00549f"/>
   </g>
   <g id="patch_24">
    <path d="M 317.012083 231.045994 
L 323.27425 231.045994 
L 323.27425 53.088925 
L 317.012083 53.088925 
z
" clip-path="url(#p264e30fd3d)" style="fill: #00549f"/>
   </g>
   <g id="patch_25">
    <path d="M 329.536417 231.045994 
L 335.798583 231.045994 
L 335.798583 41.404028 
L 329.536417 41.404028 
z
" clip-path="url(#p264e30fd3d)" style="fill: #00549f"/>
   </g>
   <g id="patch_26">
    <path d="M 342.06075 231.045994 
L 348.322917 231.045994 
L 348.322917 41.825884 
L 342.06075 41.825884 
z
" clip-path="url(#p264e30fd3d)" style="fill: #00549f"/>
   </g>
   <g id="patch_27">
    <path d="M 354.585083 231.045994 
L 360.84725 231.045994 
L 360.84725 43.660702 
L 354.585083 43.660702 
z
" clip-path="url(#p264e30fd3d)" style="fill: #00549f"/>
   </g>
   <g id="patch_28">
    <path d="M 367.109417 231.045994 
L 373.371583 231.045994 
L 373.371583 39.601399 
L 367.109417 39.601399 
z
" clip-path="url(#p264e30fd3d)" style="fill: #00549f"/>
   </g>
   <g id="patch_29">
    <path d="M 379.63375 231.045994 
L 385.895917 231.045994 
L 385.895917 37.456542 
L 379.63375 37.456542 
z
" clip-path="url(#p264e30fd3d)" style="fill: #00549f"/>
   </g>
   <g id="patch_30">
    <path d="M 392.158083 231.045994 
L 398.42025 231.045994 
L 398.42025 28.001212 
L 392.158083 28.001212 
z
" clip-path="url(#p264e30fd3d)" style="fill: #00549f"/>
   </g>
   <g id="patch_31">
    <path d="M 404.682417 231.045994 
L 410.944583 231.045994 
L 410.944583 41.768281 
L 404.682417 41.768281 
z
" clip-path="url(#p264e30fd3d)" style="fill: #00549f"/>
   </g>
   <g id="patch_32">
    <path d="M 417.20675 231.045994 
L 423.468917 231.045994 
L 423.468917 35.133794 
L 417.20675 35.133794 
z
" clip-path="url(#p264e30fd3d)" style="fill: #00549f"/>
   </g>
   <g id="patch_33">
    <path d="M 54.001083 231.045994 
L 60.26325 231.045994 
L 60.26325 43.088183 
L 54.001083 43.088183 
z
" clip-path="url(#p264e30fd3d)" style="fill: #8ebae5"/>
   </g>
   <g id="patch_34">
    <path d="M 66.525417 231.045994 
L 72.787583 231.045994 
L 72.787583 41.474513 
L 66.525417 41.474513 
z
" clip-path="url(#p264e30fd3d)" style="fill: #8ebae5"/>
   </g>
   <g id="patch_35">
    <path d="M 79.04975 231.045994 
L 85.311917 231.045994 
L 85.311917 43.471855 
L 79.04975 43.471855 
z
" clip-path="url(#p264e30fd3d)" style="fill: #8ebae5"/>
   </g>
   <g id="patch_36">
    <path d="M 91.574083 231.045994 
L 97.83625 231.045994 
L 97.83625 45.696359 
L 91.574083 45.696359 
z
" clip-path="url(#p264e30fd3d)" style="fill: #8ebae5"/>
   </g>
   <g id="patch_37">
    <path d="M 104.098417 231.045994 
L 110.360583 231.045994 
L 110.360583 41.23083 
L 104.098417 41.23083 
z
" clip-path="url(#p264e30fd3d)" style="fill: #8ebae5"/>
   </g>
   <g id="patch_38">
    <path d="M 116.62275 135.904807 
L 122.884917 135.904807 
L 122.884917 41.230871 
L 116.62275 41.230871 
z
" clip-path="url(#p264e30fd3d)" style="fill: #8ebae5"/>
   </g>
   <g id="patch_39">
    <path d="M 129.147083 135.430431 
L 135.40925 135.430431 
L 135.40925 45.839137 
L 129.147083 45.839137 
z
" clip-path="url(#p264e30fd3d)" style="fill: #8ebae5"/>
   </g>
   <g id="patch_40">
    <path d="M 141.671417 136.838311 
L 147.933583 136.838311 
L 147.933583 43.776166 
L 141.671417 43.776166 
z
" clip-path="url(#p264e30fd3d)" style="fill: #8ebae5"/>
   </g>
   <g id="patch_41">
    <path d="M 154.19575 133.261855 
L 160.457917 133.261855 
L 160.457917 40.632808 
L 154.19575 40.632808 
z
" clip-path="url(#p264e30fd3d)" style="fill: #8ebae5"/>
   </g>
   <g id="patch_42">
    <path d="M 166.720083 133.16698 
L 172.98225 133.16698 
L 172.98225 43.204691 
L 166.720083 43.204691 
z
" clip-path="url(#p264e30fd3d)" style="fill: #8ebae5"/>
   </g>
   <g id="patch_43">
    <path d="M 179.244417 136.287696 
L 185.506583 136.287696 
L 185.506583 40.6482 
L 179.244417 40.6482 
z
" clip-path="url(#p264e30fd3d)" style="fill: #8ebae5"/>
   </g>
   <g id="patch_44">
    <path d="M 191.76875 127.845498 
L 198.030917 127.845498 
L 198.030917 40.642325 
L 191.76875 40.642325 
z
" clip-path="url(#p264e30fd3d)" style="fill: #8ebae5"/>
   </g>
   <g id="patch_45">
    <path d="M 204.293083 109.160167 
L 210.55525 109.160167 
L 210.55525 42.440782 
L 204.293083 42.440782 
z
" clip-path="url(#p264e30fd3d)" style="fill: #8ebae5"/>
   </g>
   <g id="patch_46">
    <path d="M 216.817417 88.126674 
L 223.079583 88.126674 
L 223.079583 36.963665 
L 216.817417 36.963665 
z
" clip-path="url(#p264e30fd3d)" style="fill: #8ebae5"/>
   </g>
   <g id="patch_47">
    <path d="M 229.34175 64.628121 
L 235.603917 64.628121 
L 235.603917 37.44235 
L 229.34175 37.44235 
z
" clip-path="url(#p264e30fd3d)" style="fill: #8ebae5"/>
   </g>
   <g id="patch_48">
    <path d="M 241.866083 49.344743 
L 248.12825 49.344743 
L 248.12825 40.396942 
L 241.866083 40.396942 
z
" clip-path="url(#p264e30fd3d)" style="fill: #8ebae5"/>
   </g>
   <g id="patch_49">
    <path d="M 254.390417 231.045994 
L 260.652583 231.045994 
L 260.652583 231.045994 
L 254.390417 231.045994 
z
" clip-path="url(#p264e30fd3d)" style="fill: #8ebae5"/>
   </g>
   <g id="patch_50">
    <path d="M 266.91475 231.045994 
L 273.176917 231.045994 
L 273.176917 231.045994 
L 266.91475 231.045994 
z
" clip-path="url(#p264e30fd3d)" style="fill: #8ebae5"/>
   </g>
   <g id="patch_51">
    <path d="M 279.439083 231.045994 
L 285.70125 231.045994 
L 285.70125 231.045994 
L 279.439083 231.045994 
z
" clip-path="url(#p264e30fd3d)" style="fill: #8ebae5"/>
   </g>
   <g id="patch_52">
    <path d="M 291.963417 231.045994 
L 298.225583 231.045994 
L 298.225583 231.045994 
L 291.963417 231.045994 
z
" clip-path="url(#p264e30fd3d)" style="fill: #8ebae5"/>
   </g>
   <g id="patch_53">
    <path d="M 304.48775 231.045994 
L 310.749917 231.045994 
L 310.749917 231.045994 
L 304.48775 231.045994 
z
" clip-path="url(#p264e30fd3d)" style="fill: #8ebae5"/>
   </g>
   <g id="patch_54">
    <path d="M 317.012083 231.045994 
L 323.27425 231.045994 
L 323.27425 231.045994 
L 317.012083 231.045994 
z
" clip-path="url(#p264e30fd3d)" style="fill: #8ebae5"/>
   </g>
   <g id="patch_55">
    <path d="M 329.536417 231.045994 
L 335.798583 231.045994 
L 335.798583 231.045994 
L 329.536417 231.045994 
z
" clip-path="url(#p264e30fd3d)" style="fill: #8ebae5"/>
   </g>
   <g id="patch_56">
    <path d="M 342.06075 231.045994 
L 348.322917 231.045994 
L 348.322917 231.045994 
L 342.06075 231.045994 
z
" clip-path="url(#p264e30fd3d)" style="fill: #8ebae5"/>
   </g>
   <g id="patch_57">
    <path d="M 354.585083 231.045994 
L 360.84725 231.045994 
L 360.84725 231.045994 
L 354.585083 231.045994 
z
" clip-path="url(#p264e30fd3d)" style="fill: #8ebae5"/>
   </g>
   <g id="patch_58">
    <path d="M 367.109417 231.045994 
L 373.371583 231.045994 
L 373.371583 231.045994 
L 367.109417 231.045994 
z
" clip-path="url(#p264e30fd3d)" style="fill: #8ebae5"/>
   </g>
   <g id="patch_59">
    <path d="M 379.63375 231.045994 
L 385.895917 231.045994 
L 385.895917 231.045994 
L 379.63375 231.045994 
z
" clip-path="url(#p264e30fd3d)" style="fill: #8ebae5"/>
   </g>
   <g id="patch_60">
    <path d="M 392.158083 231.045994 
L 398.42025 231.045994 
L 398.42025 231.045994 
L 392.158083 231.045994 
z
" clip-path="url(#p264e30fd3d)" style="fill: #8ebae5"/>
   </g>
   <g id="patch_61">
    <path d="M 404.682417 231.045994 
L 410.944583 231.045994 
L 410.944583 231.045994 
L 404.682417 231.045994 
z
" clip-path="url(#p264e30fd3d)" style="fill: #8ebae5"/>
   </g>
   <g id="patch_62">
    <path d="M 417.20675 231.045994 
L 423.468917 231.045994 
L 423.468917 231.045994 
L 417.20675 231.045994 
z
" clip-path="url(#p264e30fd3d)" style="fill: #8ebae5"/>
   </g>
   <g id="line2d_45">
    <path d="M 57.132167 231.045994 
L 69.6565 231.045994 
L 82.180833 231.045994 
L 94.705167 231.045994 
L 107.2295 231.045994 
L 119.753833 135.904807 
L 132.278167 135.430431 
L 144.8025 136.838311 
L 157.326833 133.261855 
L 169.851167 133.16698 
L 182.3755 136.287696 
L 194.899833 127.845498 
L 207.424167 109.160167 
L 219.9485 88.126674 
L 232.472833 64.628121 
L 244.997167 49.344743 
L 257.5215 40.26722 
L 270.045833 42.935585 
L 282.570167 50.778036 
L 295.0945 54.28503 
L 307.618833 58.207103 
L 320.143167 53.088925 
L 332.6675 41.404028 
L 345.191833 41.825884 
L 357.716167 43.660702 
L 370.2405 39.601399 
L 382.764833 37.456542 
L 395.289167 28.001212 
L 407.8135 41.768281 
L 420.337833 35.133794 
" clip-path="url(#p264e30fd3d)" style="fill: none; stroke: #000000; stroke-width: 2; stroke-linecap: square"/>
   </g>
   <g id="patch_63">
    <path d="M 50.87 231.045994 
L 50.87 10.8 
" style="fill: none; stroke: #000000; stroke-width: 0.8; stroke-linejoin: miter; stroke-linecap: square"/>
   </g>
   <g id="patch_64">
    <path d="M 426.6 231.045994 
L 426.6 10.8 
" style="fill: none; stroke: #000000; stroke-width: 0.8; stroke-linejoin: miter; stroke-linecap: square"/>
   </g>
   <g id="patch_65">
    <path d="M 50.87 231.045994 
L 426.6 231.045994 
" style="fill: none; stroke: #000000; stroke-width: 0.8; stroke-linejoin: miter; stroke-linecap: square"/>
   </g>
   <g id="patch_66">
    <path d="M 50.87 10.8 
L 426.6 10.8 
" style="fill: none; stroke: #000000; stroke-width: 0.8; stroke-linejoin: miter; stroke-linecap: square"/>
   </g>
   <g id="legend_1">
    <g id="patch_67">
     <path d="M 278.1885 220.033694 
L 405.8135 220.033694 
Q 407.8135 220.033694 407.8135 218.033694 
L 407.8135 174.857131 
Q 407.8135 172.857131 405.8135 172.857131 
L 278.1885 172.857131 
Q 276.1885 172.857131 276.1885 174.857131 
L 276.1885 218.033694 
Q 276.1885 220.033694 278.1885 220.033694 
z
" style="fill: #ffffff; opacity: 0.8; stroke: #cccccc; stroke-linejoin: miter"/>
    </g>
    <g id="line2d_46">
     <path d="M 280.1885 180.955569 
L 290.1885 180.955569 
L 300.1885 180.955569 
" style="fill: none; stroke: #000000; stroke-width: 2; stroke-linecap: square"/>
    </g>
    <g id="text_25">
     <!-- demand -->
     <g transform="translate(308.1885 184.455569) scale(0.1 -0.1)">
      <defs>
       <path id="DejaVuSerif-64" d="M 3359 331 
L 3909 331 
L 3909 0 
L 2784 0 
L 2784 519 
Q 2616 206 2355 57 
Q 2094 -91 1709 -91 
Q 1097 -91 708 395 
Q 319 881 319 1663 
Q 319 2444 706 2928 
Q 1094 3413 1709 3413 
Q 2094 3413 2355 3264 
Q 2616 3116 2784 2803 
L 2784 4531 
L 2241 4531 
L 2241 4863 
L 3359 4863 
L 3359 331 
z
M 2784 1497 
L 2784 1825 
Q 2784 2422 2554 2737 
Q 2325 3053 1888 3053 
Q 1444 3053 1217 2703 
Q 991 2353 991 1663 
Q 991 975 1217 622 
Q 1444 269 1888 269 
Q 2325 269 2554 583 
Q 2784 897 2784 1497 
z
" transform="scale(0.015625)"/>
       <path id="DejaVuSerif-6d" d="M 3316 2675 
Q 3481 3041 3739 3227 
Q 3997 3413 4341 3413 
Q 4863 3413 5119 3089 
Q 5375 2766 5375 2113 
L 5375 331 
L 5894 331 
L 5894 0 
L 4300 0 
L 4300 331 
L 4800 331 
L 4800 2047 
Q 4800 2556 4650 2772 
Q 4500 2988 4153 2988 
Q 3769 2988 3567 2697 
Q 3366 2406 3366 1850 
L 3366 331 
L 3866 331 
L 3866 0 
L 2291 0 
L 2291 331 
L 2791 331 
L 2791 2069 
Q 2791 2566 2641 2777 
Q 2491 2988 2144 2988 
Q 1759 2988 1557 2697 
Q 1356 2406 1356 1850 
L 1356 331 
L 1856 331 
L 1856 0 
L 263 0 
L 263 331 
L 781 331 
L 781 2994 
L 231 2994 
L 231 3322 
L 1356 3322 
L 1356 2731 
Q 1516 3063 1762 3238 
Q 2009 3413 2322 3413 
Q 2709 3413 2968 3220 
Q 3228 3028 3316 2675 
z
" transform="scale(0.015625)"/>
       <path id="DejaVuSerif-6e" d="M 263 0 
L 263 331 
L 781 331 
L 781 2988 
L 231 2988 
L 231 3322 
L 1356 3322 
L 1356 2731 
Q 1516 3069 1770 3241 
Q 2025 3413 2363 3413 
Q 2913 3413 3172 3097 
Q 3431 2781 3431 2113 
L 3431 331 
L 3944 331 
L 3944 0 
L 2356 0 
L 2356 331 
L 2853 331 
L 2853 1931 
Q 2853 2541 2703 2767 
Q 2553 2994 2175 2994 
Q 1775 2994 1565 2701 
Q 1356 2409 1356 1850 
L 1356 331 
L 1856 331 
L 1856 0 
L 263 0 
z
" transform="scale(0.015625)"/>
      </defs>
      <use xlink:href="#DejaVuSerif-64"/>
      <use xlink:href="#DejaVuSerif-65" transform="translate(64.013672 0)"/>
      <use xlink:href="#DejaVuSerif-6d" transform="translate(123.193359 0)"/>
      <use xlink:href="#DejaVuSerif-61" transform="translate(218.017578 0)"/>
      <use xlink:href="#DejaVuSerif-6e" transform="translate(277.636719 0)"/>
      <use xlink:href="#DejaVuSerif-64" transform="translate(342.041016 0)"/>
     </g>
    </g>
    <g id="patch_68">
     <path d="M 280.1885 199.133694 
L 300.1885 199.133694 
L 300.1885 192.133694 
L 280.1885 192.133694 
z
" style="fill: #00549f"/>
    </g>
    <g id="text_26">
     <!-- unfulfilled demand -->
     <g transform="translate(308.1885 199.133694) scale(0.1 -0.1)">
      <defs>
       <path id="DejaVuSerif-75" d="M 2266 3322 
L 3341 3322 
L 3341 331 
L 3884 331 
L 3884 0 
L 2766 0 
L 2766 588 
Q 2606 256 2353 82 
Q 2100 -91 1766 -91 
Q 1213 -91 952 223 
Q 691 538 691 1209 
L 691 2988 
L 172 2988 
L 172 3322 
L 1269 3322 
L 1269 1388 
Q 1269 781 1417 556 
Q 1566 331 1947 331 
Q 2347 331 2556 625 
Q 2766 919 2766 1478 
L 2766 2988 
L 2266 2988 
L 2266 3322 
z
" transform="scale(0.015625)"/>
       <path id="DejaVuSerif-66" d="M 2753 4078 
L 2450 4078 
Q 2447 4313 2317 4434 
Q 2188 4556 1941 4556 
Q 1619 4556 1487 4379 
Q 1356 4203 1356 3750 
L 1356 3322 
L 2284 3322 
L 2284 2988 
L 1356 2988 
L 1356 331 
L 2094 331 
L 2094 0 
L 231 0 
L 231 331 
L 781 331 
L 781 2988 
L 231 2988 
L 231 3322 
L 781 3322 
L 781 3738 
Q 781 4294 1070 4578 
Q 1359 4863 1919 4863 
Q 2128 4863 2337 4825 
Q 2547 4788 2753 4709 
L 2753 4078 
z
" transform="scale(0.015625)"/>
      </defs>
      <use xlink:href="#DejaVuSerif-75"/>
      <use xlink:href="#DejaVuSerif-6e" transform="translate(64.404297 0)"/>
      <use xlink:href="#DejaVuSerif-66" transform="translate(128.808594 0)"/>
      <use xlink:href="#DejaVuSerif-75" transform="translate(165.820312 0)"/>
      <use xlink:href="#DejaVuSerif-6c" transform="translate(230.224609 0)"/>
      <use xlink:href="#DejaVuSerif-66" transform="translate(262.207031 0)"/>
      <use xlink:href="#DejaVuSerif-69" transform="translate(299.21875 0)"/>
      <use xlink:href="#DejaVuSerif-6c" transform="translate(331.201172 0)"/>
      <use xlink:href="#DejaVuSerif-6c" transform="translate(363.183594 0)"/>
      <use xlink:href="#DejaVuSerif-65" transform="translate(395.166016 0)"/>
      <use xlink:href="#DejaVuSerif-64" transform="translate(454.345703 0)"/>
      <use xlink:href="#DejaVuSerif-20" transform="translate(518.359375 0)"/>
      <use xlink:href="#DejaVuSerif-64" transform="translate(550.146484 0)"/>
      <use xlink:href="#DejaVuSerif-65" transform="translate(614.160156 0)"/>
      <use xlink:href="#DejaVuSerif-6d" transform="translate(673.339844 0)"/>
      <use xlink:href="#DejaVuSerif-61" transform="translate(768.164062 0)"/>
      <use xlink:href="#DejaVuSerif-6e" transform="translate(827.783203 0)"/>
      <use xlink:href="#DejaVuSerif-64" transform="translate(892.1875 0)"/>
     </g>
    </g>
    <g id="patch_69">
     <path d="M 280.1885 213.811819 
L 300.1885 213.811819 
L 300.1885 206.811819 
L 280.1885 206.811819 
z
" style="fill: #8ebae5"/>
    </g>
    <g id="text_27">
     <!-- assured supply -->
     <g transform="translate(308.1885 213.811819) scale(0.1 -0.1)">
      <defs>
       <path id="DejaVuSerif-73" d="M 359 184 
L 359 959 
L 691 959 
Q 703 588 923 403 
Q 1144 219 1575 219 
Q 1963 219 2166 364 
Q 2369 509 2369 788 
Q 2369 1006 2220 1140 
Q 2072 1275 1594 1428 
L 1178 1569 
Q 750 1706 558 1912 
Q 366 2119 366 2438 
Q 366 2894 700 3153 
Q 1034 3413 1625 3413 
Q 1888 3413 2178 3344 
Q 2469 3275 2778 3144 
L 2778 2419 
L 2447 2419 
Q 2434 2741 2221 2922 
Q 2009 3103 1644 3103 
Q 1281 3103 1095 2975 
Q 909 2847 909 2591 
Q 909 2381 1050 2254 
Q 1191 2128 1613 1997 
L 2069 1856 
Q 2541 1709 2748 1489 
Q 2956 1269 2956 922 
Q 2956 450 2595 179 
Q 2234 -91 1600 -91 
Q 1278 -91 972 -22 
Q 666 47 359 184 
z
" transform="scale(0.015625)"/>
       <path id="DejaVuSerif-70" d="M 1313 1825 
L 1313 1497 
Q 1313 897 1542 583 
Q 1772 269 2209 269 
Q 2650 269 2876 622 
Q 3103 975 3103 1663 
Q 3103 2353 2876 2703 
Q 2650 3053 2209 3053 
Q 1772 3053 1542 2737 
Q 1313 2422 1313 1825 
z
M 738 2988 
L 184 2988 
L 184 3322 
L 1313 3322 
L 1313 2803 
Q 1481 3116 1742 3264 
Q 2003 3413 2388 3413 
Q 3000 3413 3387 2928 
Q 3775 2444 3775 1663 
Q 3775 881 3387 395 
Q 3000 -91 2388 -91 
Q 2003 -91 1742 57 
Q 1481 206 1313 519 
L 1313 -997 
L 1856 -997 
L 1856 -1331 
L 184 -1331 
L 184 -997 
L 738 -997 
L 738 2988 
z
" transform="scale(0.015625)"/>
      </defs>
      <use xlink:href="#DejaVuSerif-61"/>
      <use xlink:href="#DejaVuSerif-73" transform="translate(59.619141 0)"/>
      <use xlink:href="#DejaVuSerif-73" transform="translate(110.9375 0)"/>
      <use xlink:href="#DejaVuSerif-75" transform="translate(162.255859 0)"/>
      <use xlink:href="#DejaVuSerif-72" transform="translate(226.660156 0)"/>
      <use xlink:href="#DejaVuSerif-65" transform="translate(274.462891 0)"/>
      <use xlink:href="#DejaVuSerif-64" transform="translate(333.642578 0)"/>
      <use xlink:href="#DejaVuSerif-20" transform="translate(397.65625 0)"/>
      <use xlink:href="#DejaVuSerif-73" transform="translate(429.443359 0)"/>
      <use xlink:href="#DejaVuSerif-75" transform="translate(480.761719 0)"/>
      <use xlink:href="#DejaVuSerif-70" transform="translate(545.166016 0)"/>
      <use xlink:href="#DejaVuSerif-70" transform="translate(609.179688 0)"/>
      <use xlink:href="#DejaVuSerif-6c" transform="translate(673.193359 0)"/>
      <use xlink:href="#DejaVuSerif-79" transform="translate(705.175781 0)"/>
     </g>
    </g>
   </g>
  </g>
  <g id="axes_2">
   <g id="patch_70">
    <path d="M 477.47 231.045994 
L 853.2 231.045994 
L 853.2 10.8 
L 477.47 10.8 
z
" style="fill: #ffffff"/>
   </g>
   <g id="matplotlib.axis_3">
    <g id="xtick_31">
     <g id="line2d_47">
      <g>
       <use xlink:href="#mc2d35aca14" x="483.732167" y="231.045994" style="stroke: #000000; stroke-width: 0.8"/>
      </g>
     </g>
     <g id="text_28">
      <!-- 2020 -->
      <g transform="translate(476.685406 261.414768) rotate(-45) scale(0.1 -0.1)">
       <use xlink:href="#DejaVuSerif-32"/>
       <use xlink:href="#DejaVuSerif-30" transform="translate(63.623047 0)"/>
       <use xlink:href="#DejaVuSerif-32" transform="translate(127.246094 0)"/>
       <use xlink:href="#DejaVuSerif-30" transform="translate(190.869141 0)"/>
      </g>
     </g>
    </g>
    <g id="xtick_32">
     <g id="line2d_48">
      <g>
       <use xlink:href="#mc2d35aca14" x="508.780833" y="231.045994" style="stroke: #000000; stroke-width: 0.8"/>
      </g>
     </g>
     <g id="text_29">
      <!-- 2022 -->
      <g transform="translate(501.734072 261.414768) rotate(-45) scale(0.1 -0.1)">
       <use xlink:href="#DejaVuSerif-32"/>
       <use xlink:href="#DejaVuSerif-30" transform="translate(63.623047 0)"/>
       <use xlink:href="#DejaVuSerif-32" transform="translate(127.246094 0)"/>
       <use xlink:href="#DejaVuSerif-32" transform="translate(190.869141 0)"/>
      </g>
     </g>
    </g>
    <g id="xtick_33">
     <g id="line2d_49">
      <g>
       <use xlink:href="#mc2d35aca14" x="533.8295" y="231.045994" style="stroke: #000000; stroke-width: 0.8"/>
      </g>
     </g>
     <g id="text_30">
      <!-- 2024 -->
      <g transform="translate(526.782739 261.414768) rotate(-45) scale(0.1 -0.1)">
       <use xlink:href="#DejaVuSerif-32"/>
       <use xlink:href="#DejaVuSerif-30" transform="translate(63.623047 0)"/>
       <use xlink:href="#DejaVuSerif-32" transform="translate(127.246094 0)"/>
       <use xlink:href="#DejaVuSerif-34" transform="translate(190.869141 0)"/>
      </g>
     </g>
    </g>
    <g id="xtick_34">
     <g id="line2d_50">
      <g>
       <use xlink:href="#mc2d35aca14" x="558.878167" y="231.045994" style="stroke: #000000; stroke-width: 0.8"/>
      </g>
     </g>
     <g id="text_31">
      <!-- 2026 -->
      <g transform="translate(551.831406 261.414768) rotate(-45) scale(0.1 -0.1)">
       <use xlink:href="#DejaVuSerif-32"/>
       <use xlink:href="#DejaVuSerif-30" transform="translate(63.623047 0)"/>
       <use xlink:href="#DejaVuSerif-32" transform="translate(127.246094 0)"/>
       <use xlink:href="#DejaVuSerif-36" transform="translate(190.869141 0)"/>
      </g>
     </g>
    </g>
    <g id="xtick_35">
     <g id="line2d_51">
      <g>
       <use xlink:href="#mc2d35aca14" x="583.926833" y="231.045994" style="stroke: #000000; stroke-width: 0.8"/>
      </g>
     </g>
     <g id="text_32">
      <!-- 2028 -->
      <g transform="translate(576.880072 261.414768) rotate(-45) scale(0.1 -0.1)">
       <use xlink:href="#DejaVuSerif-32"/>
       <use xlink:href="#DejaVuSerif-30" transform="translate(63.623047 0)"/>
       <use xlink:href="#DejaVuSerif-32" transform="translate(127.246094 0)"/>
       <use xlink:href="#DejaVuSerif-38" transform="translate(190.869141 0)"/>
      </g>
     </g>
    </g>
    <g id="xtick_36">
     <g id="line2d_52">
      <g>
       <use xlink:href="#mc2d35aca14" x="608.9755" y="231.045994" style="stroke: #000000; stroke-width: 0.8"/>
      </g>
     </g>
     <g id="text_33">
      <!-- 2030 -->
      <g transform="translate(601.928739 261.414768) rotate(-45) scale(0.1 -0.1)">
       <use xlink:href="#DejaVuSerif-32"/>
       <use xlink:href="#DejaVuSerif-30" transform="translate(63.623047 0)"/>
       <use xlink:href="#DejaVuSerif-33" transform="translate(127.246094 0)"/>
       <use xlink:href="#DejaVuSerif-30" transform="translate(190.869141 0)"/>
      </g>
     </g>
    </g>
    <g id="xtick_37">
     <g id="line2d_53">
      <g>
       <use xlink:href="#mc2d35aca14" x="634.024167" y="231.045994" style="stroke: #000000; stroke-width: 0.8"/>
      </g>
     </g>
     <g id="text_34">
      <!-- 2032 -->
      <g transform="translate(626.977406 261.414768) rotate(-45) scale(0.1 -0.1)">
       <use xlink:href="#DejaVuSerif-32"/>
       <use xlink:href="#DejaVuSerif-30" transform="translate(63.623047 0)"/>
       <use xlink:href="#DejaVuSerif-33" transform="translate(127.246094 0)"/>
       <use xlink:href="#DejaVuSerif-32" transform="translate(190.869141 0)"/>
      </g>
     </g>
    </g>
    <g id="xtick_38">
     <g id="line2d_54">
      <g>
       <use xlink:href="#mc2d35aca14" x="659.072833" y="231.045994" style="stroke: #000000; stroke-width: 0.8"/>
      </g>
     </g>
     <g id="text_35">
      <!-- 2034 -->
      <g transform="translate(652.026072 261.414768) rotate(-45) scale(0.1 -0.1)">
       <use xlink:href="#DejaVuSerif-32"/>
       <use xlink:href="#DejaVuSerif-30" transform="translate(63.623047 0)"/>
       <use xlink:href="#DejaVuSerif-33" transform="translate(127.246094 0)"/>
       <use xlink:href="#DejaVuSerif-34" transform="translate(190.869141 0)"/>
      </g>
     </g>
    </g>
    <g id="xtick_39">
     <g id="line2d_55">
      <g>
       <use xlink:href="#mc2d35aca14" x="684.1215" y="231.045994" style="stroke: #000000; stroke-width: 0.8"/>
      </g>
     </g>
     <g id="text_36">
      <!-- 2036 -->
      <g transform="translate(677.074739 261.414768) rotate(-45) scale(0.1 -0.1)">
       <use xlink:href="#DejaVuSerif-32"/>
       <use xlink:href="#DejaVuSerif-30" transform="translate(63.623047 0)"/>
       <use xlink:href="#DejaVuSerif-33" transform="translate(127.246094 0)"/>
       <use xlink:href="#DejaVuSerif-36" transform="translate(190.869141 0)"/>
      </g>
     </g>
    </g>
    <g id="xtick_40">
     <g id="line2d_56">
      <g>
       <use xlink:href="#mc2d35aca14" x="709.170167" y="231.045994" style="stroke: #000000; stroke-width: 0.8"/>
      </g>
     </g>
     <g id="text_37">
      <!-- 2038 -->
      <g transform="translate(702.123406 261.414768) rotate(-45) scale(0.1 -0.1)">
       <use xlink:href="#DejaVuSerif-32"/>
       <use xlink:href="#DejaVuSerif-30" transform="translate(63.623047 0)"/>
       <use xlink:href="#DejaVuSerif-33" transform="translate(127.246094 0)"/>
       <use xlink:href="#DejaVuSerif-38" transform="translate(190.869141 0)"/>
      </g>
     </g>
    </g>
    <g id="xtick_41">
     <g id="line2d_57">
      <g>
       <use xlink:href="#mc2d35aca14" x="734.218833" y="231.045994" style="stroke: #000000; stroke-width: 0.8"/>
      </g>
     </g>
     <g id="text_38">
      <!-- 2040 -->
      <g transform="translate(727.172072 261.414768) rotate(-45) scale(0.1 -0.1)">
       <use xlink:href="#DejaVuSerif-32"/>
       <use xlink:href="#DejaVuSerif-30" transform="translate(63.623047 0)"/>
       <use xlink:href="#DejaVuSerif-34" transform="translate(127.246094 0)"/>
       <use xlink:href="#DejaVuSerif-30" transform="translate(190.869141 0)"/>
      </g>
     </g>
    </g>
    <g id="xtick_42">
     <g id="line2d_58">
      <g>
       <use xlink:href="#mc2d35aca14" x="759.2675" y="231.045994" style="stroke: #000000; stroke-width: 0.8"/>
      </g>
     </g>
     <g id="text_39">
      <!-- 2042 -->
      <g transform="translate(752.220739 261.414768) rotate(-45) scale(0.1 -0.1)">
       <use xlink:href="#DejaVuSerif-32"/>
       <use xlink:href="#DejaVuSerif-30" transform="translate(63.623047 0)"/>
       <use xlink:href="#DejaVuSerif-34" transform="translate(127.246094 0)"/>
       <use xlink:href="#DejaVuSerif-32" transform="translate(190.869141 0)"/>
      </g>
     </g>
    </g>
    <g id="xtick_43">
     <g id="line2d_59">
      <g>
       <use xlink:href="#mc2d35aca14" x="784.316167" y="231.045994" style="stroke: #000000; stroke-width: 0.8"/>
      </g>
     </g>
     <g id="text_40">
      <!-- 2044 -->
      <g transform="translate(777.269406 261.414768) rotate(-45) scale(0.1 -0.1)">
       <use xlink:href="#DejaVuSerif-32"/>
       <use xlink:href="#DejaVuSerif-30" transform="translate(63.623047 0)"/>
       <use xlink:href="#DejaVuSerif-34" transform="translate(127.246094 0)"/>
       <use xlink:href="#DejaVuSerif-34" transform="translate(190.869141 0)"/>
      </g>
     </g>
    </g>
    <g id="xtick_44">
     <g id="line2d_60">
      <g>
       <use xlink:href="#mc2d35aca14" x="809.364833" y="231.045994" style="stroke: #000000; stroke-width: 0.8"/>
      </g>
     </g>
     <g id="text_41">
      <!-- 2046 -->
      <g transform="translate(802.318072 261.414768) rotate(-45) scale(0.1 -0.1)">
       <use xlink:href="#DejaVuSerif-32"/>
       <use xlink:href="#DejaVuSerif-30" transform="translate(63.623047 0)"/>
       <use xlink:href="#DejaVuSerif-34" transform="translate(127.246094 0)"/>
       <use xlink:href="#DejaVuSerif-36" transform="translate(190.869141 0)"/>
      </g>
     </g>
    </g>
    <g id="xtick_45">
     <g id="line2d_61">
      <g>
       <use xlink:href="#mc2d35aca14" x="834.4135" y="231.045994" style="stroke: #000000; stroke-width: 0.8"/>
      </g>
     </g>
     <g id="text_42">
      <!-- 2048 -->
      <g transform="translate(827.366739 261.414768) rotate(-45) scale(0.1 -0.1)">
       <use xlink:href="#DejaVuSerif-32"/>
       <use xlink:href="#DejaVuSerif-30" transform="translate(63.623047 0)"/>
       <use xlink:href="#DejaVuSerif-34" transform="translate(127.246094 0)"/>
       <use xlink:href="#DejaVuSerif-38" transform="translate(190.869141 0)"/>
      </g>
     </g>
    </g>
    <g id="xtick_46">
     <g id="line2d_62">
      <g>
       <use xlink:href="#m24b042648a" x="496.2565" y="231.045994" style="stroke: #000000; stroke-width: 0.6"/>
      </g>
     </g>
    </g>
    <g id="xtick_47">
     <g id="line2d_63">
      <g>
       <use xlink:href="#m24b042648a" x="521.305167" y="231.045994" style="stroke: #000000; stroke-width: 0.6"/>
      </g>
     </g>
    </g>
    <g id="xtick_48">
     <g id="line2d_64">
      <g>
       <use xlink:href="#m24b042648a" x="546.353833" y="231.045994" style="stroke: #000000; stroke-width: 0.6"/>
      </g>
     </g>
    </g>
    <g id="xtick_49">
     <g id="line2d_65">
      <g>
       <use xlink:href="#m24b042648a" x="571.4025" y="231.045994" style="stroke: #000000; stroke-width: 0.6"/>
      </g>
     </g>
    </g>
    <g id="xtick_50">
     <g id="line2d_66">
      <g>
       <use xlink:href="#m24b042648a" x="596.451167" y="231.045994" style="stroke: #000000; stroke-width: 0.6"/>
      </g>
     </g>
    </g>
    <g id="xtick_51">
     <g id="line2d_67">
      <g>
       <use xlink:href="#m24b042648a" x="621.499833" y="231.045994" style="stroke: #000000; stroke-width: 0.6"/>
      </g>
     </g>
    </g>
    <g id="xtick_52">
     <g id="line2d_68">
      <g>
       <use xlink:href="#m24b042648a" x="646.5485" y="231.045994" style="stroke: #000000; stroke-width: 0.6"/>
      </g>
     </g>
    </g>
    <g id="xtick_53">
     <g id="line2d_69">
      <g>
       <use xlink:href="#m24b042648a" x="671.597167" y="231.045994" style="stroke: #000000; stroke-width: 0.6"/>
      </g>
     </g>
    </g>
    <g id="xtick_54">
     <g id="line2d_70">
      <g>
       <use xlink:href="#m24b042648a" x="696.645833" y="231.045994" style="stroke: #000000; stroke-width: 0.6"/>
      </g>
     </g>
    </g>
    <g id="xtick_55">
     <g id="line2d_71">
      <g>
       <use xlink:href="#m24b042648a" x="721.6945" y="231.045994" style="stroke: #000000; stroke-width: 0.6"/>
      </g>
     </g>
    </g>
    <g id="xtick_56">
     <g id="line2d_72">
      <g>
       <use xlink:href="#m24b042648a" x="746.743167" y="231.045994" style="stroke: #000000; stroke-width: 0.6"/>
      </g>
     </g>
    </g>
    <g id="xtick_57">
     <g id="line2d_73">
      <g>
       <use xlink:href="#m24b042648a" x="771.791833" y="231.045994" style="stroke: #000000; stroke-width: 0.6"/>
      </g>
     </g>
    </g>
    <g id="xtick_58">
     <g id="line2d_74">
      <g>
       <use xlink:href="#m24b042648a" x="796.8405" y="231.045994" style="stroke: #000000; stroke-width: 0.6"/>
      </g>
     </g>
    </g>
    <g id="xtick_59">
     <g id="line2d_75">
      <g>
       <use xlink:href="#m24b042648a" x="821.889167" y="231.045994" style="stroke: #000000; stroke-width: 0.6"/>
      </g>
     </g>
    </g>
    <g id="xtick_60">
     <g id="line2d_76">
      <g>
       <use xlink:href="#m24b042648a" x="846.937833" y="231.045994" style="stroke: #000000; stroke-width: 0.6"/>
      </g>
     </g>
    </g>
    <g id="text_43">
     <!-- Year -->
     <g transform="translate(654.14125 274.483766) scale(0.1 -0.1)">
      <use xlink:href="#DejaVuSerif-59"/>
      <use xlink:href="#DejaVuSerif-65" transform="translate(57.265625 0)"/>
      <use xlink:href="#DejaVuSerif-61" transform="translate(116.445312 0)"/>
      <use xlink:href="#DejaVuSerif-72" transform="translate(176.064453 0)"/>
     </g>
    </g>
   </g>
   <g id="matplotlib.axis_4">
    <g id="ytick_8">
     <g id="line2d_77">
      <path d="M 477.47 231.045994 
L 853.2 231.045994 
" clip-path="url(#pc7611fff88)" style="fill: none; stroke-dasharray: 2.96,1.28; stroke-dashoffset: 0; stroke: #808080; stroke-opacity: 0.7; stroke-width: 0.8"/>
     </g>
     <g id="line2d_78">
      <g>
       <use xlink:href="#m5af514ead7" x="477.47" y="231.045994" style="stroke: #000000; stroke-width: 0.8"/>
      </g>
     </g>
     <g id="text_44">
      <!-- 0 -->
      <g transform="translate(464.1075 234.845212) scale(0.1 -0.1)">
       <use xlink:href="#DejaVuSerif-30"/>
      </g>
     </g>
    </g>
    <g id="ytick_9">
     <g id="line2d_79">
      <path d="M 477.47 183.984884 
L 853.2 183.984884 
" clip-path="url(#pc7611fff88)" style="fill: none; stroke-dasharray: 2.96,1.28; stroke-dashoffset: 0; stroke: #808080; stroke-opacity: 0.7; stroke-width: 0.8"/>
     </g>
     <g id="line2d_80">
      <g>
       <use xlink:href="#m5af514ead7" x="477.47" y="183.984884" style="stroke: #000000; stroke-width: 0.8"/>
      </g>
     </g>
     <g id="text_45">
      <!-- 100 -->
      <g transform="translate(451.3825 187.784103) scale(0.1 -0.1)">
       <use xlink:href="#DejaVuSerif-31"/>
       <use xlink:href="#DejaVuSerif-30" transform="translate(63.623047 0)"/>
       <use xlink:href="#DejaVuSerif-30" transform="translate(127.246094 0)"/>
      </g>
     </g>
    </g>
    <g id="ytick_10">
     <g id="line2d_81">
      <path d="M 477.47 136.923774 
L 853.2 136.923774 
" clip-path="url(#pc7611fff88)" style="fill: none; stroke-dasharray: 2.96,1.28; stroke-dashoffset: 0; stroke: #808080; stroke-opacity: 0.7; stroke-width: 0.8"/>
     </g>
     <g id="line2d_82">
      <g>
       <use xlink:href="#m5af514ead7" x="477.47" y="136.923774" style="stroke: #000000; stroke-width: 0.8"/>
      </g>
     </g>
     <g id="text_46">
      <!-- 200 -->
      <g transform="translate(451.3825 140.722993) scale(0.1 -0.1)">
       <use xlink:href="#DejaVuSerif-32"/>
       <use xlink:href="#DejaVuSerif-30" transform="translate(63.623047 0)"/>
       <use xlink:href="#DejaVuSerif-30" transform="translate(127.246094 0)"/>
      </g>
     </g>
    </g>
    <g id="ytick_11">
     <g id="line2d_83">
      <path d="M 477.47 89.862664 
L 853.2 89.862664 
" clip-path="url(#pc7611fff88)" style="fill: none; stroke-dasharray: 2.96,1.28; stroke-dashoffset: 0; stroke: #808080; stroke-opacity: 0.7; stroke-width: 0.8"/>
     </g>
     <g id="line2d_84">
      <g>
       <use xlink:href="#m5af514ead7" x="477.47" y="89.862664" style="stroke: #000000; stroke-width: 0.8"/>
      </g>
     </g>
     <g id="text_47">
      <!-- 300 -->
      <g transform="translate(451.3825 93.661883) scale(0.1 -0.1)">
       <use xlink:href="#DejaVuSerif-33"/>
       <use xlink:href="#DejaVuSerif-30" transform="translate(63.623047 0)"/>
       <use xlink:href="#DejaVuSerif-30" transform="translate(127.246094 0)"/>
      </g>
     </g>
    </g>
    <g id="ytick_12">
     <g id="line2d_85">
      <path d="M 477.47 42.801555 
L 853.2 42.801555 
" clip-path="url(#pc7611fff88)" style="fill: none; stroke-dasharray: 2.96,1.28; stroke-dashoffset: 0; stroke: #808080; stroke-opacity: 0.7; stroke-width: 0.8"/>
     </g>
     <g id="line2d_86">
      <g>
       <use xlink:href="#m5af514ead7" x="477.47" y="42.801555" style="stroke: #000000; stroke-width: 0.8"/>
      </g>
     </g>
     <g id="text_48">
      <!-- 400 -->
      <g transform="translate(451.3825 46.600773) scale(0.1 -0.1)">
       <use xlink:href="#DejaVuSerif-34"/>
       <use xlink:href="#DejaVuSerif-30" transform="translate(63.623047 0)"/>
       <use xlink:href="#DejaVuSerif-30" transform="translate(127.246094 0)"/>
      </g>
     </g>
    </g>
    <g id="text_49">
     <!-- Heat [TJ] -->
     <g transform="translate(445.302813 144.063622) rotate(-90) scale(0.1 -0.1)">
      <defs>
       <path id="DejaVuSerif-48" d="M 353 0 
L 353 331 
L 947 331 
L 947 4331 
L 353 4331 
L 353 4666 
L 2175 4666 
L 2175 4331 
L 1581 4331 
L 1581 2719 
L 4000 2719 
L 4000 4331 
L 3406 4331 
L 3406 4666 
L 5228 4666 
L 5228 4331 
L 4634 4331 
L 4634 331 
L 5228 331 
L 5228 0 
L 3406 0 
L 3406 331 
L 4000 331 
L 4000 2338 
L 1581 2338 
L 1581 331 
L 2175 331 
L 2175 0 
L 353 0 
z
" transform="scale(0.015625)"/>
       <path id="DejaVuSerif-54" d="M 1222 0 
L 1222 331 
L 1819 331 
L 1819 4294 
L 447 4294 
L 447 3566 
L 63 3566 
L 63 4666 
L 4206 4666 
L 4206 3566 
L 3822 3566 
L 3822 4294 
L 2450 4294 
L 2450 331 
L 3047 331 
L 3047 0 
L 1222 0 
z
" transform="scale(0.015625)"/>
       <path id="DejaVuSerif-4a" d="M -538 -1119 
L -538 -384 
L -181 -384 
Q -172 -694 -34 -845 
Q 103 -997 378 -997 
Q 750 -997 897 -762 
Q 1044 -528 1044 153 
L 1044 4331 
L 319 4331 
L 319 4666 
L 2272 4666 
L 2272 4331 
L 1678 4331 
L 1678 128 
Q 1678 -644 1368 -987 
Q 1059 -1331 372 -1331 
Q 150 -1331 -79 -1278 
Q -309 -1225 -538 -1119 
z
" transform="scale(0.015625)"/>
      </defs>
      <use xlink:href="#DejaVuSerif-48"/>
      <use xlink:href="#DejaVuSerif-65" transform="translate(87.207031 0)"/>
      <use xlink:href="#DejaVuSerif-61" transform="translate(146.386719 0)"/>
      <use xlink:href="#DejaVuSerif-74" transform="translate(206.005859 0)"/>
      <use xlink:href="#DejaVuSerif-20" transform="translate(246.191406 0)"/>
      <use xlink:href="#DejaVuSerif-5b" transform="translate(277.978516 0)"/>
      <use xlink:href="#DejaVuSerif-54" transform="translate(316.992188 0)"/>
      <use xlink:href="#DejaVuSerif-4a" transform="translate(383.691406 0)"/>
      <use xlink:href="#DejaVuSerif-5d" transform="translate(423.779297 0)"/>
     </g>
    </g>
   </g>
   <g id="patch_71">
    <path d="M 480.601083 231.045994 
L 486.86325 231.045994 
L 486.86325 231.045994 
L 480.601083 231.045994 
z
" clip-path="url(#pc7611fff88)" style="fill: #cc071e"/>
   </g>
   <g id="patch_72">
    <path d="M 493.125417 231.045994 
L 499.387583 231.045994 
L 499.387583 231.045994 
L 493.125417 231.045994 
z
" clip-path="url(#pc7611fff88)" style="fill: #cc071e"/>
   </g>
   <g id="patch_73">
    <path d="M 505.64975 231.045994 
L 511.911917 231.045994 
L 511.911917 231.045994 
L 505.64975 231.045994 
z
" clip-path="url(#pc7611fff88)" style="fill: #cc071e"/>
   </g>
   <g id="patch_74">
    <path d="M 518.174083 231.045994 
L 524.43625 231.045994 
L 524.43625 231.045994 
L 518.174083 231.045994 
z
" clip-path="url(#pc7611fff88)" style="fill: #cc071e"/>
   </g>
   <g id="patch_75">
    <path d="M 530.698417 231.045994 
L 536.960583 231.045994 
L 536.960583 231.045994 
L 530.698417 231.045994 
z
" clip-path="url(#pc7611fff88)" style="fill: #cc071e"/>
   </g>
   <g id="patch_76">
    <path d="M 543.22275 231.045994 
L 549.484917 231.045994 
L 549.484917 107.365162 
L 543.22275 107.365162 
z
" clip-path="url(#pc7611fff88)" style="fill: #cc071e"/>
   </g>
   <g id="patch_77">
    <path d="M 555.747083 231.045994 
L 562.00925 231.045994 
L 562.00925 104.117945 
L 555.747083 104.117945 
z
" clip-path="url(#pc7611fff88)" style="fill: #cc071e"/>
   </g>
   <g id="patch_78">
    <path d="M 568.271417 231.045994 
L 574.533583 231.045994 
L 574.533583 102.447746 
L 568.271417 102.447746 
z
" clip-path="url(#pc7611fff88)" style="fill: #cc071e"/>
   </g>
   <g id="patch_79">
    <path d="M 580.79575 231.045994 
L 587.057917 231.045994 
L 587.057917 90.650467 
L 580.79575 90.650467 
z
" clip-path="url(#pc7611fff88)" style="fill: #cc071e"/>
   </g>
   <g id="patch_80">
    <path d="M 593.320083 231.045994 
L 599.58225 231.045994 
L 599.58225 68.687989 
L 593.320083 68.687989 
z
" clip-path="url(#pc7611fff88)" style="fill: #cc071e"/>
   </g>
   <g id="patch_81">
    <path d="M 605.844417 231.045994 
L 612.106583 231.045994 
L 612.106583 51.142195 
L 605.844417 51.142195 
z
" clip-path="url(#pc7611fff88)" style="fill: #cc071e"/>
   </g>
   <g id="patch_82">
    <path d="M 618.36875 231.045994 
L 624.630917 231.045994 
L 624.630917 29.505379 
L 618.36875 29.505379 
z
" clip-path="url(#pc7611fff88)" style="fill: #cc071e"/>
   </g>
   <g id="patch_83">
    <path d="M 630.893083 231.045994 
L 637.15525 231.045994 
L 637.15525 26.643123 
L 630.893083 26.643123 
z
" clip-path="url(#pc7611fff88)" style="fill: #cc071e"/>
   </g>
   <g id="patch_84">
    <path d="M 643.417417 231.045994 
L 649.679583 231.045994 
L 649.679583 22.686695 
L 643.417417 22.686695 
z
" clip-path="url(#pc7611fff88)" style="fill: #cc071e"/>
   </g>
   <g id="patch_85">
    <path d="M 655.94175 231.045994 
L 662.203917 231.045994 
L 662.203917 25.445417 
L 655.94175 25.445417 
z
" clip-path="url(#pc7611fff88)" style="fill: #cc071e"/>
   </g>
   <g id="patch_86">
    <path d="M 668.466083 231.045994 
L 674.72825 231.045994 
L 674.72825 21.738884 
L 668.466083 21.738884 
z
" clip-path="url(#pc7611fff88)" style="fill: #cc071e"/>
   </g>
   <g id="patch_87">
    <path d="M 680.990417 231.045994 
L 687.252583 231.045994 
L 687.252583 26.714185 
L 680.990417 26.714185 
z
" clip-path="url(#pc7611fff88)" style="fill: #cc071e"/>
   </g>
   <g id="patch_88">
    <path d="M 693.51475 231.045994 
L 699.776917 231.045994 
L 699.776917 38.383458 
L 693.51475 38.383458 
z
" clip-path="url(#pc7611fff88)" style="fill: #cc071e"/>
   </g>
   <g id="patch_89">
    <path d="M 706.039083 231.045994 
L 712.30125 231.045994 
L 712.30125 38.860187 
L 706.039083 38.860187 
z
" clip-path="url(#pc7611fff88)" style="fill: #cc071e"/>
   </g>
   <g id="patch_90">
    <path d="M 718.563417 231.045994 
L 724.825583 231.045994 
L 724.825583 35.987106 
L 718.563417 35.987106 
z
" clip-path="url(#pc7611fff88)" style="fill: #cc071e"/>
   </g>
   <g id="patch_91">
    <path d="M 731.08775 231.045994 
L 737.349917 231.045994 
L 737.349917 21.192505 
L 731.08775 21.192505 
z
" clip-path="url(#pc7611fff88)" style="fill: #cc071e"/>
   </g>
   <g id="patch_92">
    <path d="M 743.612083 231.045994 
L 749.87425 231.045994 
L 749.87425 22.349267 
L 743.612083 22.349267 
z
" clip-path="url(#pc7611fff88)" style="fill: #cc071e"/>
   </g>
   <g id="patch_93">
    <path d="M 756.136417 231.045994 
L 762.398583 231.045994 
L 762.398583 24.154531 
L 756.136417 24.154531 
z
" clip-path="url(#pc7611fff88)" style="fill: #cc071e"/>
   </g>
   <g id="patch_94">
    <path d="M 768.66075 231.045994 
L 774.922917 231.045994 
L 774.922917 33.652404 
L 768.66075 33.652404 
z
" clip-path="url(#pc7611fff88)" style="fill: #cc071e"/>
   </g>
   <g id="patch_95">
    <path d="M 781.185083 231.045994 
L 787.44725 231.045994 
L 787.44725 28.905821 
L 781.185083 28.905821 
z
" clip-path="url(#pc7611fff88)" style="fill: #cc071e"/>
   </g>
   <g id="patch_96">
    <path d="M 793.709417 231.045994 
L 799.971583 231.045994 
L 799.971583 31.58501 
L 793.709417 31.58501 
z
" clip-path="url(#pc7611fff88)" style="fill: #cc071e"/>
   </g>
   <g id="patch_97">
    <path d="M 806.23375 231.045994 
L 812.495917 231.045994 
L 812.495917 35.876042 
L 806.23375 35.876042 
z
" clip-path="url(#pc7611fff88)" style="fill: #cc071e"/>
   </g>
   <g id="patch_98">
    <path d="M 818.758083 231.045994 
L 825.02025 231.045994 
L 825.02025 36.156997 
L 818.758083 36.156997 
z
" clip-path="url(#pc7611fff88)" style="fill: #cc071e"/>
   </g>
   <g id="patch_99">
    <path d="M 831.282417 231.045994 
L 837.544583 231.045994 
L 837.544583 39.458333 
L 831.282417 39.458333 
z
" clip-path="url(#pc7611fff88)" style="fill: #cc071e"/>
   </g>
   <g id="patch_100">
    <path d="M 843.80675 231.045994 
L 850.068917 231.045994 
L 850.068917 39.356681 
L 843.80675 39.356681 
z
" clip-path="url(#pc7611fff88)" style="fill: #cc071e"/>
   </g>
   <g id="patch_101">
    <path d="M 480.601083 231.045994 
L 486.86325 231.045994 
L 486.86325 34.517313 
L 480.601083 34.517313 
z
" clip-path="url(#pc7611fff88)" style="fill: #e69679"/>
   </g>
   <g id="patch_102">
    <path d="M 493.125417 231.045994 
L 499.387583 231.045994 
L 499.387583 33.41165 
L 493.125417 33.41165 
z
" clip-path="url(#pc7611fff88)" style="fill: #e69679"/>
   </g>
   <g id="patch_103">
    <path d="M 505.64975 231.045994 
L 511.911917 231.045994 
L 511.911917 34.780199 
L 505.64975 34.780199 
z
" clip-path="url(#pc7611fff88)" style="fill: #e69679"/>
   </g>
   <g id="patch_104">
    <path d="M 518.174083 231.045994 
L 524.43625 231.045994 
L 524.43625 36.304397 
L 518.174083 36.304397 
z
" clip-path="url(#pc7611fff88)" style="fill: #e69679"/>
   </g>
   <g id="patch_105">
    <path d="M 530.698417 231.045994 
L 536.960583 231.045994 
L 536.960583 33.244682 
L 530.698417 33.244682 
z
" clip-path="url(#pc7611fff88)" style="fill: #e69679"/>
   </g>
   <g id="patch_106">
    <path d="M 543.22275 107.365162 
L 549.484917 107.365162 
L 549.484917 33.244711 
L 543.22275 33.244711 
z
" clip-path="url(#pc7611fff88)" style="fill: #e69679"/>
   </g>
   <g id="patch_107">
    <path d="M 555.747083 104.117945 
L 562.00925 104.117945 
L 562.00925 36.402226 
L 555.747083 36.402226 
z
" clip-path="url(#pc7611fff88)" style="fill: #e69679"/>
   </g>
   <g id="patch_108">
    <path d="M 568.271417 102.447746 
L 574.533583 102.447746 
L 574.533583 34.988708 
L 568.271417 34.988708 
z
" clip-path="url(#pc7611fff88)" style="fill: #e69679"/>
   </g>
   <g id="patch_109">
    <path d="M 580.79575 90.650467 
L 587.057917 90.650467 
L 587.057917 32.834927 
L 580.79575 32.834927 
z
" clip-path="url(#pc7611fff88)" style="fill: #e69679"/>
   </g>
   <g id="patch_110">
    <path d="M 593.320083 68.687989 
L 599.58225 68.687989 
L 599.58225 34.597143 
L 593.320083 34.597143 
z
" clip-path="url(#pc7611fff88)" style="fill: #e69679"/>
   </g>
   <g id="patch_111">
    <path d="M 605.844417 51.142195 
L 612.106583 51.142195 
L 612.106583 32.845473 
L 605.844417 32.845473 
z
" clip-path="url(#pc7611fff88)" style="fill: #e69679"/>
   </g>
   <g id="patch_112">
    <path d="M 618.36875 231.045994 
L 624.630917 231.045994 
L 624.630917 231.045994 
L 618.36875 231.045994 
z
" clip-path="url(#pc7611fff88)" style="fill: #e69679"/>
   </g>
   <g id="patch_113">
    <path d="M 630.893083 231.045994 
L 637.15525 231.045994 
L 637.15525 231.045994 
L 630.893083 231.045994 
z
" clip-path="url(#pc7611fff88)" style="fill: #e69679"/>
   </g>
   <g id="patch_114">
    <path d="M 643.417417 231.045994 
L 649.679583 231.045994 
L 649.679583 231.045994 
L 643.417417 231.045994 
z
" clip-path="url(#pc7611fff88)" style="fill: #e69679"/>
   </g>
   <g id="patch_115">
    <path d="M 655.94175 231.045994 
L 662.203917 231.045994 
L 662.203917 231.045994 
L 655.94175 231.045994 
z
" clip-path="url(#pc7611fff88)" style="fill: #e69679"/>
   </g>
   <g id="patch_116">
    <path d="M 668.466083 231.045994 
L 674.72825 231.045994 
L 674.72825 231.045994 
L 668.466083 231.045994 
z
" clip-path="url(#pc7611fff88)" style="fill: #e69679"/>
   </g>
   <g id="patch_117">
    <path d="M 680.990417 231.045994 
L 687.252583 231.045994 
L 687.252583 231.045994 
L 680.990417 231.045994 
z
" clip-path="url(#pc7611fff88)" style="fill: #e69679"/>
   </g>
   <g id="patch_118">
    <path d="M 693.51475 231.045994 
L 699.776917 231.045994 
L 699.776917 231.045994 
L 693.51475 231.045994 
z
" clip-path="url(#pc7611fff88)" style="fill: #e69679"/>
   </g>
   <g id="patch_119">
    <path d="M 706.039083 231.045994 
L 712.30125 231.045994 
L 712.30125 231.045994 
L 706.039083 231.045994 
z
" clip-path="url(#pc7611fff88)" style="fill: #e69679"/>
   </g>
   <g id="patch_120">
    <path d="M 718.563417 231.045994 
L 724.825583 231.045994 
L 724.825583 231.045994 
L 718.563417 231.045994 
z
" clip-path="url(#pc7611fff88)" style="fill: #e69679"/>
   </g>
   <g id="patch_121">
    <path d="M 731.08775 231.045994 
L 737.349917 231.045994 
L 737.349917 231.045994 
L 731.08775 231.045994 
z
" clip-path="url(#pc7611fff88)" style="fill: #e69679"/>
   </g>
   <g id="patch_122">
    <path d="M 743.612083 231.045994 
L 749.87425 231.045994 
L 749.87425 231.045994 
L 743.612083 231.045994 
z
" clip-path="url(#pc7611fff88)" style="fill: #e69679"/>
   </g>
   <g id="patch_123">
    <path d="M 756.136417 231.045994 
L 762.398583 231.045994 
L 762.398583 231.045994 
L 756.136417 231.045994 
z
" clip-path="url(#pc7611fff88)" style="fill: #e69679"/>
   </g>
   <g id="patch_124">
    <path d="M 768.66075 231.045994 
L 774.922917 231.045994 
L 774.922917 231.045994 
L 768.66075 231.045994 
z
" clip-path="url(#pc7611fff88)" style="fill: #e69679"/>
   </g>
   <g id="patch_125">
    <path d="M 781.185083 231.045994 
L 787.44725 231.045994 
L 787.44725 231.045994 
L 781.185083 231.045994 
z
" clip-path="url(#pc7611fff88)" style="fill: #e69679"/>
   </g>
   <g id="patch_126">
    <path d="M 793.709417 231.045994 
L 799.971583 231.045994 
L 799.971583 231.045994 
L 793.709417 231.045994 
z
" clip-path="url(#pc7611fff88)" style="fill: #e69679"/>
   </g>
   <g id="patch_127">
    <path d="M 806.23375 231.045994 
L 812.495917 231.045994 
L 812.495917 231.045994 
L 806.23375 231.045994 
z
" clip-path="url(#pc7611fff88)" style="fill: #e69679"/>
   </g>
   <g id="patch_128">
    <path d="M 818.758083 231.045994 
L 825.02025 231.045994 
L 825.02025 231.045994 
L 818.758083 231.045994 
z
" clip-path="url(#pc7611fff88)" style="fill: #e69679"/>
   </g>
   <g id="patch_129">
    <path d="M 831.282417 231.045994 
L 837.544583 231.045994 
L 837.544583 231.045994 
L 831.282417 231.045994 
z
" clip-path="url(#pc7611fff88)" style="fill: #e69679"/>
   </g>
   <g id="patch_130">
    <path d="M 843.80675 231.045994 
L 850.068917 231.045994 
L 850.068917 231.045994 
L 843.80675 231.045994 
z
" clip-path="url(#pc7611fff88)" style="fill: #e69679"/>
   </g>
   <g id="line2d_87">
    <path d="M 483.732167 231.045994 
L 496.2565 231.045994 
L 508.780833 231.045994 
L 521.305167 231.045994 
L 533.8295 231.045994 
L 546.353833 107.365162 
L 558.878167 104.117945 
L 571.4025 102.447746 
L 583.926833 90.650467 
L 596.451167 68.687989 
L 608.9755 51.142195 
L 621.499833 29.505379 
L 634.024167 26.643123 
L 646.5485 22.686695 
L 659.072833 25.445417 
L 671.597167 21.738884 
L 684.1215 26.714185 
L 696.645833 38.383458 
L 709.170167 38.860187 
L 721.6945 35.987106 
L 734.218833 21.192505 
L 746.743167 22.349267 
L 759.2675 24.154531 
L 771.791833 33.652404 
L 784.316167 28.905821 
L 796.8405 31.58501 
L 809.364833 35.876042 
L 821.889167 36.156997 
L 834.4135 39.458333 
L 846.937833 39.356681 
" clip-path="url(#pc7611fff88)" style="fill: none; stroke: #000000; stroke-width: 2; stroke-linecap: square"/>
   </g>
   <g id="patch_131">
    <path d="M 477.47 231.045994 
L 477.47 10.8 
" style="fill: none; stroke: #000000; stroke-width: 0.8; stroke-linejoin: miter; stroke-linecap: square"/>
   </g>
   <g id="patch_132">
    <path d="M 853.2 231.045994 
L 853.2 10.8 
" style="fill: none; stroke: #000000; stroke-width: 0.8; stroke-linejoin: miter; stroke-linecap: square"/>
   </g>
   <g id="patch_133">
    <path d="M 477.47 231.045994 
L 853.2 231.045994 
" style="fill: none; stroke: #000000; stroke-width: 0.8; stroke-linejoin: miter; stroke-linecap: square"/>
   </g>
   <g id="patch_134">
    <path d="M 477.47 10.8 
L 853.2 10.8 
" style="fill: none; stroke: #000000; stroke-width: 0.8; stroke-linejoin: miter; stroke-linecap: square"/>
   </g>
   <g id="legend_2">
    <g id="patch_135">
     <path d="M 704.7885 220.033694 
L 832.4135 220.033694 
Q 834.4135 220.033694 834.4135 218.033694 
L 834.4135 174.857131 
Q 834.4135 172.857131 832.4135 172.857131 
L 704.7885 172.857131 
Q 702.7885 172.857131 702.7885 174.857131 
L 702.7885 218.033694 
Q 702.7885 220.033694 704.7885 220.033694 
z
" style="fill: #ffffff; opacity: 0.8; stroke: #cccccc; stroke-linejoin: miter"/>
    </g>
    <g id="line2d_88">
     <path d="M 706.7885 180.955569 
L 716.7885 180.955569 
L 726.7885 180.955569 
" style="fill: none; stroke: #000000; stroke-width: 2; stroke-linecap: square"/>
    </g>
    <g id="text_50">
     <!-- demand -->
     <g transform="translate(734.7885 184.455569) scale(0.1 -0.1)">
      <use xlink:href="#DejaVuSerif-64"/>
      <use xlink:href="#DejaVuSerif-65" transform="translate(64.013672 0)"/>
      <use xlink:href="#DejaVuSerif-6d" transform="translate(123.193359 0)"/>
      <use xlink:href="#DejaVuSerif-61" transform="translate(218.017578 0)"/>
      <use xlink:href="#DejaVuSerif-6e" transform="translate(277.636719 0)"/>
      <use xlink:href="#DejaVuSerif-64" transform="translate(342.041016 0)"/>
     </g>
    </g>
    <g id="patch_136">
     <path d="M 706.7885 199.133694 
L 726.7885 199.133694 
L 726.7885 192.133694 
L 706.7885 192.133694 
z
" style="fill: #cc071e"/>
    </g>
    <g id="text_51">
     <!-- unfulfilled demand -->
     <g transform="translate(734.7885 199.133694) scale(0.1 -0.1)">
      <use xlink:href="#DejaVuSerif-75"/>
      <use xlink:href="#DejaVuSerif-6e" transform="translate(64.404297 0)"/>
      <use xlink:href="#DejaVuSerif-66" transform="translate(128.808594 0)"/>
      <use xlink:href="#DejaVuSerif-75" transform="translate(165.820312 0)"/>
      <use xlink:href="#DejaVuSerif-6c" transform="translate(230.224609 0)"/>
      <use xlink:href="#DejaVuSerif-66" transform="translate(262.207031 0)"/>
      <use xlink:href="#DejaVuSerif-69" transform="translate(299.21875 0)"/>
      <use xlink:href="#DejaVuSerif-6c" transform="translate(331.201172 0)"/>
      <use xlink:href="#DejaVuSerif-6c" transform="translate(363.183594 0)"/>
      <use xlink:href="#DejaVuSerif-65" transform="translate(395.166016 0)"/>
      <use xlink:href="#DejaVuSerif-64" transform="translate(454.345703 0)"/>
      <use xlink:href="#DejaVuSerif-20" transform="translate(518.359375 0)"/>
      <use xlink:href="#DejaVuSerif-64" transform="translate(550.146484 0)"/>
      <use xlink:href="#DejaVuSerif-65" transform="translate(614.160156 0)"/>
      <use xlink:href="#DejaVuSerif-6d" transform="translate(673.339844 0)"/>
      <use xlink:href="#DejaVuSerif-61" transform="translate(768.164062 0)"/>
      <use xlink:href="#DejaVuSerif-6e" transform="translate(827.783203 0)"/>
      <use xlink:href="#DejaVuSerif-64" transform="translate(892.1875 0)"/>
     </g>
    </g>
    <g id="patch_137">
     <path d="M 706.7885 213.811819 
L 726.7885 213.811819 
L 726.7885 206.811819 
L 706.7885 206.811819 
z
" style="fill: #e69679"/>
    </g>
    <g id="text_52">
     <!-- assured supply -->
     <g transform="translate(734.7885 213.811819) scale(0.1 -0.1)">
      <use xlink:href="#DejaVuSerif-61"/>
      <use xlink:href="#DejaVuSerif-73" transform="translate(59.619141 0)"/>
      <use xlink:href="#DejaVuSerif-73" transform="translate(110.9375 0)"/>
      <use xlink:href="#DejaVuSerif-75" transform="translate(162.255859 0)"/>
      <use xlink:href="#DejaVuSerif-72" transform="translate(226.660156 0)"/>
      <use xlink:href="#DejaVuSerif-65" transform="translate(274.462891 0)"/>
      <use xlink:href="#DejaVuSerif-64" transform="translate(333.642578 0)"/>
      <use xlink:href="#DejaVuSerif-20" transform="translate(397.65625 0)"/>
      <use xlink:href="#DejaVuSerif-73" transform="translate(429.443359 0)"/>
      <use xlink:href="#DejaVuSerif-75" transform="translate(480.761719 0)"/>
      <use xlink:href="#DejaVuSerif-70" transform="translate(545.166016 0)"/>
      <use xlink:href="#DejaVuSerif-70" transform="translate(609.179688 0)"/>
      <use xlink:href="#DejaVuSerif-6c" transform="translate(673.193359 0)"/>
      <use xlink:href="#DejaVuSerif-79" transform="translate(705.175781 0)"/>
     </g>
    </g>
   </g>
  </g>
 </g>
 <defs>
  <clipPath id="p264e30fd3d">
   <rect x="50.87" y="10.8" width="375.73" height="220.245994"/>
  </clipPath>
  <clipPath id="pc7611fff88">
   <rect x="477.47" y="10.8" width="375.73" height="220.245994"/>
  </clipPath>
 </defs>
</svg>
