<svg width="2269" height="1027" xmlns="http://www.w3.org/2000/svg" xmlns:xlink="http://www.w3.org/1999/xlink" xml:space="preserve" overflow="hidden"><g transform="translate(-27 -311)"><g><path d="M1551.5 603.5 1551.5 651.571" stroke="#595959" stroke-width="4.58333" stroke-linecap="round" stroke-linejoin="round" stroke-miterlimit="10" stroke-opacity="1" fill="none" fill-rule="evenodd"/><path d="M0-2.29167 563.401-2.29167C564.666-2.29167 565.692-1.26565 565.692 0L565.692 607.721 563.401 605.429 615.27 605.429C616.535 605.429 617.561 606.455 617.561 607.721 617.561 608.986 616.535 610.012 615.27 610.012L563.401 610.012C562.135 610.012 561.109 608.986 561.109 607.721L561.109 0 563.401 2.29167 0 2.29167C-1.26565 2.29167-2.29167 1.26565-2.29167 0-2.29167-1.26565-1.26565-2.29167 0-2.29167ZM598.151 594.319 619.593 607.721 598.151 621.122C597.078 621.793 595.664 621.467 594.993 620.394 594.322 619.32 594.648 617.907 595.722 617.236L614.055 605.777 614.055 609.664 595.722 598.206C594.648 597.535 594.322 596.121 594.993 595.048 595.664 593.975 597.078 593.648 598.151 594.319Z" fill="#595959" fill-rule="nonzero" fill-opacity="1" transform="matrix(1.83697e-16 1 1 -1.83697e-16 227.5 603.5)"/><path d="M837.792 1127.5 837.792 1218.8C837.792 1220.06 836.766 1221.09 835.501 1221.09 834.235 1221.09 833.209 1220.06 833.209 1218.8L833.208 1127.5C833.208 1126.23 834.234 1125.21 835.5 1125.21 836.766 1125.21 837.792 1126.23 837.792 1127.5ZM848.902 1201.68 835.501 1223.12 822.099 1201.68C821.428 1200.61 821.754 1199.19 822.828 1198.52 823.901 1197.85 825.315 1198.18 825.985 1199.25L837.444 1217.58 833.557 1217.58 845.015 1199.25C845.686 1198.18 847.1 1197.85 848.173 1198.52 849.247 1199.19 849.573 1200.61 848.902 1201.68Z" fill="#595959" fill-rule="nonzero" fill-opacity="1"/><path d="M695.792 801.5 695.792 892.799C695.792 894.064 694.766 895.09 693.5 895.09 692.234 895.09 691.208 894.064 691.208 892.799L691.208 801.5C691.208 800.234 692.234 799.208 693.5 799.208 694.765 799.208 695.792 800.234 695.792 801.5ZM706.902 875.68 693.5 897.123 680.098 875.68C679.428 874.607 679.754 873.193 680.827 872.522 681.9 871.851 683.314 872.178 683.985 873.251L695.443 891.584 691.557 891.584 703.015 873.251C703.686 872.177 705.1 871.851 706.173 872.522 707.246 873.193 707.573 874.607 706.902 875.68Z" fill="#595959" fill-rule="nonzero" fill-opacity="1"/><path d="M0-2.29167 47.8034-2.29167C49.0691-2.29167 50.0951-1.26565 50.0951 0L50.0951 406.879 47.8034 404.588 91.2985 404.588C92.5642 404.588 93.5902 405.614 93.5902 406.879 93.5902 408.145 92.5642 409.171 91.2985 409.171L47.8034 409.171C46.5378 409.171 45.5118 408.145 45.5118 406.879L45.5118 0 47.8034 2.29167 0 2.29167C-1.26565 2.29167-2.29167 1.26565-2.29167 0-2.29167-1.26565-1.26565-2.29167 0-2.29167ZM74.1798 393.478 95.6225 406.879 74.1798 420.281C73.1065 420.952 71.6927 420.626 71.0219 419.552 70.3511 418.479 70.6774 417.065 71.7506 416.394L90.084 404.936 90.084 408.823 71.7506 397.364C70.6774 396.694 70.3511 395.28 71.0219 394.207 71.6927 393.133 73.1065 392.807 74.1798 393.478Z" fill="#595959" fill-rule="nonzero" fill-opacity="1" transform="matrix(1.83697e-16 1 1 -1.83697e-16 1301.5 1127.5)"/><path d="M2094.34 604.5 2094.34 651.935C2094.34 653.201 2093.32 654.227 2092.05 654.227L1708.5 654.227 1710.79 651.935 1710.79 1218.4C1710.79 1219.67 1709.77 1220.69 1708.5 1220.69 1707.23 1220.69 1706.21 1219.67 1706.21 1218.4L1706.21 651.935C1706.21 650.67 1707.23 649.644 1708.5 649.644L2092.05 649.644 2089.76 651.935 2089.76 604.5C2089.76 603.235 2090.78 602.208 2092.05 602.208 2093.32 602.208 2094.34 603.235 2094.34 604.5ZM1721.9 1201.28 1708.5 1222.73 1695.1 1201.28C1694.43 1200.21 1694.75 1198.8 1695.83 1198.13 1696.9 1197.45 1698.31 1197.78 1698.98 1198.85L1710.44 1217.19 1706.56 1217.19 1718.01 1198.85C1718.69 1197.78 1720.1 1197.45 1721.17 1198.13 1722.25 1198.8 1722.57 1200.21 1721.9 1201.28Z" fill="#595959" fill-rule="nonzero" fill-opacity="1"/><path d="M1710.79 603.5 1710.79 1218.78C1710.79 1220.04 1709.77 1221.07 1708.5 1221.07 1707.23 1221.07 1706.21 1220.04 1706.21 1218.78L1706.21 603.5C1706.21 602.234 1707.23 601.208 1708.5 601.208 1709.77 601.208 1710.79 602.234 1710.79 603.5ZM1721.9 1201.65 1708.5 1223.09 1695.1 1201.65C1694.43 1200.58 1694.75 1199.16 1695.83 1198.49 1696.9 1197.82 1698.31 1198.15 1698.99 1199.22L1698.99 1199.22 1710.44 1217.56 1706.56 1217.56 1718.02 1199.22C1718.69 1198.15 1720.1 1197.82 1721.17 1198.49 1722.25 1199.16 1722.57 1200.58 1721.9 1201.65Z" fill="#595959" fill-rule="nonzero" fill-opacity="1"/><path d="M0 0 374.687 0.564075" stroke="#595959" stroke-width="4.58333" stroke-linecap="round" stroke-linejoin="round" stroke-miterlimit="10" stroke-opacity="1" fill="none" fill-rule="evenodd" transform="matrix(-1 0 0 1 1551.19 651.5)"/><path d="M695.792 603.5 695.792 694.995C695.792 696.26 694.766 697.286 693.5 697.286 692.234 697.286 691.208 696.26 691.208 694.995L691.208 603.5C691.208 602.234 692.234 601.208 693.5 601.208 694.765 601.208 695.792 602.234 695.792 603.5ZM706.902 677.876 693.5 699.319 680.098 677.876C679.428 676.803 679.754 675.389 680.827 674.718 681.9 674.047 683.314 674.373 683.985 675.447L695.443 693.78 691.557 693.78 703.015 675.447C703.686 674.373 705.1 674.047 706.173 674.718 707.246 675.389 707.573 676.803 706.902 677.876Z" fill="#595959" fill-rule="nonzero" fill-opacity="1"/><path d="M0 0 445.94 0.000360892" stroke="#595959" stroke-width="4.58333" stroke-linecap="round" stroke-linejoin="round" stroke-miterlimit="10" stroke-opacity="1" fill="none" fill-rule="evenodd" transform="matrix(-1 0 0 1 1139.44 651.5)"/><path d="M1161.79 603.5 1161.79 694.995C1161.79 696.261 1160.77 697.287 1159.5 697.287 1158.23 697.287 1157.21 696.261 1157.21 694.995L1157.21 603.5C1157.21 602.234 1158.23 601.208 1159.5 601.208 1160.77 601.208 1161.79 602.234 1161.79 603.5ZM1172.9 677.876 1159.5 699.319 1146.1 677.876C1145.43 676.803 1145.75 675.389 1146.83 674.718 1147.9 674.048 1149.31 674.374 1149.99 675.447L1161.44 693.78 1157.56 693.78 1169.02 675.447C1169.69 674.374 1171.1 674.047 1172.17 674.718 1173.25 675.389 1173.57 676.803 1172.9 677.876Z" fill="#595959" fill-rule="nonzero" fill-opacity="1"/><path d="M1161.79 801.5 1161.79 892.799C1161.79 894.064 1160.77 895.09 1159.5 895.09 1158.23 895.09 1157.21 894.064 1157.21 892.799L1157.21 801.5C1157.21 800.234 1158.23 799.208 1159.5 799.208 1160.77 799.208 1161.79 800.234 1161.79 801.5ZM1172.9 875.68 1159.5 897.123 1146.1 875.68C1145.43 874.607 1145.75 873.193 1146.83 872.522 1147.9 871.851 1149.31 872.178 1149.99 873.251L1161.44 891.584 1157.56 891.584 1169.02 873.251C1169.69 872.177 1171.1 871.851 1172.17 872.522 1173.25 873.193 1173.57 874.607 1172.9 875.68Z" fill="#595959" fill-rule="nonzero" fill-opacity="1"/><path d="M0 0 182.284 0.000360892" stroke="#595959" stroke-width="4.58333" stroke-linecap="round" stroke-linejoin="round" stroke-miterlimit="10" stroke-opacity="1" fill="none" fill-rule="evenodd" transform="matrix(-1 0 0 1 1157.78 827.5)"/><path d="M977.792 827.5 977.792 893.246C977.792 894.512 976.766 895.538 975.5 895.538 974.235 895.538 973.209 894.512 973.209 893.246L973.208 827.5C973.208 826.234 974.234 825.208 975.5 825.208 976.766 825.208 977.792 826.234 977.792 827.5ZM988.902 876.127 975.5 897.57 962.099 876.128C961.428 875.054 961.754 873.64 962.827 872.97 963.901 872.299 965.315 872.625 965.985 873.698L977.444 892.032 973.557 892.032 985.015 873.698C985.686 872.625 987.1 872.299 988.173 872.969 989.246 873.64 989.573 875.054 988.902 876.127Z" fill="#595959" fill-rule="nonzero" fill-opacity="1"/><path d="M1598.5 1236.45C1598.5 1229.3 1604.3 1223.5 1611.45 1223.5L1804.55 1223.5C1811.7 1223.5 1817.5 1229.3 1817.5 1236.45L1817.5 1312.55C1817.5 1319.7 1811.7 1325.5 1804.55 1325.5L1611.45 1325.5C1604.3 1325.5 1598.5 1319.7 1598.5 1312.55Z" stroke="#F2F2F2" stroke-width="4.58333" stroke-linecap="butt" stroke-linejoin="miter" stroke-miterlimit="8" stroke-opacity="1" fill="#F2F2F2" fill-rule="evenodd" fill-opacity="1"/><text fill="#000000" fill-opacity="1" font-family="Arial,Arial_MSFontService,sans-serif" font-style="normal" font-variant="normal" font-weight="700" font-stretch="normal" font-size="37" text-anchor="start" direction="ltr" writing-mode="lr-tb" unicode-bidi="normal" text-decoration="none" transform="matrix(1 0 0 1 1639.08 1288)">Pig iron</text><path d="M1430.5 388.372C1430.5 380.159 1437.16 373.5 1445.37 373.5L1805.63 373.5C1813.84 373.5 1820.5 380.159 1820.5 388.372L1820.5 588.628C1820.5 596.842 1813.84 603.5 1805.63 603.5L1445.37 603.5C1437.16 603.5 1430.5 596.842 1430.5 588.628Z" stroke="#000000" stroke-width="4.58333" stroke-linecap="butt" stroke-linejoin="miter" stroke-miterlimit="8" stroke-opacity="1" fill="#FFFFFF" fill-rule="evenodd" fill-opacity="1"/><text fill="#000000" fill-opacity="1" font-family="Arial,Arial_MSFontService,sans-serif" font-style="normal" font-variant="normal" font-weight="700" font-stretch="normal" font-size="37" text-anchor="start" direction="ltr" writing-mode="lr-tb" unicode-bidi="normal" text-decoration="none" transform="matrix(1 0 0 1 1451.85 420)">Blast furnace w/ </text><text fill="#000000" fill-opacity="1" font-family="Arial,Arial_MSFontService,sans-serif" font-style="normal" font-variant="normal" font-weight="700" font-stretch="normal" font-size="37" text-anchor="start" direction="ltr" writing-mode="lr-tb" unicode-bidi="normal" text-decoration="none" transform="matrix(1 0 0 1 1451.85 464)">carbon capture</text><text fill="#000000" fill-opacity="1" font-family="Arial,Arial_MSFontService,sans-serif" font-style="normal" font-variant="normal" font-weight="400" font-stretch="normal" font-size="31" text-anchor="start" direction="ltr" writing-mode="lr-tb" unicode-bidi="normal" text-decoration="none" transform="matrix(1 0 0 1 1451.85 511)">Operation: </text><text fill="#000000" fill-opacity="1" font-family="Cambria Math,Cambria Math_MSFontService,sans-serif" font-style="normal" font-variant="normal" font-weight="400" font-stretch="normal" font-size="31" text-anchor="start" direction="ltr" writing-mode="lr-tb" unicode-bidi="normal" text-decoration="none" transform="matrix(1 0 0 1 1604.82 511)">ğ›¿</text><text fill="#000000" fill-opacity="1" font-family="Cambria Math,Cambria Math_MSFontService,sans-serif" font-style="normal" font-variant="normal" font-weight="400" font-stretch="normal" font-size="31" text-anchor="start" direction="ltr" writing-mode="lr-tb" unicode-bidi="normal" text-decoration="none" transform="matrix(1 0 0 1 1631.15 511)">âˆˆ</text><path d="M1732.95 487.862 1739.7 487.862 1739.7 516.727 1732.95 516.727 1732.95 515.562 1737.19 515.562 1737.19 489.027 1732.95 489.027ZM1662.03 487.862 1668.78 487.862 1668.78 489.027 1664.54 489.027 1664.54 515.562 1668.78 515.562 1668.78 516.727 1662.03 516.727Z" fill="#000000" fill-rule="evenodd" fill-opacity="1"/><text fill="#000000" fill-opacity="1" font-family="Cambria Math,Cambria Math_MSFontService,sans-serif" font-style="normal" font-variant="normal" font-weight="400" font-stretch="normal" font-size="31" text-anchor="start" direction="ltr" writing-mode="lr-tb" unicode-bidi="normal" text-decoration="none" transform="matrix(1 0 0 1 1669.33 511)">0</text><text fill="#000000" fill-opacity="1" font-family="Cambria Math,Cambria Math_MSFontService,sans-serif" font-style="normal" font-variant="normal" font-weight="400" font-stretch="normal" font-size="31" text-anchor="start" direction="ltr" writing-mode="lr-tb" unicode-bidi="normal" text-decoration="none" transform="matrix(1 0 0 1 1686.51 511)">,</text><text fill="#000000" fill-opacity="1" font-family="Cambria Math,Cambria Math_MSFontService,sans-serif" font-style="normal" font-variant="normal" font-weight="400" font-stretch="normal" font-size="31" text-anchor="start" direction="ltr" writing-mode="lr-tb" unicode-bidi="normal" text-decoration="none" transform="matrix(1 0 0 1 1697.93 511)">20</text><text fill="#000000" fill-opacity="1" font-family="Arial,Arial_MSFontService,sans-serif" font-style="normal" font-variant="normal" font-weight="400" font-stretch="normal" font-size="31" text-anchor="start" direction="ltr" writing-mode="lr-tb" unicode-bidi="normal" text-decoration="none" transform="matrix(1 0 0 1 1451.85 548)">Construction: </text><text fill="#000000" fill-opacity="1" font-family="Cambria Math,Cambria Math_MSFontService,sans-serif" font-style="normal" font-variant="normal" font-weight="400" font-stretch="normal" font-size="31" text-anchor="start" direction="ltr" writing-mode="lr-tb" unicode-bidi="normal" text-decoration="none" transform="matrix(1 0 0 1 1642.63 548)">ğ›¿</text><text fill="#000000" fill-opacity="1" font-family="Cambria Math,Cambria Math_MSFontService,sans-serif" font-style="normal" font-variant="normal" font-weight="400" font-stretch="normal" font-size="31" text-anchor="start" direction="ltr" writing-mode="lr-tb" unicode-bidi="normal" text-decoration="none" transform="matrix(1 0 0 1 1668.96 548)">=</text><text fill="#000000" fill-opacity="1" font-family="Cambria Math,Cambria Math_MSFontService,sans-serif" font-style="normal" font-variant="normal" font-weight="400" font-stretch="normal" font-size="31" text-anchor="start" direction="ltr" writing-mode="lr-tb" unicode-bidi="normal" text-decoration="none" transform="matrix(1 0 0 1 1700.4 548)">0</text><text fill="#000000" fill-opacity="1" font-family="Arial,Arial_MSFontService,sans-serif" font-style="normal" font-variant="normal" font-weight="400" font-stretch="normal" font-size="31" text-anchor="start" direction="ltr" writing-mode="lr-tb" unicode-bidi="normal" text-decoration="none" transform="matrix(1 0 0 1 1451.85 585)">End of Life: </text><text fill="#000000" fill-opacity="1" font-family="Cambria Math,Cambria Math_MSFontService,sans-serif" font-style="normal" font-variant="normal" font-weight="400" font-stretch="normal" font-size="31" text-anchor="start" direction="ltr" writing-mode="lr-tb" unicode-bidi="normal" text-decoration="none" transform="matrix(1 0 0 1 1616.85 585)">ğ›¿</text><text fill="#000000" fill-opacity="1" font-family="Cambria Math,Cambria Math_MSFontService,sans-serif" font-style="normal" font-variant="normal" font-weight="400" font-stretch="normal" font-size="31" text-anchor="start" direction="ltr" writing-mode="lr-tb" unicode-bidi="normal" text-decoration="none" transform="matrix(1 0 0 1 1643.18 585)">=</text><text fill="#000000" fill-opacity="1" font-family="Cambria Math,Cambria Math_MSFontService,sans-serif" font-style="normal" font-variant="normal" font-weight="400" font-stretch="normal" font-size="31" text-anchor="start" direction="ltr" writing-mode="lr-tb" unicode-bidi="normal" text-decoration="none" transform="matrix(1 0 0 1 1674.62 585)">21</text><path d="M498.5 388.372C498.5 380.159 505.158 373.5 513.372 373.5L873.628 373.5C881.842 373.5 888.5 380.159 888.5 388.372L888.5 588.628C888.5 596.842 881.842 603.5 873.628 603.5L513.372 603.5C505.158 603.5 498.5 596.842 498.5 588.628Z" stroke="#000000" stroke-width="4.58333" stroke-linecap="butt" stroke-linejoin="miter" stroke-miterlimit="8" stroke-opacity="1" fill="none" fill-rule="evenodd"/><text fill="#000000" fill-opacity="1" font-family="Arial,Arial_MSFontService,sans-serif" font-style="normal" font-variant="normal" font-weight="700" font-stretch="normal" font-size="37" text-anchor="start" direction="ltr" writing-mode="lr-tb" unicode-bidi="normal" text-decoration="none" transform="matrix(1 0 0 1 519.747 420)">Direct air carbon </text><text fill="#000000" fill-opacity="1" font-family="Arial,Arial_MSFontService,sans-serif" font-style="normal" font-variant="normal" font-weight="700" font-stretch="normal" font-size="37" text-anchor="start" direction="ltr" writing-mode="lr-tb" unicode-bidi="normal" text-decoration="none" transform="matrix(1 0 0 1 519.747 464)">capture</text><text fill="#000000" fill-opacity="1" font-family="Arial,Arial_MSFontService,sans-serif" font-style="normal" font-variant="normal" font-weight="400" font-stretch="normal" font-size="31" text-anchor="start" direction="ltr" writing-mode="lr-tb" unicode-bidi="normal" text-decoration="none" transform="matrix(1 0 0 1 519.747 511)">Operation: </text><text fill="#000000" fill-opacity="1" font-family="Cambria Math,Cambria Math_MSFontService,sans-serif" font-style="normal" font-variant="normal" font-weight="400" font-stretch="normal" font-size="31" text-anchor="start" direction="ltr" writing-mode="lr-tb" unicode-bidi="normal" text-decoration="none" transform="matrix(1 0 0 1 672.716 511)">ğ›¿</text><text fill="#000000" fill-opacity="1" font-family="Cambria Math,Cambria Math_MSFontService,sans-serif" font-style="normal" font-variant="normal" font-weight="400" font-stretch="normal" font-size="31" text-anchor="start" direction="ltr" writing-mode="lr-tb" unicode-bidi="normal" text-decoration="none" transform="matrix(1 0 0 1 699.047 511)">âˆˆ</text><path d="M800.852 487.862 807.603 487.862 807.603 516.727 800.852 516.727 800.852 515.562 805.09 515.562 805.09 489.027 800.852 489.027ZM729.93 487.862 736.68 487.862 736.68 489.027 732.442 489.027 732.442 515.562 736.68 515.562 736.68 516.727 729.93 516.727Z" fill="#000000" fill-rule="evenodd" fill-opacity="1"/><text fill="#000000" fill-opacity="1" font-family="Cambria Math,Cambria Math_MSFontService,sans-serif" font-style="normal" font-variant="normal" font-weight="400" font-stretch="normal" font-size="31" text-anchor="start" direction="ltr" writing-mode="lr-tb" unicode-bidi="normal" text-decoration="none" transform="matrix(1 0 0 1 737.226 511)">0</text><text fill="#000000" fill-opacity="1" font-family="Cambria Math,Cambria Math_MSFontService,sans-serif" font-style="normal" font-variant="normal" font-weight="400" font-stretch="normal" font-size="31" text-anchor="start" direction="ltr" writing-mode="lr-tb" unicode-bidi="normal" text-decoration="none" transform="matrix(1 0 0 1 754.414 511)">,</text><text fill="#000000" fill-opacity="1" font-family="Cambria Math,Cambria Math_MSFontService,sans-serif" font-style="normal" font-variant="normal" font-weight="400" font-stretch="normal" font-size="31" text-anchor="start" direction="ltr" writing-mode="lr-tb" unicode-bidi="normal" text-decoration="none" transform="matrix(1 0 0 1 765.826 511)">15</text><text fill="#000000" fill-opacity="1" font-family="Arial,Arial_MSFontService,sans-serif" font-style="normal" font-variant="normal" font-weight="400" font-stretch="normal" font-size="31" text-anchor="start" direction="ltr" writing-mode="lr-tb" unicode-bidi="normal" text-decoration="none" transform="matrix(1 0 0 1 519.747 548)">Construction: </text><text fill="#000000" fill-opacity="1" font-family="Cambria Math,Cambria Math_MSFontService,sans-serif" font-style="normal" font-variant="normal" font-weight="400" font-stretch="normal" font-size="31" text-anchor="start" direction="ltr" writing-mode="lr-tb" unicode-bidi="normal" text-decoration="none" transform="matrix(1 0 0 1 710.528 548)">ğ›¿</text><text fill="#000000" fill-opacity="1" font-family="Cambria Math,Cambria Math_MSFontService,sans-serif" font-style="normal" font-variant="normal" font-weight="400" font-stretch="normal" font-size="31" text-anchor="start" direction="ltr" writing-mode="lr-tb" unicode-bidi="normal" text-decoration="none" transform="matrix(1 0 0 1 736.86 548)">=</text><text fill="#000000" fill-opacity="1" font-family="Cambria Math,Cambria Math_MSFontService,sans-serif" font-style="normal" font-variant="normal" font-weight="400" font-stretch="normal" font-size="31" text-anchor="start" direction="ltr" writing-mode="lr-tb" unicode-bidi="normal" text-decoration="none" transform="matrix(1 0 0 1 768.301 548)">0</text><text fill="#000000" fill-opacity="1" font-family="Arial,Arial_MSFontService,sans-serif" font-style="normal" font-variant="normal" font-weight="400" font-stretch="normal" font-size="31" text-anchor="start" direction="ltr" writing-mode="lr-tb" unicode-bidi="normal" text-decoration="none" transform="matrix(1 0 0 1 519.747 585)">End of Life: </text><text fill="#000000" fill-opacity="1" font-family="Cambria Math,Cambria Math_MSFontService,sans-serif" font-style="normal" font-variant="normal" font-weight="400" font-stretch="normal" font-size="31" text-anchor="start" direction="ltr" writing-mode="lr-tb" unicode-bidi="normal" text-decoration="none" transform="matrix(1 0 0 1 684.747 585)">ğ›¿</text><text fill="#000000" fill-opacity="1" font-family="Cambria Math,Cambria Math_MSFontService,sans-serif" font-style="normal" font-variant="normal" font-weight="400" font-stretch="normal" font-size="31" text-anchor="start" direction="ltr" writing-mode="lr-tb" unicode-bidi="normal" text-decoration="none" transform="matrix(1 0 0 1 711.078 585)">=</text><text fill="#000000" fill-opacity="1" font-family="Cambria Math,Cambria Math_MSFontService,sans-serif" font-style="normal" font-variant="normal" font-weight="400" font-stretch="normal" font-size="31" text-anchor="start" direction="ltr" writing-mode="lr-tb" unicode-bidi="normal" text-decoration="none" transform="matrix(1 0 0 1 742.52 585)">16</text><path d="M964.5 388.372C964.5 380.159 971.158 373.5 979.372 373.5L1339.63 373.5C1347.84 373.5 1354.5 380.159 1354.5 388.372L1354.5 588.628C1354.5 596.842 1347.84 603.5 1339.63 603.5L979.372 603.5C971.158 603.5 964.5 596.842 964.5 588.628Z" stroke="#000000" stroke-width="4.58333" stroke-linecap="butt" stroke-linejoin="miter" stroke-miterlimit="8" stroke-opacity="1" fill="none" fill-rule="evenodd"/><text fill="#000000" fill-opacity="1" font-family="Arial,Arial_MSFontService,sans-serif" font-style="normal" font-variant="normal" font-weight="700" font-stretch="normal" font-size="37" text-anchor="start" direction="ltr" writing-mode="lr-tb" unicode-bidi="normal" text-decoration="none" transform="matrix(1 0 0 1 985.797 420)">PEM electrolysis</text><text fill="#000000" fill-opacity="1" font-family="Arial,Arial_MSFontService,sans-serif" font-style="normal" font-variant="normal" font-weight="400" font-stretch="normal" font-size="31" text-anchor="start" direction="ltr" writing-mode="lr-tb" unicode-bidi="normal" text-decoration="none" transform="matrix(1 0 0 1 985.797 511)">Operation: </text><text fill="#000000" fill-opacity="1" font-family="Cambria Math,Cambria Math_MSFontService,sans-serif" font-style="normal" font-variant="normal" font-weight="400" font-stretch="normal" font-size="31" text-anchor="start" direction="ltr" writing-mode="lr-tb" unicode-bidi="normal" text-decoration="none" transform="matrix(1 0 0 1 1138.77 511)">ğ›¿</text><text fill="#000000" fill-opacity="1" font-family="Cambria Math,Cambria Math_MSFontService,sans-serif" font-style="normal" font-variant="normal" font-weight="400" font-stretch="normal" font-size="31" text-anchor="start" direction="ltr" writing-mode="lr-tb" unicode-bidi="normal" text-decoration="none" transform="matrix(1 0 0 1 1165.1 511)">âˆˆ</text><path d="M1249.71 487.862 1256.47 487.862 1256.47 516.727 1249.71 516.727 1249.71 515.562 1253.95 515.562 1253.95 489.027 1249.71 489.027ZM1195.98 487.862 1202.73 487.862 1202.73 489.027 1198.49 489.027 1198.49 515.562 1202.73 515.562 1202.73 516.727 1195.98 516.727Z" fill="#000000" fill-rule="evenodd" fill-opacity="1"/><text fill="#000000" fill-opacity="1" font-family="Cambria Math,Cambria Math_MSFontService,sans-serif" font-style="normal" font-variant="normal" font-weight="400" font-stretch="normal" font-size="31" text-anchor="start" direction="ltr" writing-mode="lr-tb" unicode-bidi="normal" text-decoration="none" transform="matrix(1 0 0 1 1203.28 511)">0</text><text fill="#000000" fill-opacity="1" font-family="Cambria Math,Cambria Math_MSFontService,sans-serif" font-style="normal" font-variant="normal" font-weight="400" font-stretch="normal" font-size="31" text-anchor="start" direction="ltr" writing-mode="lr-tb" unicode-bidi="normal" text-decoration="none" transform="matrix(1 0 0 1 1220.46 511)">,</text><text fill="#000000" fill-opacity="1" font-family="Cambria Math,Cambria Math_MSFontService,sans-serif" font-style="normal" font-variant="normal" font-weight="400" font-stretch="normal" font-size="31" text-anchor="start" direction="ltr" writing-mode="lr-tb" unicode-bidi="normal" text-decoration="none" transform="matrix(1 0 0 1 1231.88 511)">8</text><text fill="#000000" fill-opacity="1" font-family="Arial,Arial_MSFontService,sans-serif" font-style="normal" font-variant="normal" font-weight="400" font-stretch="normal" font-size="31" text-anchor="start" direction="ltr" writing-mode="lr-tb" unicode-bidi="normal" text-decoration="none" transform="matrix(1 0 0 1 985.797 548)">Construction: </text><text fill="#000000" fill-opacity="1" font-family="Cambria Math,Cambria Math_MSFontService,sans-serif" font-style="normal" font-variant="normal" font-weight="400" font-stretch="normal" font-size="31" text-anchor="start" direction="ltr" writing-mode="lr-tb" unicode-bidi="normal" text-decoration="none" transform="matrix(1 0 0 1 1176.58 548)">ğ›¿</text><text fill="#000000" fill-opacity="1" font-family="Cambria Math,Cambria Math_MSFontService,sans-serif" font-style="normal" font-variant="normal" font-weight="400" font-stretch="normal" font-size="31" text-anchor="start" direction="ltr" writing-mode="lr-tb" unicode-bidi="normal" text-decoration="none" transform="matrix(1 0 0 1 1202.91 548)">=</text><text fill="#000000" fill-opacity="1" font-family="Cambria Math,Cambria Math_MSFontService,sans-serif" font-style="normal" font-variant="normal" font-weight="400" font-stretch="normal" font-size="31" text-anchor="start" direction="ltr" writing-mode="lr-tb" unicode-bidi="normal" text-decoration="none" transform="matrix(1 0 0 1 1234.35 548)">0</text><text fill="#000000" fill-opacity="1" font-family="Arial,Arial_MSFontService,sans-serif" font-style="normal" font-variant="normal" font-weight="400" font-stretch="normal" font-size="31" text-anchor="start" direction="ltr" writing-mode="lr-tb" unicode-bidi="normal" text-decoration="none" transform="matrix(1 0 0 1 985.797 585)">End of Life: </text><text fill="#000000" fill-opacity="1" font-family="Cambria Math,Cambria Math_MSFontService,sans-serif" font-style="normal" font-variant="normal" font-weight="400" font-stretch="normal" font-size="31" text-anchor="start" direction="ltr" writing-mode="lr-tb" unicode-bidi="normal" text-decoration="none" transform="matrix(1 0 0 1 1150.8 585)">ğ›¿</text><text fill="#000000" fill-opacity="1" font-family="Cambria Math,Cambria Math_MSFontService,sans-serif" font-style="normal" font-variant="normal" font-weight="400" font-stretch="normal" font-size="31" text-anchor="start" direction="ltr" writing-mode="lr-tb" unicode-bidi="normal" text-decoration="none" transform="matrix(1 0 0 1 1177.13 585)">=</text><text fill="#000000" fill-opacity="1" font-family="Cambria Math,Cambria Math_MSFontService,sans-serif" font-style="normal" font-variant="normal" font-weight="400" font-stretch="normal" font-size="31" text-anchor="start" direction="ltr" writing-mode="lr-tb" unicode-bidi="normal" text-decoration="none" transform="matrix(1 0 0 1 1208.57 585)">9</text><path d="M32.5002 388.372C32.5002 380.159 39.1586 373.5 47.3721 373.5L407.628 373.5C415.842 373.5 422.5 380.159 422.5 388.372L422.5 588.628C422.5 596.842 415.842 603.5 407.628 603.5L47.3721 603.5C39.1586 603.5 32.5002 596.842 32.5002 588.628Z" stroke="#000000" stroke-width="4.58333" stroke-linecap="butt" stroke-linejoin="miter" stroke-miterlimit="8" stroke-opacity="1" fill="none" fill-rule="evenodd"/><text fill="#000000" fill-opacity="1" font-family="Arial,Arial_MSFontService,sans-serif" font-style="normal" font-variant="normal" font-weight="700" font-stretch="normal" font-size="37" text-anchor="start" direction="ltr" writing-mode="lr-tb" unicode-bidi="normal" text-decoration="none" transform="matrix(1 0 0 1 53.6968 420)">Natural gas </text><text fill="#000000" fill-opacity="1" font-family="Arial,Arial_MSFontService,sans-serif" font-style="normal" font-variant="normal" font-weight="700" font-stretch="normal" font-size="37" text-anchor="start" direction="ltr" writing-mode="lr-tb" unicode-bidi="normal" text-decoration="none" transform="matrix(1 0 0 1 53.6968 464)">reforming</text><text fill="#000000" fill-opacity="1" font-family="Arial,Arial_MSFontService,sans-serif" font-style="normal" font-variant="normal" font-weight="400" font-stretch="normal" font-size="31" text-anchor="start" direction="ltr" writing-mode="lr-tb" unicode-bidi="normal" text-decoration="none" transform="matrix(1 0 0 1 53.6968 511)">Operation: </text><text fill="#000000" fill-opacity="1" font-family="Cambria Math,Cambria Math_MSFontService,sans-serif" font-style="normal" font-variant="normal" font-weight="400" font-stretch="normal" font-size="31" text-anchor="start" direction="ltr" writing-mode="lr-tb" unicode-bidi="normal" text-decoration="none" transform="matrix(1 0 0 1 206.666 511)">ğ›¿</text><text fill="#000000" fill-opacity="1" font-family="Cambria Math,Cambria Math_MSFontService,sans-serif" font-style="normal" font-variant="normal" font-weight="400" font-stretch="normal" font-size="31" text-anchor="start" direction="ltr" writing-mode="lr-tb" unicode-bidi="normal" text-decoration="none" transform="matrix(1 0 0 1 232.997 511)">âˆˆ</text><path d="M334.802 487.862 341.553 487.862 341.553 516.727 334.802 516.727 334.802 515.562 339.04 515.562 339.04 489.027 334.802 489.027ZM263.879 487.862 270.63 487.862 270.63 489.027 266.392 489.027 266.392 515.562 270.63 515.562 270.63 516.727 263.879 516.727Z" fill="#000000" fill-rule="evenodd" fill-opacity="1"/><text fill="#000000" fill-opacity="1" font-family="Cambria Math,Cambria Math_MSFontService,sans-serif" font-style="normal" font-variant="normal" font-weight="400" font-stretch="normal" font-size="31" text-anchor="start" direction="ltr" writing-mode="lr-tb" unicode-bidi="normal" text-decoration="none" transform="matrix(1 0 0 1 271.176 511)">0</text><text fill="#000000" fill-opacity="1" font-family="Cambria Math,Cambria Math_MSFontService,sans-serif" font-style="normal" font-variant="normal" font-weight="400" font-stretch="normal" font-size="31" text-anchor="start" direction="ltr" writing-mode="lr-tb" unicode-bidi="normal" text-decoration="none" transform="matrix(1 0 0 1 288.363 511)">,</text><text fill="#000000" fill-opacity="1" font-family="Cambria Math,Cambria Math_MSFontService,sans-serif" font-style="normal" font-variant="normal" font-weight="400" font-stretch="normal" font-size="31" text-anchor="start" direction="ltr" writing-mode="lr-tb" unicode-bidi="normal" text-decoration="none" transform="matrix(1 0 0 1 299.776 511)">2</text><text fill="#000000" fill-opacity="1" font-family="Cambria Math,Cambria Math_MSFontService,sans-serif" font-style="normal" font-variant="normal" font-weight="400" font-stretch="normal" font-size="31" text-anchor="start" direction="ltr" writing-mode="lr-tb" unicode-bidi="normal" text-decoration="none" transform="matrix(1 0 0 1 316.963 511)">5</text><text fill="#000000" fill-opacity="1" font-family="Arial,Arial_MSFontService,sans-serif" font-style="normal" font-variant="normal" font-weight="400" font-stretch="normal" font-size="31" text-anchor="start" direction="ltr" writing-mode="lr-tb" unicode-bidi="normal" text-decoration="none" transform="matrix(1 0 0 1 53.6968 548)">Construction: </text><text fill="#000000" fill-opacity="1" font-family="Cambria Math,Cambria Math_MSFontService,sans-serif" font-style="normal" font-variant="normal" font-weight="400" font-stretch="normal" font-size="31" text-anchor="start" direction="ltr" writing-mode="lr-tb" unicode-bidi="normal" text-decoration="none" transform="matrix(1 0 0 1 244.478 548)">ğ›¿</text><text fill="#000000" fill-opacity="1" font-family="Cambria Math,Cambria Math_MSFontService,sans-serif" font-style="normal" font-variant="normal" font-weight="400" font-stretch="normal" font-size="31" text-anchor="start" direction="ltr" writing-mode="lr-tb" unicode-bidi="normal" text-decoration="none" transform="matrix(1 0 0 1 270.809 548)">=</text><text fill="#000000" fill-opacity="1" font-family="Cambria Math,Cambria Math_MSFontService,sans-serif" font-style="normal" font-variant="normal" font-weight="400" font-stretch="normal" font-size="31" text-anchor="start" direction="ltr" writing-mode="lr-tb" unicode-bidi="normal" text-decoration="none" transform="matrix(1 0 0 1 302.251 548)">0</text><text fill="#000000" fill-opacity="1" font-family="Arial,Arial_MSFontService,sans-serif" font-style="normal" font-variant="normal" font-weight="400" font-stretch="normal" font-size="31" text-anchor="start" direction="ltr" writing-mode="lr-tb" unicode-bidi="normal" text-decoration="none" transform="matrix(1 0 0 1 53.6968 585)">End of Life: </text><text fill="#000000" fill-opacity="1" font-family="Cambria Math,Cambria Math_MSFontService,sans-serif" font-style="normal" font-variant="normal" font-weight="400" font-stretch="normal" font-size="31" text-anchor="start" direction="ltr" writing-mode="lr-tb" unicode-bidi="normal" text-decoration="none" transform="matrix(1 0 0 1 218.697 585)">ğ›¿</text><text fill="#000000" fill-opacity="1" font-family="Cambria Math,Cambria Math_MSFontService,sans-serif" font-style="normal" font-variant="normal" font-weight="400" font-stretch="normal" font-size="31" text-anchor="start" direction="ltr" writing-mode="lr-tb" unicode-bidi="normal" text-decoration="none" transform="matrix(1 0 0 1 245.028 585)">=</text><text fill="#000000" fill-opacity="1" font-family="Cambria Math,Cambria Math_MSFontService,sans-serif" font-style="normal" font-variant="normal" font-weight="400" font-stretch="normal" font-size="31" text-anchor="start" direction="ltr" writing-mode="lr-tb" unicode-bidi="normal" text-decoration="none" transform="matrix(1 0 0 1 276.47 585)">26</text><path d="M1896.5 387.501C1896.5 379.216 1903.22 372.5 1911.5 372.5L2271.5 372.5C2279.78 372.5 2286.5 379.216 2286.5 387.501L2286.5 589.499C2286.5 597.784 2279.78 604.5 2271.5 604.5L1911.5 604.5C1903.22 604.5 1896.5 597.784 1896.5 589.499Z" stroke="#000000" stroke-width="4.58333" stroke-linecap="butt" stroke-linejoin="miter" stroke-miterlimit="8" stroke-opacity="1" fill="none" fill-rule="evenodd"/><text fill="#000000" fill-opacity="1" font-family="Arial,Arial_MSFontService,sans-serif" font-style="normal" font-variant="normal" font-weight="700" font-stretch="normal" font-size="37" text-anchor="start" direction="ltr" writing-mode="lr-tb" unicode-bidi="normal" text-decoration="none" transform="matrix(1 0 0 1 1917.95 420)">Blast furnace</text><text fill="#000000" fill-opacity="1" font-family="Arial,Arial_MSFontService,sans-serif" font-style="normal" font-variant="normal" font-weight="400" font-stretch="normal" font-size="31" text-anchor="start" direction="ltr" writing-mode="lr-tb" unicode-bidi="normal" text-decoration="none" transform="matrix(1 0 0 1 1917.95 511)">Operation: </text><text fill="#000000" fill-opacity="1" font-family="Cambria Math,Cambria Math_MSFontService,sans-serif" font-style="normal" font-variant="normal" font-weight="400" font-stretch="normal" font-size="31" text-anchor="start" direction="ltr" writing-mode="lr-tb" unicode-bidi="normal" text-decoration="none" transform="matrix(1 0 0 1 2070.92 511)">ğ›¿</text><text fill="#000000" fill-opacity="1" font-family="Cambria Math,Cambria Math_MSFontService,sans-serif" font-style="normal" font-variant="normal" font-weight="400" font-stretch="normal" font-size="31" text-anchor="start" direction="ltr" writing-mode="lr-tb" unicode-bidi="normal" text-decoration="none" transform="matrix(1 0 0 1 2097.25 511)">âˆˆ</text><path d="M2199.05 487.862 2205.81 487.862 2205.81 516.727 2199.05 516.727 2199.05 515.562 2203.29 515.562 2203.29 489.027 2199.05 489.027ZM2128.13 487.862 2134.88 487.862 2134.88 489.027 2130.64 489.027 2130.64 515.562 2134.88 515.562 2134.88 516.727 2128.13 516.727Z" fill="#000000" fill-rule="evenodd" fill-opacity="1"/><text fill="#000000" fill-opacity="1" font-family="Cambria Math,Cambria Math_MSFontService,sans-serif" font-style="normal" font-variant="normal" font-weight="400" font-stretch="normal" font-size="31" text-anchor="start" direction="ltr" writing-mode="lr-tb" unicode-bidi="normal" text-decoration="none" transform="matrix(1 0 0 1 2135.43 511)">0</text><text fill="#000000" fill-opacity="1" font-family="Cambria Math,Cambria Math_MSFontService,sans-serif" font-style="normal" font-variant="normal" font-weight="400" font-stretch="normal" font-size="31" text-anchor="start" direction="ltr" writing-mode="lr-tb" unicode-bidi="normal" text-decoration="none" transform="matrix(1 0 0 1 2152.62 511)">,</text><text fill="#000000" fill-opacity="1" font-family="Cambria Math,Cambria Math_MSFontService,sans-serif" font-style="normal" font-variant="normal" font-weight="400" font-stretch="normal" font-size="31" text-anchor="start" direction="ltr" writing-mode="lr-tb" unicode-bidi="normal" text-decoration="none" transform="matrix(1 0 0 1 2164.03 511)">20</text><text fill="#000000" fill-opacity="1" font-family="Arial,Arial_MSFontService,sans-serif" font-style="normal" font-variant="normal" font-weight="400" font-stretch="normal" font-size="31" text-anchor="start" direction="ltr" writing-mode="lr-tb" unicode-bidi="normal" text-decoration="none" transform="matrix(1 0 0 1 1917.95 548)">Construction: </text><text fill="#000000" fill-opacity="1" font-family="Cambria Math,Cambria Math_MSFontService,sans-serif" font-style="normal" font-variant="normal" font-weight="400" font-stretch="normal" font-size="31" text-anchor="start" direction="ltr" writing-mode="lr-tb" unicode-bidi="normal" text-decoration="none" transform="matrix(1 0 0 1 2108.73 548)">ğ›¿</text><text fill="#000000" fill-opacity="1" font-family="Cambria Math,Cambria Math_MSFontService,sans-serif" font-style="normal" font-variant="normal" font-weight="400" font-stretch="normal" font-size="31" text-anchor="start" direction="ltr" writing-mode="lr-tb" unicode-bidi="normal" text-decoration="none" transform="matrix(1 0 0 1 2135.06 548)">=</text><text fill="#000000" fill-opacity="1" font-family="Cambria Math,Cambria Math_MSFontService,sans-serif" font-style="normal" font-variant="normal" font-weight="400" font-stretch="normal" font-size="31" text-anchor="start" direction="ltr" writing-mode="lr-tb" unicode-bidi="normal" text-decoration="none" transform="matrix(1 0 0 1 2166.5 548)">0</text><text fill="#000000" fill-opacity="1" font-family="Arial,Arial_MSFontService,sans-serif" font-style="normal" font-variant="normal" font-weight="400" font-stretch="normal" font-size="31" text-anchor="start" direction="ltr" writing-mode="lr-tb" unicode-bidi="normal" text-decoration="none" transform="matrix(1 0 0 1 1917.95 585)">End of Life: </text><text fill="#000000" fill-opacity="1" font-family="Cambria Math,Cambria Math_MSFontService,sans-serif" font-style="normal" font-variant="normal" font-weight="400" font-stretch="normal" font-size="31" text-anchor="start" direction="ltr" writing-mode="lr-tb" unicode-bidi="normal" text-decoration="none" transform="matrix(1 0 0 1 2082.95 585)">ğ›¿</text><text fill="#000000" fill-opacity="1" font-family="Cambria Math,Cambria Math_MSFontService,sans-serif" font-style="normal" font-variant="normal" font-weight="400" font-stretch="normal" font-size="31" text-anchor="start" direction="ltr" writing-mode="lr-tb" unicode-bidi="normal" text-decoration="none" transform="matrix(1 0 0 1 2109.28 585)">=</text><text fill="#000000" fill-opacity="1" font-family="Cambria Math,Cambria Math_MSFontService,sans-serif" font-style="normal" font-variant="normal" font-weight="400" font-stretch="normal" font-size="31" text-anchor="start" direction="ltr" writing-mode="lr-tb" unicode-bidi="normal" text-decoration="none" transform="matrix(1 0 0 1 2140.72 585)">21</text><path d="M640.5 912.372C640.5 904.158 647.158 897.5 655.372 897.5L1014.63 897.5C1022.84 897.5 1029.5 904.158 1029.5 912.372L1029.5 1112.63C1029.5 1120.84 1022.84 1127.5 1014.63 1127.5L655.372 1127.5C647.158 1127.5 640.5 1120.84 640.5 1112.63Z" stroke="#000000" stroke-width="4.58333" stroke-linecap="butt" stroke-linejoin="miter" stroke-miterlimit="8" stroke-opacity="1" fill="none" fill-rule="evenodd"/><text fill="#000000" fill-opacity="1" font-family="Arial,Arial_MSFontService,sans-serif" font-style="normal" font-variant="normal" font-weight="700" font-stretch="normal" font-size="37" text-anchor="start" direction="ltr" writing-mode="lr-tb" unicode-bidi="normal" text-decoration="none" transform="matrix(1 0 0 1 661.418 944)">Carbon dioxide </text><text fill="#000000" fill-opacity="1" font-family="Arial,Arial_MSFontService,sans-serif" font-style="normal" font-variant="normal" font-weight="700" font-stretch="normal" font-size="37" text-anchor="start" direction="ltr" writing-mode="lr-tb" unicode-bidi="normal" text-decoration="none" transform="matrix(1 0 0 1 661.418 988)">hydrogenation</text><text fill="#000000" fill-opacity="1" font-family="Arial,Arial_MSFontService,sans-serif" font-style="normal" font-variant="normal" font-weight="400" font-stretch="normal" font-size="31" text-anchor="start" direction="ltr" writing-mode="lr-tb" unicode-bidi="normal" text-decoration="none" transform="matrix(1 0 0 1 661.418 1035)">Operation: </text><text fill="#000000" fill-opacity="1" font-family="Cambria Math,Cambria Math_MSFontService,sans-serif" font-style="normal" font-variant="normal" font-weight="400" font-stretch="normal" font-size="31" text-anchor="start" direction="ltr" writing-mode="lr-tb" unicode-bidi="normal" text-decoration="none" transform="matrix(1 0 0 1 814.386 1035)">ğ›¿</text><text fill="#000000" fill-opacity="1" font-family="Cambria Math,Cambria Math_MSFontService,sans-serif" font-style="normal" font-variant="normal" font-weight="400" font-stretch="normal" font-size="31" text-anchor="start" direction="ltr" writing-mode="lr-tb" unicode-bidi="normal" text-decoration="none" transform="matrix(1 0 0 1 840.718 1035)">âˆˆ</text><path d="M942.523 1011.83 949.274 1011.83 949.274 1040.7 942.523 1040.7 942.523 1039.53 946.761 1039.53 946.761 1013 942.523 1013ZM871.6 1011.83 878.351 1011.83 878.351 1013 874.113 1013 874.113 1039.53 878.351 1039.53 878.351 1040.7 871.6 1040.7Z" fill="#000000" fill-rule="evenodd" fill-opacity="1"/><text fill="#000000" fill-opacity="1" font-family="Cambria Math,Cambria Math_MSFontService,sans-serif" font-style="normal" font-variant="normal" font-weight="400" font-stretch="normal" font-size="31" text-anchor="start" direction="ltr" writing-mode="lr-tb" unicode-bidi="normal" text-decoration="none" transform="matrix(1 0 0 1 878.897 1035)">0</text><text fill="#000000" fill-opacity="1" font-family="Cambria Math,Cambria Math_MSFontService,sans-serif" font-style="normal" font-variant="normal" font-weight="400" font-stretch="normal" font-size="31" text-anchor="start" direction="ltr" writing-mode="lr-tb" unicode-bidi="normal" text-decoration="none" transform="matrix(1 0 0 1 896.084 1035)">,</text><text fill="#000000" fill-opacity="1" font-family="Cambria Math,Cambria Math_MSFontService,sans-serif" font-style="normal" font-variant="normal" font-weight="400" font-stretch="normal" font-size="31" text-anchor="start" direction="ltr" writing-mode="lr-tb" unicode-bidi="normal" text-decoration="none" transform="matrix(1 0 0 1 907.497 1035)">1</text><text fill="#000000" fill-opacity="1" font-family="Cambria Math,Cambria Math_MSFontService,sans-serif" font-style="normal" font-variant="normal" font-weight="400" font-stretch="normal" font-size="31" text-anchor="start" direction="ltr" writing-mode="lr-tb" unicode-bidi="normal" text-decoration="none" transform="matrix(1 0 0 1 924.684 1035)">5</text><text fill="#000000" fill-opacity="1" font-family="Arial,Arial_MSFontService,sans-serif" font-style="normal" font-variant="normal" font-weight="400" font-stretch="normal" font-size="31" text-anchor="start" direction="ltr" writing-mode="lr-tb" unicode-bidi="normal" text-decoration="none" transform="matrix(1 0 0 1 661.418 1072)">Construction: </text><text fill="#000000" fill-opacity="1" font-family="Cambria Math,Cambria Math_MSFontService,sans-serif" font-style="normal" font-variant="normal" font-weight="400" font-stretch="normal" font-size="31" text-anchor="start" direction="ltr" writing-mode="lr-tb" unicode-bidi="normal" text-decoration="none" transform="matrix(1 0 0 1 852.199 1072)">ğ›¿</text><text fill="#000000" fill-opacity="1" font-family="Cambria Math,Cambria Math_MSFontService,sans-serif" font-style="normal" font-variant="normal" font-weight="400" font-stretch="normal" font-size="31" text-anchor="start" direction="ltr" writing-mode="lr-tb" unicode-bidi="normal" text-decoration="none" transform="matrix(1 0 0 1 878.53 1072)">=</text><text fill="#000000" fill-opacity="1" font-family="Cambria Math,Cambria Math_MSFontService,sans-serif" font-style="normal" font-variant="normal" font-weight="400" font-stretch="normal" font-size="31" text-anchor="start" direction="ltr" writing-mode="lr-tb" unicode-bidi="normal" text-decoration="none" transform="matrix(1 0 0 1 909.972 1072)">0</text><text fill="#000000" fill-opacity="1" font-family="Arial,Arial_MSFontService,sans-serif" font-style="normal" font-variant="normal" font-weight="400" font-stretch="normal" font-size="31" text-anchor="start" direction="ltr" writing-mode="lr-tb" unicode-bidi="normal" text-decoration="none" transform="matrix(1 0 0 1 661.418 1109)">End of Life: </text><text fill="#000000" fill-opacity="1" font-family="Cambria Math,Cambria Math_MSFontService,sans-serif" font-style="normal" font-variant="normal" font-weight="400" font-stretch="normal" font-size="31" text-anchor="start" direction="ltr" writing-mode="lr-tb" unicode-bidi="normal" text-decoration="none" transform="matrix(1 0 0 1 826.418 1109)">ğ›¿</text><text fill="#000000" fill-opacity="1" font-family="Cambria Math,Cambria Math_MSFontService,sans-serif" font-style="normal" font-variant="normal" font-weight="400" font-stretch="normal" font-size="31" text-anchor="start" direction="ltr" writing-mode="lr-tb" unicode-bidi="normal" text-decoration="none" transform="matrix(1 0 0 1 852.749 1109)">=</text><text fill="#000000" fill-opacity="1" font-family="Cambria Math,Cambria Math_MSFontService,sans-serif" font-style="normal" font-variant="normal" font-weight="400" font-stretch="normal" font-size="31" text-anchor="start" direction="ltr" writing-mode="lr-tb" unicode-bidi="normal" text-decoration="none" transform="matrix(1 0 0 1 884.19 1109)">16</text><path d="M725.5 1236.45C725.5 1229.3 731.296 1223.5 738.446 1223.5L931.554 1223.5C938.704 1223.5 944.5 1229.3 944.5 1236.45L944.5 1312.55C944.5 1319.7 938.704 1325.5 931.554 1325.5L738.446 1325.5C731.296 1325.5 725.5 1319.7 725.5 1312.55Z" stroke="#F2F2F2" stroke-width="4.58333" stroke-linecap="butt" stroke-linejoin="miter" stroke-miterlimit="8" stroke-opacity="1" fill="#F2F2F2" fill-rule="evenodd" fill-opacity="1"/><text fill="#000000" fill-opacity="1" font-family="Arial,Arial_MSFontService,sans-serif" font-style="normal" font-variant="normal" font-weight="700" font-stretch="normal" font-size="37" text-anchor="start" direction="ltr" writing-mode="lr-tb" unicode-bidi="normal" text-decoration="none" transform="matrix(1 0 0 1 754.122 1288)">Methanol</text><path d="M1106.5 912.372C1106.5 904.158 1113.16 897.5 1121.37 897.5L1481.63 897.5C1489.84 897.5 1496.5 904.158 1496.5 912.372L1496.5 1112.63C1496.5 1120.84 1489.84 1127.5 1481.63 1127.5L1121.37 1127.5C1113.16 1127.5 1106.5 1120.84 1106.5 1112.63Z" stroke="#000000" stroke-width="4.58333" stroke-linecap="butt" stroke-linejoin="miter" stroke-miterlimit="8" stroke-opacity="1" fill="none" fill-rule="evenodd"/><text fill="#000000" fill-opacity="1" font-family="Arial,Arial_MSFontService,sans-serif" font-style="normal" font-variant="normal" font-weight="700" font-stretch="normal" font-size="37" text-anchor="start" direction="ltr" writing-mode="lr-tb" unicode-bidi="normal" text-decoration="none" transform="matrix(1 0 0 1 1127.47 944)">Direct reduction </text><text fill="#000000" fill-opacity="1" font-family="Arial,Arial_MSFontService,sans-serif" font-style="normal" font-variant="normal" font-weight="700" font-stretch="normal" font-size="37" text-anchor="start" direction="ltr" writing-mode="lr-tb" unicode-bidi="normal" text-decoration="none" transform="matrix(1 0 0 1 1127.47 988)">of iron</text><text fill="#000000" fill-opacity="1" font-family="Arial,Arial_MSFontService,sans-serif" font-style="normal" font-variant="normal" font-weight="400" font-stretch="normal" font-size="31" text-anchor="start" direction="ltr" writing-mode="lr-tb" unicode-bidi="normal" text-decoration="none" transform="matrix(1 0 0 1 1127.47 1035)">Operation: </text><text fill="#000000" fill-opacity="1" font-family="Cambria Math,Cambria Math_MSFontService,sans-serif" font-style="normal" font-variant="normal" font-weight="400" font-stretch="normal" font-size="31" text-anchor="start" direction="ltr" writing-mode="lr-tb" unicode-bidi="normal" text-decoration="none" transform="matrix(1 0 0 1 1280.44 1035)">ğ›¿</text><text fill="#000000" fill-opacity="1" font-family="Cambria Math,Cambria Math_MSFontService,sans-serif" font-style="normal" font-variant="normal" font-weight="400" font-stretch="normal" font-size="31" text-anchor="start" direction="ltr" writing-mode="lr-tb" unicode-bidi="normal" text-decoration="none" transform="matrix(1 0 0 1 1306.77 1035)">âˆˆ</text><path d="M1408.57 1011.83 1415.32 1011.83 1415.32 1040.7 1408.57 1040.7 1408.57 1039.53 1412.81 1039.53 1412.81 1013 1408.57 1013ZM1337.65 1011.83 1344.4 1011.83 1344.4 1013 1340.16 1013 1340.16 1039.53 1344.4 1039.53 1344.4 1040.7 1337.65 1040.7Z" fill="#000000" fill-rule="evenodd" fill-opacity="1"/><text fill="#000000" fill-opacity="1" font-family="Cambria Math,Cambria Math_MSFontService,sans-serif" font-style="normal" font-variant="normal" font-weight="400" font-stretch="normal" font-size="31" text-anchor="start" direction="ltr" writing-mode="lr-tb" unicode-bidi="normal" text-decoration="none" transform="matrix(1 0 0 1 1344.95 1035)">0</text><text fill="#000000" fill-opacity="1" font-family="Cambria Math,Cambria Math_MSFontService,sans-serif" font-style="normal" font-variant="normal" font-weight="400" font-stretch="normal" font-size="31" text-anchor="start" direction="ltr" writing-mode="lr-tb" unicode-bidi="normal" text-decoration="none" transform="matrix(1 0 0 1 1362.13 1035)">,</text><text fill="#000000" fill-opacity="1" font-family="Cambria Math,Cambria Math_MSFontService,sans-serif" font-style="normal" font-variant="normal" font-weight="400" font-stretch="normal" font-size="31" text-anchor="start" direction="ltr" writing-mode="lr-tb" unicode-bidi="normal" text-decoration="none" transform="matrix(1 0 0 1 1373.55 1035)">20</text><text fill="#000000" fill-opacity="1" font-family="Arial,Arial_MSFontService,sans-serif" font-style="normal" font-variant="normal" font-weight="400" font-stretch="normal" font-size="31" text-anchor="start" direction="ltr" writing-mode="lr-tb" unicode-bidi="normal" text-decoration="none" transform="matrix(1 0 0 1 1127.47 1072)">Construction: </text><text fill="#000000" fill-opacity="1" font-family="Cambria Math,Cambria Math_MSFontService,sans-serif" font-style="normal" font-variant="normal" font-weight="400" font-stretch="normal" font-size="31" text-anchor="start" direction="ltr" writing-mode="lr-tb" unicode-bidi="normal" text-decoration="none" transform="matrix(1 0 0 1 1318.25 1072)">ğ›¿</text><text fill="#000000" fill-opacity="1" font-family="Cambria Math,Cambria Math_MSFontService,sans-serif" font-style="normal" font-variant="normal" font-weight="400" font-stretch="normal" font-size="31" text-anchor="start" direction="ltr" writing-mode="lr-tb" unicode-bidi="normal" text-decoration="none" transform="matrix(1 0 0 1 1344.58 1072)">=</text><text fill="#000000" fill-opacity="1" font-family="Cambria Math,Cambria Math_MSFontService,sans-serif" font-style="normal" font-variant="normal" font-weight="400" font-stretch="normal" font-size="31" text-anchor="start" direction="ltr" writing-mode="lr-tb" unicode-bidi="normal" text-decoration="none" transform="matrix(1 0 0 1 1376.02 1072)">0</text><text fill="#000000" fill-opacity="1" font-family="Arial,Arial_MSFontService,sans-serif" font-style="normal" font-variant="normal" font-weight="400" font-stretch="normal" font-size="31" text-anchor="start" direction="ltr" writing-mode="lr-tb" unicode-bidi="normal" text-decoration="none" transform="matrix(1 0 0 1 1127.47 1109)">End of Life: </text><text fill="#000000" fill-opacity="1" font-family="Cambria Math,Cambria Math_MSFontService,sans-serif" font-style="normal" font-variant="normal" font-weight="400" font-stretch="normal" font-size="31" text-anchor="start" direction="ltr" writing-mode="lr-tb" unicode-bidi="normal" text-decoration="none" transform="matrix(1 0 0 1 1292.47 1109)">ğ›¿</text><text fill="#000000" fill-opacity="1" font-family="Cambria Math,Cambria Math_MSFontService,sans-serif" font-style="normal" font-variant="normal" font-weight="400" font-stretch="normal" font-size="31" text-anchor="start" direction="ltr" writing-mode="lr-tb" unicode-bidi="normal" text-decoration="none" transform="matrix(1 0 0 1 1318.8 1109)">=</text><text fill="#000000" fill-opacity="1" font-family="Cambria Math,Cambria Math_MSFontService,sans-serif" font-style="normal" font-variant="normal" font-weight="400" font-stretch="normal" font-size="31" text-anchor="start" direction="ltr" writing-mode="lr-tb" unicode-bidi="normal" text-decoration="none" transform="matrix(1 0 0 1 1350.24 1109)">21</text><path d="M1049.5 712.446C1049.5 705.296 1055.3 699.5 1062.45 699.5L1256.55 699.5C1263.7 699.5 1269.5 705.296 1269.5 712.446L1269.5 788.554C1269.5 795.704 1263.7 801.5 1256.55 801.5L1062.45 801.5C1055.3 801.5 1049.5 795.704 1049.5 788.554Z" stroke="#F2F2F2" stroke-width="4.58333" stroke-linecap="butt" stroke-linejoin="miter" stroke-miterlimit="8" stroke-opacity="1" fill="#F2F2F2" fill-rule="evenodd" fill-opacity="1"/><text fill="#000000" fill-opacity="1" font-family="Arial,Arial_MSFontService,sans-serif" font-style="normal" font-variant="normal" font-weight="700" font-stretch="normal" font-size="37" text-anchor="start" direction="ltr" writing-mode="lr-tb" unicode-bidi="normal" text-decoration="none" transform="matrix(1 0 0 1 1073.35 764)">Hydrogen</text><path d="M583.5 712.446C583.5 705.296 589.296 699.5 596.446 699.5L790.554 699.5C797.704 699.5 803.5 705.296 803.5 712.446L803.5 788.554C803.5 795.704 797.704 801.5 790.554 801.5L596.446 801.5C589.296 801.5 583.5 795.704 583.5 788.554Z" stroke="#F2F2F2" stroke-width="4.58333" stroke-linecap="butt" stroke-linejoin="miter" stroke-miterlimit="8" stroke-opacity="1" fill="#F2F2F2" fill-rule="evenodd" fill-opacity="1"/><text fill="#000000" fill-opacity="1" font-family="Arial,Arial_MSFontService,sans-serif" font-style="normal" font-variant="normal" font-weight="700" font-stretch="normal" font-size="37" text-anchor="start" direction="ltr" writing-mode="lr-tb" unicode-bidi="normal" text-decoration="none" transform="matrix(1 0 0 1 628.768 742)">C</text><text fill="#000000" fill-opacity="1" font-family="Arial,Arial_MSFontService,sans-serif" font-style="normal" font-variant="normal" font-weight="700" font-stretch="normal" font-size="37" text-anchor="start" direction="ltr" writing-mode="lr-tb" unicode-bidi="normal" text-decoration="none" transform="matrix(1 0 0 1 655.122 742)">arbon </text><text fill="#000000" fill-opacity="1" font-family="Arial,Arial_MSFontService,sans-serif" font-style="normal" font-variant="normal" font-weight="700" font-stretch="normal" font-size="37" text-anchor="start" direction="ltr" writing-mode="lr-tb" unicode-bidi="normal" text-decoration="none" transform="matrix(1 0 0 1 628.493 786)">dioxide</text><path d="M87.7918 314.5 87.7918 323.667C87.7918 324.932 86.7658 325.958 85.5002 325.958 84.2345 325.958 83.2085 324.932 83.2085 323.667L83.2084 314.5C83.2084 313.234 84.2344 312.208 85.5001 312.208 86.7657 312.208 87.7918 313.234 87.7918 314.5ZM87.7919 332.833 87.7919 342C87.7919 343.266 86.7659 344.292 85.5003 344.292 84.2346 344.292 83.2086 343.266 83.2086 342L83.2085 332.833C83.2085 331.568 84.2346 330.542 85.5002 330.542 86.7659 330.542 87.7919 331.568 87.7919 332.833ZM87.792 351.167 87.7921 360.333C87.7921 361.599 86.7661 362.625 85.5004 362.625 84.2347 362.625 83.2087 361.599 83.2087 360.333L83.2087 351.167C83.2087 349.901 84.2347 348.875 85.5003 348.875 86.766 348.875 87.792 349.901 87.792 351.167ZM98.902 350.56 85.5005 372.003 72.0987 350.56C71.4279 349.487 71.7541 348.073 72.8274 347.402 73.9007 346.732 75.3145 347.058 75.9853 348.131L87.4438 366.464 83.5571 366.464 95.0153 348.131C95.6861 347.058 97.0999 346.731 98.1732 347.402 99.2465 348.073 99.5728 349.487 98.902 350.56Z" fill="#595959" fill-rule="nonzero" fill-opacity="1"/><path d="M158.792 314.5 158.792 323.667C158.792 324.932 157.766 325.958 156.5 325.958 155.234 325.958 154.208 324.932 154.208 323.667L154.208 314.5C154.208 313.234 155.234 312.208 156.5 312.208 157.766 312.208 158.792 313.234 158.792 314.5ZM158.792 332.833 158.792 342C158.792 343.266 157.766 344.292 156.5 344.292 155.234 344.292 154.208 343.266 154.208 342L154.208 332.833C154.208 331.568 155.234 330.542 156.5 330.542 157.766 330.542 158.792 331.568 158.792 332.833ZM158.792 351.167 158.792 360.333C158.792 361.599 157.766 362.625 156.5 362.625 155.235 362.625 154.209 361.599 154.209 360.333L154.208 351.167C154.208 349.901 155.234 348.875 156.5 348.875 157.766 348.875 158.792 349.901 158.792 351.167ZM169.902 350.56 156.5 372.003 143.098 350.56C142.428 349.487 142.754 348.073 143.827 347.402 144.9 346.732 146.314 347.058 146.985 348.131L158.444 366.464 154.557 366.464 166.015 348.131C166.686 347.058 168.1 346.731 169.173 347.402 170.246 348.073 170.573 349.487 169.902 350.56Z" fill="#595959" fill-rule="nonzero" fill-opacity="1"/><path d="M229.792 314.5 229.792 323.667C229.792 324.932 228.766 325.958 227.5 325.958 226.234 325.958 225.208 324.932 225.208 323.667L225.208 314.5C225.208 313.234 226.234 312.208 227.5 312.208 228.766 312.208 229.792 313.234 229.792 314.5ZM229.792 332.833 229.792 342C229.792 343.266 228.766 344.292 227.5 344.292 226.235 344.292 225.209 343.266 225.209 342L225.209 332.833C225.208 331.568 226.235 330.542 227.5 330.542 228.766 330.542 229.792 331.568 229.792 332.833ZM229.792 351.167 229.792 360.333C229.792 361.599 228.766 362.625 227.5 362.625 226.235 362.625 225.209 361.599 225.209 360.333L225.209 351.167C225.209 349.901 226.235 348.875 227.5 348.875 228.766 348.875 229.792 349.901 229.792 351.167ZM240.902 350.56 227.5 372.003 214.099 350.56C213.428 349.487 213.754 348.073 214.827 347.402 215.901 346.732 217.314 347.058 217.985 348.131L229.444 366.464 225.557 366.464 237.015 348.131C237.686 347.058 239.1 346.731 240.173 347.402 241.246 348.073 241.573 349.487 240.902 350.56Z" fill="#595959" fill-rule="nonzero" fill-opacity="1"/><path d="M300.792 314.5 300.792 323.667C300.792 324.932 299.766 325.958 298.5 325.958 297.234 325.958 296.208 324.932 296.208 323.667L296.208 314.5C296.208 313.234 297.234 312.208 298.5 312.208 299.766 312.208 300.792 313.234 300.792 314.5ZM300.792 332.833 300.792 342C300.792 343.266 299.766 344.292 298.5 344.292 297.234 344.292 296.208 343.266 296.208 342L296.208 332.833C296.208 331.568 297.234 330.542 298.5 330.542 299.766 330.542 300.792 331.568 300.792 332.833ZM300.792 351.167 300.792 360.333C300.792 361.599 299.766 362.625 298.5 362.625 297.235 362.625 296.208 361.599 296.208 360.333L296.208 351.167C296.208 349.901 297.234 348.875 298.5 348.875 299.766 348.875 300.792 349.901 300.792 351.167ZM311.902 350.56 298.5 372.003 285.098 350.56C284.428 349.487 284.754 348.073 285.827 347.402 286.9 346.732 288.314 347.058 288.985 348.131L300.444 366.464 296.557 366.464 308.015 348.131C308.686 347.058 310.1 346.731 311.173 347.402 312.246 348.073 312.573 349.487 311.902 350.56Z" fill="#595959" fill-rule="nonzero" fill-opacity="1"/><path d="M371.792 314.5 371.792 323.667C371.792 324.932 370.766 325.958 369.5 325.958 368.234 325.958 367.208 324.932 367.208 323.667L367.208 314.5C367.208 313.234 368.234 312.208 369.5 312.208 370.766 312.208 371.792 313.234 371.792 314.5ZM371.792 332.833 371.792 342C371.792 343.266 370.766 344.292 369.5 344.292 368.235 344.292 367.209 343.266 367.209 342L367.208 332.833C367.208 331.568 368.234 330.542 369.5 330.542 370.766 330.542 371.792 331.568 371.792 332.833ZM371.792 351.167 371.792 360.333C371.792 361.599 370.766 362.625 369.5 362.625 368.235 362.625 367.209 361.599 367.209 360.333L367.209 351.167C367.209 349.901 368.235 348.875 369.5 348.875 370.766 348.875 371.792 349.901 371.792 351.167ZM382.902 350.56 369.5 372.003 356.099 350.56C355.428 349.487 355.754 348.073 356.827 347.402 357.901 346.732 359.314 347.058 359.985 348.131L371.444 366.464 367.557 366.464 379.015 348.131C379.686 347.058 381.1 346.731 382.173 347.402 383.246 348.073 383.573 349.487 382.902 350.56Z" fill="#595959" fill-rule="nonzero" fill-opacity="1"/><path d="M553.792 314.5 553.792 323.667C553.792 324.932 552.766 325.958 551.5 325.958 550.234 325.958 549.208 324.932 549.208 323.667L549.208 314.5C549.208 313.234 550.234 312.208 551.5 312.208 552.766 312.208 553.792 313.234 553.792 314.5ZM553.792 332.833 553.792 342C553.792 343.266 552.766 344.292 551.5 344.292 550.234 344.292 549.208 343.266 549.208 342L549.208 332.833C549.208 331.568 550.234 330.542 551.5 330.542 552.766 330.542 553.792 331.568 553.792 332.833ZM553.792 351.167 553.792 360.333C553.792 361.599 552.766 362.625 551.5 362.625 550.234 362.625 549.208 361.599 549.208 360.333L549.208 351.167C549.208 349.901 550.234 348.875 551.5 348.875 552.766 348.875 553.792 349.901 553.792 351.167ZM564.902 350.56 551.5 372.003 538.098 350.56C537.428 349.487 537.754 348.073 538.827 347.402 539.9 346.732 541.314 347.058 541.985 348.131L553.444 366.464 549.557 366.464 561.015 348.131C561.686 347.058 563.1 346.731 564.173 347.402 565.246 348.073 565.573 349.487 564.902 350.56Z" fill="#595959" fill-rule="nonzero" fill-opacity="1"/><path d="M624.792 314.5 624.792 323.667C624.792 324.932 623.766 325.958 622.5 325.958 621.234 325.958 620.208 324.932 620.208 323.667L620.208 314.5C620.208 313.234 621.234 312.208 622.5 312.208 623.766 312.208 624.792 313.234 624.792 314.5ZM624.792 332.833 624.792 342C624.792 343.266 623.766 344.292 622.5 344.292 621.235 344.292 620.209 343.266 620.209 342L620.208 332.833C620.208 331.568 621.234 330.542 622.5 330.542 623.766 330.542 624.792 331.568 624.792 332.833ZM624.792 351.167 624.792 360.333C624.792 361.599 623.766 362.625 622.5 362.625 621.235 362.625 620.209 361.599 620.209 360.333L620.209 351.167C620.209 349.901 621.235 348.875 622.5 348.875 623.766 348.875 624.792 349.901 624.792 351.167ZM635.902 350.56 622.5 372.003 609.099 350.56C608.428 349.487 608.754 348.073 609.827 347.402 610.901 346.732 612.314 347.058 612.985 348.131L624.444 366.464 620.557 366.464 632.015 348.131C632.686 347.058 634.1 346.731 635.173 347.402 636.246 348.073 636.573 349.487 635.902 350.56Z" fill="#595959" fill-rule="nonzero" fill-opacity="1"/><path d="M695.792 314.5 695.792 323.667C695.792 324.932 694.766 325.958 693.5 325.958 692.234 325.958 691.208 324.932 691.208 323.667L691.208 314.5C691.208 313.234 692.234 312.208 693.5 312.208 694.765 312.208 695.792 313.234 695.792 314.5ZM695.792 332.833 695.792 342C695.792 343.266 694.766 344.292 693.5 344.292 692.234 344.292 691.208 343.266 691.208 342L691.208 332.833C691.208 331.568 692.234 330.542 693.5 330.542 694.766 330.542 695.792 331.568 695.792 332.833ZM695.792 351.167 695.792 360.333C695.792 361.599 694.766 362.625 693.5 362.625 692.234 362.625 691.208 361.599 691.208 360.333L691.208 351.167C691.208 349.901 692.234 348.875 693.5 348.875 694.766 348.875 695.792 349.901 695.792 351.167ZM706.902 350.56 693.5 372.003 680.098 350.56C679.428 349.487 679.754 348.073 680.827 347.402 681.9 346.732 683.314 347.058 683.985 348.131L695.443 366.464 691.557 366.464 703.015 348.131C703.686 347.058 705.1 346.731 706.173 347.402 707.246 348.073 707.573 349.487 706.902 350.56Z" fill="#595959" fill-rule="nonzero" fill-opacity="1"/><path d="M766.792 314.5 766.792 323.667C766.792 324.932 765.766 325.958 764.5 325.958 763.234 325.958 762.208 324.932 762.208 323.667L762.208 314.5C762.208 313.234 763.234 312.208 764.5 312.208 765.766 312.208 766.792 313.234 766.792 314.5ZM766.792 332.833 766.792 342C766.792 343.266 765.766 344.292 764.5 344.292 763.235 344.292 762.208 343.266 762.208 342L762.208 332.833C762.208 331.568 763.234 330.542 764.5 330.542 765.766 330.542 766.792 331.568 766.792 332.833ZM766.792 351.167 766.792 360.333C766.792 361.599 765.766 362.625 764.5 362.625 763.235 362.625 762.209 361.599 762.209 360.333L762.209 351.167C762.209 349.901 763.235 348.875 764.5 348.875 765.766 348.875 766.792 349.901 766.792 351.167ZM777.902 350.56 764.5 372.003 751.099 350.56C750.428 349.487 750.754 348.073 751.827 347.402 752.901 346.732 754.314 347.058 754.985 348.131L766.444 366.464 762.557 366.464 774.015 348.131C774.686 347.058 776.1 346.731 777.173 347.402 778.246 348.073 778.573 349.487 777.902 350.56Z" fill="#595959" fill-rule="nonzero" fill-opacity="1"/><path d="M837.792 314.5 837.792 323.667C837.792 324.932 836.766 325.958 835.5 325.958 834.235 325.958 833.209 324.932 833.209 323.667L833.208 314.5C833.208 313.234 834.234 312.208 835.5 312.208 836.766 312.208 837.792 313.234 837.792 314.5ZM837.792 332.833 837.792 342C837.792 343.266 836.766 344.292 835.5 344.292 834.235 344.292 833.209 343.266 833.209 342L833.209 332.833C833.209 331.568 834.235 330.542 835.5 330.542 836.766 330.542 837.792 331.568 837.792 332.833ZM837.792 351.167 837.792 360.333C837.792 361.599 836.766 362.625 835.5 362.625 834.235 362.625 833.209 361.599 833.209 360.333L833.209 351.167C833.209 349.901 834.235 348.875 835.5 348.875 836.766 348.875 837.792 349.901 837.792 351.167ZM848.902 350.56 835.501 372.003 822.099 350.56C821.428 349.487 821.754 348.073 822.827 347.402 823.901 346.732 825.315 347.058 825.985 348.131L837.444 366.464 833.557 366.464 845.015 348.131C845.686 347.058 847.1 346.731 848.173 347.402 849.247 348.073 849.573 349.487 848.902 350.56Z" fill="#595959" fill-rule="nonzero" fill-opacity="1"/><path d="M1019.79 314.5 1019.79 323.667C1019.79 324.932 1018.77 325.958 1017.5 325.958 1016.23 325.958 1015.21 324.932 1015.21 323.667L1015.21 314.5C1015.21 313.234 1016.23 312.208 1017.5 312.208 1018.77 312.208 1019.79 313.234 1019.79 314.5ZM1019.79 332.833 1019.79 342C1019.79 343.266 1018.77 344.292 1017.5 344.292 1016.23 344.292 1015.21 343.266 1015.21 342L1015.21 332.833C1015.21 331.568 1016.23 330.542 1017.5 330.542 1018.77 330.542 1019.79 331.568 1019.79 332.833ZM1019.79 351.167 1019.79 360.333C1019.79 361.599 1018.77 362.625 1017.5 362.625 1016.23 362.625 1015.21 361.599 1015.21 360.333L1015.21 351.167C1015.21 349.901 1016.23 348.875 1017.5 348.875 1018.77 348.875 1019.79 349.901 1019.79 351.167ZM1030.9 350.56 1017.5 372.003 1004.1 350.56C1003.43 349.487 1003.75 348.073 1004.83 347.402 1005.9 346.732 1007.31 347.058 1007.99 348.131L1019.44 366.464 1015.56 366.464 1027.02 348.131C1027.69 347.058 1029.1 346.731 1030.17 347.402 1031.25 348.073 1031.57 349.487 1030.9 350.56Z" fill="#595959" fill-rule="nonzero" fill-opacity="1"/><path d="M1090.79 314.5 1090.79 323.667C1090.79 324.932 1089.77 325.958 1088.5 325.958 1087.23 325.958 1086.21 324.932 1086.21 323.667L1086.21 314.5C1086.21 313.234 1087.23 312.208 1088.5 312.208 1089.77 312.208 1090.79 313.234 1090.79 314.5ZM1090.79 332.833 1090.79 342C1090.79 343.266 1089.77 344.292 1088.5 344.292 1087.23 344.292 1086.21 343.266 1086.21 342L1086.21 332.833C1086.21 331.568 1087.23 330.542 1088.5 330.542 1089.77 330.542 1090.79 331.568 1090.79 332.833ZM1090.79 351.167 1090.79 360.333C1090.79 361.599 1089.77 362.625 1088.5 362.625 1087.23 362.625 1086.21 361.599 1086.21 360.333L1086.21 351.167C1086.21 349.901 1087.23 348.875 1088.5 348.875 1089.77 348.875 1090.79 349.901 1090.79 351.167ZM1101.9 350.56 1088.5 372.003 1075.1 350.56C1074.43 349.487 1074.75 348.073 1075.83 347.402 1076.9 346.732 1078.31 347.058 1078.99 348.131L1090.44 366.464 1086.56 366.464 1098.02 348.131C1098.69 347.058 1100.1 346.731 1101.17 347.402 1102.25 348.073 1102.57 349.487 1101.9 350.56Z" fill="#595959" fill-rule="nonzero" fill-opacity="1"/><path d="M1161.79 314.5 1161.79 323.667C1161.79 324.932 1160.77 325.958 1159.5 325.958 1158.23 325.958 1157.21 324.932 1157.21 323.667L1157.21 314.5C1157.21 313.234 1158.23 312.208 1159.5 312.208 1160.77 312.208 1161.79 313.234 1161.79 314.5ZM1161.79 332.833 1161.79 342C1161.79 343.266 1160.77 344.292 1159.5 344.292 1158.23 344.292 1157.21 343.266 1157.21 342L1157.21 332.833C1157.21 331.568 1158.23 330.542 1159.5 330.542 1160.77 330.542 1161.79 331.568 1161.79 332.833ZM1161.79 351.167 1161.79 360.333C1161.79 361.599 1160.77 362.625 1159.5 362.625 1158.23 362.625 1157.21 361.599 1157.21 360.333L1157.21 351.167C1157.21 349.901 1158.23 348.875 1159.5 348.875 1160.77 348.875 1161.79 349.901 1161.79 351.167ZM1172.9 350.56 1159.5 372.003 1146.1 350.56C1145.43 349.487 1145.75 348.073 1146.83 347.402 1147.9 346.732 1149.31 347.058 1149.99 348.131L1161.44 366.464 1157.56 366.464 1169.02 348.131C1169.69 347.058 1171.1 346.731 1172.17 347.402 1173.25 348.073 1173.57 349.487 1172.9 350.56Z" fill="#595959" fill-rule="nonzero" fill-opacity="1"/><path d="M1232.79 314.5 1232.79 323.667C1232.79 324.932 1231.77 325.958 1230.5 325.958 1229.23 325.958 1228.21 324.932 1228.21 323.667L1228.21 314.5C1228.21 313.234 1229.23 312.208 1230.5 312.208 1231.77 312.208 1232.79 313.234 1232.79 314.5ZM1232.79 332.833 1232.79 342C1232.79 343.266 1231.77 344.292 1230.5 344.292 1229.23 344.292 1228.21 343.266 1228.21 342L1228.21 332.833C1228.21 331.568 1229.23 330.542 1230.5 330.542 1231.77 330.542 1232.79 331.568 1232.79 332.833ZM1232.79 351.167 1232.79 360.333C1232.79 361.599 1231.77 362.625 1230.5 362.625 1229.23 362.625 1228.21 361.599 1228.21 360.333L1228.21 351.167C1228.21 349.901 1229.23 348.875 1230.5 348.875 1231.77 348.875 1232.79 349.901 1232.79 351.167ZM1243.9 350.56 1230.5 372.003 1217.1 350.56C1216.43 349.487 1216.75 348.073 1217.83 347.402 1218.9 346.732 1220.31 347.058 1220.99 348.131L1232.44 366.464 1228.56 366.464 1240.02 348.131C1240.69 347.058 1242.1 346.731 1243.17 347.402 1244.25 348.073 1244.57 349.487 1243.9 350.56Z" fill="#595959" fill-rule="nonzero" fill-opacity="1"/><path d="M1303.79 314.5 1303.79 323.667C1303.79 324.932 1302.77 325.958 1301.5 325.958 1300.23 325.958 1299.21 324.932 1299.21 323.667L1299.21 314.5C1299.21 313.234 1300.23 312.208 1301.5 312.208 1302.77 312.208 1303.79 313.234 1303.79 314.5ZM1303.79 332.833 1303.79 342C1303.79 343.266 1302.77 344.292 1301.5 344.292 1300.23 344.292 1299.21 343.266 1299.21 342L1299.21 332.833C1299.21 331.568 1300.23 330.542 1301.5 330.542 1302.77 330.542 1303.79 331.568 1303.79 332.833ZM1303.79 351.167 1303.79 360.333C1303.79 361.599 1302.77 362.625 1301.5 362.625 1300.23 362.625 1299.21 361.599 1299.21 360.333L1299.21 351.167C1299.21 349.901 1300.23 348.875 1301.5 348.875 1302.77 348.875 1303.79 349.901 1303.79 351.167ZM1314.9 350.56 1301.5 372.003 1288.1 350.56C1287.43 349.487 1287.75 348.073 1288.83 347.402 1289.9 346.732 1291.31 347.058 1291.99 348.131L1303.44 366.464 1299.56 366.464 1311.02 348.131C1311.69 347.058 1313.1 346.731 1314.17 347.402 1315.25 348.073 1315.57 349.487 1314.9 350.56Z" fill="#595959" fill-rule="nonzero" fill-opacity="1"/><path d="M1485.79 314.5 1485.79 323.667C1485.79 324.932 1484.77 325.958 1483.5 325.958 1482.23 325.958 1481.21 324.932 1481.21 323.667L1481.21 314.5C1481.21 313.234 1482.23 312.208 1483.5 312.208 1484.77 312.208 1485.79 313.234 1485.79 314.5ZM1485.79 332.833 1485.79 342C1485.79 343.266 1484.77 344.292 1483.5 344.292 1482.23 344.292 1481.21 343.266 1481.21 342L1481.21 332.833C1481.21 331.568 1482.23 330.542 1483.5 330.542 1484.77 330.542 1485.79 331.568 1485.79 332.833ZM1485.79 351.167 1485.79 360.333C1485.79 361.599 1484.77 362.625 1483.5 362.625 1482.23 362.625 1481.21 361.599 1481.21 360.333L1481.21 351.167C1481.21 349.901 1482.23 348.875 1483.5 348.875 1484.77 348.875 1485.79 349.901 1485.79 351.167ZM1496.9 350.56 1483.5 372.003 1470.1 350.56C1469.43 349.487 1469.75 348.073 1470.83 347.402 1471.9 346.732 1473.31 347.058 1473.99 348.131L1485.44 366.464 1481.56 366.464 1493.02 348.131C1493.69 347.058 1495.1 346.731 1496.17 347.402 1497.25 348.073 1497.57 349.487 1496.9 350.56Z" fill="#595959" fill-rule="nonzero" fill-opacity="1"/><path d="M1556.79 314.5 1556.79 323.667C1556.79 324.932 1555.77 325.958 1554.5 325.958 1553.23 325.958 1552.21 324.932 1552.21 323.667L1552.21 314.5C1552.21 313.234 1553.23 312.208 1554.5 312.208 1555.77 312.208 1556.79 313.234 1556.79 314.5ZM1556.79 332.833 1556.79 342C1556.79 343.266 1555.77 344.292 1554.5 344.292 1553.23 344.292 1552.21 343.266 1552.21 342L1552.21 332.833C1552.21 331.568 1553.23 330.542 1554.5 330.542 1555.77 330.542 1556.79 331.568 1556.79 332.833ZM1556.79 351.167 1556.79 360.333C1556.79 361.599 1555.77 362.625 1554.5 362.625 1553.23 362.625 1552.21 361.599 1552.21 360.333L1552.21 351.167C1552.21 349.901 1553.23 348.875 1554.5 348.875 1555.77 348.875 1556.79 349.901 1556.79 351.167ZM1567.9 350.56 1554.5 372.003 1541.1 350.56C1540.43 349.487 1540.75 348.073 1541.83 347.402 1542.9 346.732 1544.31 347.058 1544.99 348.131L1556.44 366.464 1552.56 366.464 1564.02 348.131C1564.69 347.058 1566.1 346.731 1567.17 347.402 1568.25 348.073 1568.57 349.487 1567.9 350.56Z" fill="#595959" fill-rule="nonzero" fill-opacity="1"/><path d="M1627.79 314.5 1627.79 323.667C1627.79 324.932 1626.77 325.958 1625.5 325.958 1624.23 325.958 1623.21 324.932 1623.21 323.667L1623.21 314.5C1623.21 313.234 1624.23 312.208 1625.5 312.208 1626.77 312.208 1627.79 313.234 1627.79 314.5ZM1627.79 332.833 1627.79 342C1627.79 343.266 1626.77 344.292 1625.5 344.292 1624.23 344.292 1623.21 343.266 1623.21 342L1623.21 332.833C1623.21 331.568 1624.23 330.542 1625.5 330.542 1626.77 330.542 1627.79 331.568 1627.79 332.833ZM1627.79 351.167 1627.79 360.333C1627.79 361.599 1626.77 362.625 1625.5 362.625 1624.23 362.625 1623.21 361.599 1623.21 360.333L1623.21 351.167C1623.21 349.901 1624.23 348.875 1625.5 348.875 1626.77 348.875 1627.79 349.901 1627.79 351.167ZM1638.9 350.56 1625.5 372.003 1612.1 350.56C1611.43 349.487 1611.75 348.073 1612.83 347.402 1613.9 346.732 1615.31 347.058 1615.99 348.131L1627.44 366.464 1623.56 366.464 1635.02 348.131C1635.69 347.058 1637.1 346.731 1638.17 347.402 1639.25 348.073 1639.57 349.487 1638.9 350.56Z" fill="#595959" fill-rule="nonzero" fill-opacity="1"/><path d="M1698.79 314.5 1698.79 323.667C1698.79 324.932 1697.77 325.958 1696.5 325.958 1695.23 325.958 1694.21 324.932 1694.21 323.667L1694.21 314.5C1694.21 313.234 1695.23 312.208 1696.5 312.208 1697.77 312.208 1698.79 313.234 1698.79 314.5ZM1698.79 332.833 1698.79 342C1698.79 343.266 1697.77 344.292 1696.5 344.292 1695.23 344.292 1694.21 343.266 1694.21 342L1694.21 332.833C1694.21 331.568 1695.23 330.542 1696.5 330.542 1697.77 330.542 1698.79 331.568 1698.79 332.833ZM1698.79 351.167 1698.79 360.333C1698.79 361.599 1697.77 362.625 1696.5 362.625 1695.23 362.625 1694.21 361.599 1694.21 360.333L1694.21 351.167C1694.21 349.901 1695.23 348.875 1696.5 348.875 1697.77 348.875 1698.79 349.901 1698.79 351.167ZM1709.9 350.56 1696.5 372.003 1683.1 350.56C1682.43 349.487 1682.75 348.073 1683.83 347.402 1684.9 346.732 1686.31 347.058 1686.99 348.131L1698.44 366.464 1694.56 366.464 1706.02 348.131C1706.69 347.058 1708.1 346.731 1709.17 347.402 1710.25 348.073 1710.57 349.487 1709.9 350.56Z" fill="#595959" fill-rule="nonzero" fill-opacity="1"/><path d="M1769.79 314.5 1769.79 323.667C1769.79 324.932 1768.77 325.958 1767.5 325.958 1766.23 325.958 1765.21 324.932 1765.21 323.667L1765.21 314.5C1765.21 313.234 1766.23 312.208 1767.5 312.208 1768.77 312.208 1769.79 313.234 1769.79 314.5ZM1769.79 332.833 1769.79 342C1769.79 343.266 1768.77 344.292 1767.5 344.292 1766.23 344.292 1765.21 343.266 1765.21 342L1765.21 332.833C1765.21 331.568 1766.23 330.542 1767.5 330.542 1768.77 330.542 1769.79 331.568 1769.79 332.833ZM1769.79 351.167 1769.79 360.333C1769.79 361.599 1768.77 362.625 1767.5 362.625 1766.23 362.625 1765.21 361.599 1765.21 360.333L1765.21 351.167C1765.21 349.901 1766.23 348.875 1767.5 348.875 1768.77 348.875 1769.79 349.901 1769.79 351.167ZM1780.9 350.56 1767.5 372.003 1754.1 350.56C1753.43 349.487 1753.75 348.073 1754.83 347.402 1755.9 346.732 1757.31 347.058 1757.99 348.131L1769.44 366.464 1765.56 366.464 1777.02 348.131C1777.69 347.058 1779.1 346.731 1780.17 347.402 1781.25 348.073 1781.57 349.487 1780.9 350.56Z" fill="#595959" fill-rule="nonzero" fill-opacity="1"/><path d="M1951.79 314.5 1951.79 323.667C1951.79 324.932 1950.77 325.958 1949.5 325.958 1948.23 325.958 1947.21 324.932 1947.21 323.667L1947.21 314.5C1947.21 313.234 1948.23 312.208 1949.5 312.208 1950.77 312.208 1951.79 313.234 1951.79 314.5ZM1951.79 332.833 1951.79 342C1951.79 343.266 1950.77 344.292 1949.5 344.292 1948.23 344.292 1947.21 343.266 1947.21 342L1947.21 332.833C1947.21 331.568 1948.23 330.542 1949.5 330.542 1950.77 330.542 1951.79 331.568 1951.79 332.833ZM1951.79 351.167 1951.79 360.333C1951.79 361.599 1950.77 362.625 1949.5 362.625 1948.23 362.625 1947.21 361.599 1947.21 360.333L1947.21 351.167C1947.21 349.901 1948.23 348.875 1949.5 348.875 1950.77 348.875 1951.79 349.901 1951.79 351.167ZM1962.9 350.56 1949.5 372.003 1936.1 350.56C1935.43 349.487 1935.75 348.073 1936.83 347.402 1937.9 346.732 1939.31 347.058 1939.99 348.131L1951.44 366.464 1947.56 366.464 1959.02 348.131C1959.69 347.058 1961.1 346.731 1962.17 347.402 1963.25 348.073 1963.57 349.487 1962.9 350.56Z" fill="#595959" fill-rule="nonzero" fill-opacity="1"/><path d="M2022.79 314.5 2022.79 323.667C2022.79 324.932 2021.77 325.958 2020.5 325.958 2019.23 325.958 2018.21 324.932 2018.21 323.667L2018.21 314.5C2018.21 313.234 2019.23 312.208 2020.5 312.208 2021.77 312.208 2022.79 313.234 2022.79 314.5ZM2022.79 332.833 2022.79 342C2022.79 343.266 2021.77 344.292 2020.5 344.292 2019.23 344.292 2018.21 343.266 2018.21 342L2018.21 332.833C2018.21 331.568 2019.23 330.542 2020.5 330.542 2021.77 330.542 2022.79 331.568 2022.79 332.833ZM2022.79 351.167 2022.79 360.333C2022.79 361.599 2021.77 362.625 2020.5 362.625 2019.23 362.625 2018.21 361.599 2018.21 360.333L2018.21 351.167C2018.21 349.901 2019.23 348.875 2020.5 348.875 2021.77 348.875 2022.79 349.901 2022.79 351.167ZM2033.9 350.56 2020.5 372.003 2007.1 350.56C2006.43 349.487 2006.75 348.073 2007.83 347.402 2008.9 346.732 2010.31 347.058 2010.99 348.131L2022.44 366.464 2018.56 366.464 2030.02 348.131C2030.69 347.058 2032.1 346.731 2033.17 347.402 2034.25 348.073 2034.57 349.487 2033.9 350.56Z" fill="#595959" fill-rule="nonzero" fill-opacity="1"/><path d="M2093.79 314.5 2093.79 323.667C2093.79 324.932 2092.77 325.958 2091.5 325.958 2090.23 325.958 2089.21 324.932 2089.21 323.667L2089.21 314.5C2089.21 313.234 2090.23 312.208 2091.5 312.208 2092.77 312.208 2093.79 313.234 2093.79 314.5ZM2093.79 332.833 2093.79 342C2093.79 343.266 2092.77 344.292 2091.5 344.292 2090.23 344.292 2089.21 343.266 2089.21 342L2089.21 332.833C2089.21 331.568 2090.23 330.542 2091.5 330.542 2092.77 330.542 2093.79 331.568 2093.79 332.833ZM2093.79 351.167 2093.79 360.333C2093.79 361.599 2092.77 362.625 2091.5 362.625 2090.23 362.625 2089.21 361.599 2089.21 360.333L2089.21 351.167C2089.21 349.901 2090.23 348.875 2091.5 348.875 2092.77 348.875 2093.79 349.901 2093.79 351.167ZM2104.9 350.56 2091.5 372.003 2078.1 350.56C2077.43 349.487 2077.75 348.073 2078.83 347.402 2079.9 346.732 2081.31 347.058 2081.98 348.131L2093.44 366.464 2089.56 366.464 2101.01 348.131C2101.69 347.058 2103.1 346.731 2104.17 347.402 2105.25 348.073 2105.57 349.487 2104.9 350.56Z" fill="#595959" fill-rule="nonzero" fill-opacity="1"/><path d="M2164.79 314.5 2164.79 323.667C2164.79 324.932 2163.77 325.958 2162.5 325.958 2161.23 325.958 2160.21 324.932 2160.21 323.667L2160.21 314.5C2160.21 313.234 2161.23 312.208 2162.5 312.208 2163.77 312.208 2164.79 313.234 2164.79 314.5ZM2164.79 332.833 2164.79 342C2164.79 343.266 2163.77 344.292 2162.5 344.292 2161.23 344.292 2160.21 343.266 2160.21 342L2160.21 332.833C2160.21 331.568 2161.23 330.542 2162.5 330.542 2163.77 330.542 2164.79 331.568 2164.79 332.833ZM2164.79 351.167 2164.79 360.333C2164.79 361.599 2163.77 362.625 2162.5 362.625 2161.23 362.625 2160.21 361.599 2160.21 360.333L2160.21 351.167C2160.21 349.901 2161.23 348.875 2162.5 348.875 2163.77 348.875 2164.79 349.901 2164.79 351.167ZM2175.9 350.56 2162.5 372.003 2149.1 350.56C2148.43 349.487 2148.75 348.073 2149.83 347.402 2150.9 346.732 2152.31 347.058 2152.99 348.131L2164.44 366.464 2160.56 366.464 2172.02 348.131C2172.69 347.058 2174.1 346.731 2175.17 347.402 2176.25 348.073 2176.57 349.487 2175.9 350.56Z" fill="#595959" fill-rule="nonzero" fill-opacity="1"/><path d="M2235.79 314.5 2235.79 323.667C2235.79 324.932 2234.77 325.958 2233.5 325.958 2232.23 325.958 2231.21 324.932 2231.21 323.667L2231.21 314.5C2231.21 313.234 2232.23 312.208 2233.5 312.208 2234.77 312.208 2235.79 313.234 2235.79 314.5ZM2235.79 332.833 2235.79 342C2235.79 343.266 2234.77 344.292 2233.5 344.292 2232.23 344.292 2231.21 343.266 2231.21 342L2231.21 332.833C2231.21 331.568 2232.23 330.542 2233.5 330.542 2234.77 330.542 2235.79 331.568 2235.79 332.833ZM2235.79 351.167 2235.79 360.333C2235.79 361.599 2234.77 362.625 2233.5 362.625 2232.23 362.625 2231.21 361.599 2231.21 360.333L2231.21 351.167C2231.21 349.901 2232.23 348.875 2233.5 348.875 2234.77 348.875 2235.79 349.901 2235.79 351.167ZM2246.9 350.56 2233.5 372.003 2220.1 350.56C2219.43 349.487 2219.75 348.073 2220.83 347.402 2221.9 346.732 2223.31 347.058 2223.98 348.131L2235.44 366.464 2231.56 366.464 2243.01 348.131C2243.69 347.058 2245.1 346.731 2246.17 347.402 2247.25 348.073 2247.57 349.487 2246.9 350.56Z" fill="#595959" fill-rule="nonzero" fill-opacity="1"/><path d="M1232.79 839.5 1232.79 848.667C1232.79 849.932 1231.77 850.958 1230.5 850.958 1229.23 850.958 1228.21 849.932 1228.21 848.667L1228.21 839.5C1228.21 838.234 1229.23 837.208 1230.5 837.208 1231.77 837.208 1232.79 838.234 1232.79 839.5ZM1232.79 857.833 1232.79 867C1232.79 868.266 1231.77 869.292 1230.5 869.292 1229.23 869.292 1228.21 868.266 1228.21 867L1228.21 857.833C1228.21 856.568 1229.23 855.542 1230.5 855.542 1231.77 855.542 1232.79 856.568 1232.79 857.833ZM1232.79 876.167 1232.79 885.333C1232.79 886.599 1231.77 887.625 1230.5 887.625 1229.23 887.625 1228.21 886.599 1228.21 885.333L1228.21 876.167C1228.21 874.901 1229.23 873.875 1230.5 873.875 1231.77 873.875 1232.79 874.901 1232.79 876.167ZM1243.9 875.56 1230.5 897.003 1217.1 875.56C1216.43 874.487 1216.75 873.073 1217.83 872.402 1218.9 871.732 1220.31 872.058 1220.99 873.131L1232.44 891.464 1228.56 891.464 1240.02 873.131C1240.69 872.058 1242.1 871.731 1243.17 872.402 1244.25 873.073 1244.57 874.487 1243.9 875.56Z" fill="#595959" fill-rule="nonzero" fill-opacity="1"/><path d="M1303.79 839.5 1303.79 848.667C1303.79 849.932 1302.77 850.958 1301.5 850.958 1300.23 850.958 1299.21 849.932 1299.21 848.667L1299.21 839.5C1299.21 838.234 1300.23 837.208 1301.5 837.208 1302.77 837.208 1303.79 838.234 1303.79 839.5ZM1303.79 857.833 1303.79 867C1303.79 868.266 1302.77 869.292 1301.5 869.292 1300.23 869.292 1299.21 868.266 1299.21 867L1299.21 857.833C1299.21 856.568 1300.23 855.542 1301.5 855.542 1302.77 855.542 1303.79 856.568 1303.79 857.833ZM1303.79 876.167 1303.79 885.333C1303.79 886.599 1302.77 887.625 1301.5 887.625 1300.23 887.625 1299.21 886.599 1299.21 885.333L1299.21 876.167C1299.21 874.901 1300.23 873.875 1301.5 873.875 1302.77 873.875 1303.79 874.901 1303.79 876.167ZM1314.9 875.56 1301.5 897.003 1288.1 875.56C1287.43 874.487 1287.75 873.073 1288.83 872.402 1289.9 871.732 1291.31 872.058 1291.99 873.131L1303.44 891.464 1299.56 891.464 1311.02 873.131C1311.69 872.058 1313.1 871.731 1314.17 872.402 1315.25 873.073 1315.57 874.487 1314.9 875.56Z" fill="#595959" fill-rule="nonzero" fill-opacity="1"/><path d="M1373.79 839.5 1373.79 848.667C1373.79 849.932 1372.77 850.958 1371.5 850.958 1370.23 850.958 1369.21 849.932 1369.21 848.667L1369.21 839.5C1369.21 838.234 1370.23 837.208 1371.5 837.208 1372.77 837.208 1373.79 838.234 1373.79 839.5ZM1373.79 857.833 1373.79 867C1373.79 868.266 1372.77 869.292 1371.5 869.292 1370.23 869.292 1369.21 868.266 1369.21 867L1369.21 857.833C1369.21 856.568 1370.23 855.542 1371.5 855.542 1372.77 855.542 1373.79 856.568 1373.79 857.833ZM1373.79 876.167 1373.79 885.333C1373.79 886.599 1372.77 887.625 1371.5 887.625 1370.23 887.625 1369.21 886.599 1369.21 885.333L1369.21 876.167C1369.21 874.901 1370.23 873.875 1371.5 873.875 1372.77 873.875 1373.79 874.901 1373.79 876.167ZM1384.9 875.56 1371.5 897.003 1358.1 875.56C1357.43 874.487 1357.75 873.073 1358.83 872.402 1359.9 871.732 1361.31 872.058 1361.99 873.131L1373.44 891.464 1369.56 891.464 1381.02 873.131C1381.69 872.058 1383.1 871.731 1384.17 872.402 1385.25 873.073 1385.57 874.487 1384.9 875.56Z" fill="#595959" fill-rule="nonzero" fill-opacity="1"/><path d="M1444.79 839.5 1444.79 848.667C1444.79 849.932 1443.77 850.958 1442.5 850.958 1441.23 850.958 1440.21 849.932 1440.21 848.667L1440.21 839.5C1440.21 838.234 1441.23 837.208 1442.5 837.208 1443.77 837.208 1444.79 838.234 1444.79 839.5ZM1444.79 857.833 1444.79 867C1444.79 868.266 1443.77 869.292 1442.5 869.292 1441.23 869.292 1440.21 868.266 1440.21 867L1440.21 857.833C1440.21 856.568 1441.23 855.542 1442.5 855.542 1443.77 855.542 1444.79 856.568 1444.79 857.833ZM1444.79 876.167 1444.79 885.333C1444.79 886.599 1443.77 887.625 1442.5 887.625 1441.23 887.625 1440.21 886.599 1440.21 885.333L1440.21 876.167C1440.21 874.901 1441.23 873.875 1442.5 873.875 1443.77 873.875 1444.79 874.901 1444.79 876.167ZM1455.9 875.56 1442.5 897.003 1429.1 875.56C1428.43 874.487 1428.75 873.073 1429.83 872.402 1430.9 871.732 1432.31 872.058 1432.99 873.131L1444.44 891.464 1440.56 891.464 1452.02 873.131C1452.69 872.058 1454.1 871.731 1455.17 872.402 1456.25 873.073 1456.57 874.487 1455.9 875.56Z" fill="#595959" fill-rule="nonzero" fill-opacity="1"/><path d="M766.792 839.5 766.792 848.667C766.792 849.932 765.766 850.958 764.5 850.958 763.234 850.958 762.208 849.932 762.208 848.667L762.208 839.5C762.208 838.234 763.234 837.208 764.5 837.208 765.766 837.208 766.792 838.234 766.792 839.5ZM766.792 857.833 766.792 867C766.792 868.266 765.766 869.292 764.5 869.292 763.235 869.292 762.208 868.266 762.208 867L762.208 857.833C762.208 856.568 763.234 855.542 764.5 855.542 765.766 855.542 766.792 856.568 766.792 857.833ZM766.792 876.167 766.792 885.333C766.792 886.599 765.766 887.625 764.5 887.625 763.235 887.625 762.209 886.599 762.209 885.333L762.209 876.167C762.209 874.901 763.235 873.875 764.5 873.875 765.766 873.875 766.792 874.901 766.792 876.167ZM777.902 875.56 764.5 897.003 751.099 875.56C750.428 874.487 750.754 873.073 751.827 872.402 752.901 871.732 754.314 872.058 754.985 873.131L766.444 891.464 762.557 891.464 774.015 873.131C774.686 872.058 776.1 871.731 777.173 872.402 778.246 873.073 778.573 874.487 777.902 875.56Z" fill="#595959" fill-rule="nonzero" fill-opacity="1"/><path d="M837.792 839.5 837.792 848.667C837.792 849.932 836.766 850.958 835.5 850.958 834.235 850.958 833.209 849.932 833.209 848.667L833.208 839.5C833.208 838.234 834.234 837.208 835.5 837.208 836.766 837.208 837.792 838.234 837.792 839.5ZM837.792 857.833 837.792 867C837.792 868.266 836.766 869.292 835.5 869.292 834.235 869.292 833.209 868.266 833.209 867L833.209 857.833C833.209 856.568 834.235 855.542 835.5 855.542 836.766 855.542 837.792 856.568 837.792 857.833ZM837.792 876.167 837.792 885.333C837.792 886.599 836.766 887.625 835.5 887.625 834.235 887.625 833.209 886.599 833.209 885.333L833.209 876.167C833.209 874.901 834.235 873.875 835.5 873.875 836.766 873.875 837.792 874.901 837.792 876.167ZM848.902 875.56 835.501 897.003 822.099 875.56C821.428 874.487 821.754 873.073 822.827 872.402 823.901 871.732 825.315 872.058 825.985 873.131L837.444 891.464 833.557 891.464 845.015 873.131C845.686 872.058 847.1 871.731 848.173 872.402 849.247 873.073 849.573 874.487 848.902 875.56Z" fill="#595959" fill-rule="nonzero" fill-opacity="1"/><path d="M907.792 839.5 907.792 848.667C907.792 849.932 906.766 850.958 905.5 850.958 904.234 850.958 903.208 849.932 903.208 848.667L903.208 839.5C903.208 838.234 904.234 837.208 905.5 837.208 906.766 837.208 907.792 838.234 907.792 839.5ZM907.792 857.833 907.792 867C907.792 868.266 906.766 869.292 905.5 869.292 904.234 869.292 903.208 868.266 903.208 867L903.208 857.833C903.208 856.568 904.234 855.542 905.5 855.542 906.766 855.542 907.792 856.568 907.792 857.833ZM907.792 876.167 907.792 885.333C907.792 886.599 906.766 887.625 905.5 887.625 904.235 887.625 903.209 886.599 903.209 885.333L903.208 876.167C903.208 874.901 904.234 873.875 905.5 873.875 906.766 873.875 907.792 874.901 907.792 876.167ZM918.902 875.56 905.5 897.003 892.099 875.56C891.428 874.487 891.754 873.073 892.827 872.402 893.901 871.732 895.314 872.058 895.985 873.131L907.444 891.464 903.557 891.464 915.015 873.131C915.686 872.058 917.1 871.731 918.173 872.402 919.246 873.073 919.573 874.487 918.902 875.56Z" fill="#595959" fill-rule="nonzero" fill-opacity="1"/><text fill="#000000" fill-opacity="1" font-family="Arial,Arial_MSFontService,sans-serif" font-style="normal" font-variant="normal" font-weight="400" font-stretch="normal" font-size="31" text-anchor="start" direction="ltr" writing-mode="lr-tb" unicode-bidi="normal" text-decoration="none" transform="matrix(1 0 0 1 2101.05 1217)">Process</text><path d="M1998.5 1193.62C1998.5 1190.24 2001.24 1187.5 2004.62 1187.5L2073.38 1187.5C2076.76 1187.5 2079.5 1190.24 2079.5 1193.62L2079.5 1218.38C2079.5 1221.76 2076.76 1224.5 2073.38 1224.5L2004.62 1224.5C2001.24 1224.5 1998.5 1221.76 1998.5 1218.38Z" stroke="#000000" stroke-width="4.58333" stroke-linecap="butt" stroke-linejoin="miter" stroke-miterlimit="8" stroke-opacity="1" fill="none" fill-rule="evenodd"/><text fill="#000000" fill-opacity="1" font-family="Arial,Arial_MSFontService,sans-serif" font-style="normal" font-variant="normal" font-weight="700" font-stretch="normal" font-size="31" text-anchor="start" direction="ltr" writing-mode="lr-tb" unicode-bidi="normal" text-decoration="none" transform="matrix(1 0 0 1 1999.07 1091)">Legend:</text><text fill="#000000" fill-opacity="1" font-family="Arial,Arial_MSFontService,sans-serif" font-style="normal" font-variant="normal" font-weight="400" font-stretch="normal" font-size="31" text-anchor="start" direction="ltr" writing-mode="lr-tb" unicode-bidi="normal" text-decoration="none" transform="matrix(1 0 0 1 2099.06 1152)">Product</text><path d="M2000.5 1129.62C2000.5 1126.24 2003.24 1123.5 2006.62 1123.5L2071.38 1123.5C2074.76 1123.5 2077.5 1126.24 2077.5 1129.62L2077.5 1154.38C2077.5 1157.76 2074.76 1160.5 2071.38 1160.5L2006.62 1160.5C2003.24 1160.5 2000.5 1157.76 2000.5 1154.38Z" stroke="#F2F2F2" stroke-width="4.58333" stroke-linecap="butt" stroke-linejoin="miter" stroke-miterlimit="8" stroke-opacity="1" fill="#F2F2F2" fill-rule="evenodd" fill-opacity="1"/><path d="M2012.5 1280.21 2021.67 1280.21C2022.93 1280.21 2023.96 1281.23 2023.96 1282.5 2023.96 1283.77 2022.93 1284.79 2021.67 1284.79L2012.5 1284.79C2011.23 1284.79 2010.21 1283.77 2010.21 1282.5 2010.21 1281.23 2011.23 1280.21 2012.5 1280.21ZM2030.83 1280.21 2040 1280.21C2041.27 1280.21 2042.29 1281.23 2042.29 1282.5 2042.29 1283.77 2041.27 1284.79 2040 1284.79L2030.83 1284.79C2029.57 1284.79 2028.54 1283.77 2028.54 1282.5 2028.54 1281.23 2029.57 1280.21 2030.83 1280.21ZM2049.17 1280.21 2058.33 1280.21C2059.6 1280.21 2060.63 1281.23 2060.62 1282.5 2060.62 1283.77 2059.6 1284.79 2058.33 1284.79L2049.17 1284.79C2047.9 1284.79 2046.88 1283.77 2046.88 1282.5 2046.88 1281.23 2047.9 1280.21 2049.17 1280.21ZM2049.27 1269.1 2070.71 1282.5 2049.27 1295.9C2048.2 1296.57 2046.78 1296.25 2046.11 1295.17 2045.44 1294.1 2045.77 1292.69 2046.84 1292.02L2065.17 1280.56 2065.17 1284.44 2046.84 1272.99C2045.77 1272.31 2045.44 1270.9 2046.11 1269.83 2046.78 1268.75 2048.2 1268.43 2049.27 1269.1Z" fill="#595959" fill-rule="nonzero" fill-opacity="1"/><text fill="#000000" fill-opacity="1" font-family="Arial,Arial_MSFontService,sans-serif" font-style="normal" font-variant="normal" font-weight="400" font-stretch="normal" font-size="31" text-anchor="start" direction="ltr" writing-mode="lr-tb" unicode-bidi="normal" text-decoration="none" transform="matrix(1 0 0 1 2101.77 1275)">Background </text><text fill="#000000" fill-opacity="1" font-family="Arial,Arial_MSFontService,sans-serif" font-style="normal" font-variant="normal" font-weight="400" font-stretch="normal" font-size="31" text-anchor="start" direction="ltr" writing-mode="lr-tb" unicode-bidi="normal" text-decoration="none" transform="matrix(1 0 0 1 2101.77 1311)">system input</text></g></g></svg>