<?xml version="1.0" encoding="UTF-8" standalone="no"?>
<svg
   width="512"
   height="512"
   xml:space="preserve"
   overflow="hidden"
   version="1.1"
   id="svg5"
   sodipodi:docname="life_cycle_timing.svg"
   inkscape:version="1.3.2 (091e20e, 2023-11-25)"
   xmlns:inkscape="http://www.inkscape.org/namespaces/inkscape"
   xmlns:sodipodi="http://sodipodi.sourceforge.net/DTD/sodipodi-0.dtd"
   xmlns="http://www.w3.org/2000/svg"
   xmlns:svg="http://www.w3.org/2000/svg"><defs
     id="defs5" /><sodipodi:namedview
     id="namedview5"
     pagecolor="#ffffff"
     bordercolor="#8ebae5"
     borderopacity="0.25"
     inkscape:showpageshadow="2"
     inkscape:pageopacity="0.0"
     inkscape:pagecheckerboard="0"
     inkscape:deskcolor="#d1d1d1"
     inkscape:zoom="0.71406003"
     inkscape:cx="316.5"
     inkscape:cy="309.49779"
     inkscape:window-width="1920"
     inkscape:window-height="1027"
     inkscape:window-x="1512"
     inkscape:window-y="25"
     inkscape:window-maximized="0"
     inkscape:current-layer="svg5" /><g
     transform="matrix(0.83464223,0,0,0.83464223,-530.23298,-563.59113)"
     id="g5"><g
       id="g4"><path
         d="m 1244.6,944.15 1.51,15.033 0.78,15.508 v 15.385 l -0.77,15.244 -1.52,15.07 -2.25,14.88 -2.98,14.66 -3.67,14.43 -4.36,14.18 -5.02,13.89 -5.68,13.6 -6.31,13.27 -6.93,12.93 -7.53,12.57 -8.11,12.18 -8.68,11.78 -9.23,11.35 -9.77,10.9 -10.29,10.43 -10.79,9.94 -11.27,9.42 -11.74,8.9 -12.2,8.33 -12.63,7.76 -13.06,7.17 -13.45,6.54 -13.84,5.9 -14.21,5.24 -14.56,4.55 -14.9,3.85 -15.207,3.12 -15.508,2.36 -15.608,1.59 -15.508,0.78 h -15.385 l -15.239,-0.77 -15.07,-1.52 -14.88,-2.25 -14.667,-2.98 -14.431,-3.67 -14.175,-4.36 -13.896,-5.02 -13.595,-5.68 -13.274,-6.31 -12.932,-6.93 -12.567,-7.53 -12.182,-8.11 -11.776,-8.68 -11.348,-9.23 -10.9,-9.77 -10.43,-10.29 -9.939,-10.79 -9.426,-11.27 -8.893,-11.74 -8.337,-12.2 -7.761,-12.63 -7.162,-13.06 -6.543,-13.45 -5.901,-13.84 -5.238,-14.21 -4.552,-14.56 -3.847,-14.9 -3.118,-15.21 -2.37,-15.51 -1.582,-15.6 -0.783,-15.511 10e-4,-15.385 0.768,-15.239 1.52,-15.07 2.254,-14.88 2.972,-14.666 3.674,-14.432 4.358,-14.174 5.025,-13.896 5.677,-13.596 6.311,-13.274 6.928,-12.932 7.529,-12.567 8.114,-12.182 8.681,-11.776 9.233,-11.348 9.768,-10.9 10.286,-10.43 10.788,-9.938 11.274,-9.427 11.744,-8.892 12.196,-8.338 12.633,-7.761 13.052,-7.162 13.455,-6.543 13.841,-5.901 14.21,-5.237 14.561,-4.553 14.894,-3.846 15.21,-3.119 15.508,-2.369 19.526,-1.844 19.542,-0.588 19.421,0.658 19.245,1.884 19.011,3.086 18.73,4.268 18.39,5.427 18,6.564 17.55,7.68 17.04,8.774 16.5,9.847 15.88,10.897 15.21,11.925 14.5,12.933 13.73,13.917 1.2,1.358 c 4.14,4.787 3.62,12.023 -1.17,16.162 -4.79,4.139 -12.02,3.614 -16.16,-1.173 l -0.21,-0.275 -12.66,-12.906 -13.38,-11.995 -14.05,-11.065 -14.67,-10.116 -15.23,-9.145 -15.75,-8.154 -16.21,-7.144 -16.63,-6.112 -17,-5.061 -17.305,-3.989 -17.575,-2.898 -17.79,-1.786 -17.955,-0.654 -18.071,0.498 -18.219,1.684 -14.366,2.166 -14.083,2.859 -13.785,3.531 -13.474,4.184 -13.147,4.817 -12.806,5.43 -12.452,6.025 -12.08,6.599 -11.695,7.154 -11.294,7.689 -10.878,8.205 -10.446,8.7 -9.998,9.177 -9.536,9.633 -9.056,10.068 -8.563,10.485 -8.053,10.881 -7.528,11.257 -6.987,11.613 -6.43,11.949 -5.86,12.265 -5.272,12.561 -4.671,12.836 -4.053,13.094 -3.421,13.33 -2.773,13.548 -2.11,13.746 -1.432,13.926 -0.738,14.086 -0.029,14.229 0.696,14.354 1.437,14.46 2.167,14.36 2.858,14.08 3.531,13.79 4.184,13.47 4.817,13.15 5.431,12.81 6.024,12.45 6.599,12.08 7.154,11.69 7.69,11.3 8.204,10.87 8.701,10.45 9.177,10 9.632,9.53 10.069,9.06 10.485,8.56 10.881,8.06 11.257,7.52 11.613,6.99 11.949,6.43 12.265,5.86 12.56,5.27 12.837,4.67 13.094,4.06 13.33,3.42 13.548,2.77 13.746,2.11 13.926,1.43 14.086,0.74 14.228,0.03 14.352,-0.69 14.458,-1.44 14.366,-2.17 14.079,-2.86 13.79,-3.53 13.47,-4.18 13.15,-4.82 12.81,-5.43 12.45,-6.02 12.08,-6.6 11.69,-7.16 11.3,-7.69 10.87,-8.2 10.45,-8.7 10,-9.18 9.53,-9.63 9.06,-10.07 8.56,-10.49 8.06,-10.88 7.52,-11.25 6.99,-11.62 6.43,-11.94 5.86,-12.27 5.27,-12.56 4.67,-12.84 4.06,-13.09 3.42,-13.33 2.77,-13.55 2.11,-13.75 1.43,-13.92 0.74,-14.087 0.03,-14.228 -0.7,-14.352 -1.5,-15.033 c -0.64,-6.296 3.95,-11.913 10.25,-12.546 6.3,-0.632 11.91,3.96 12.55,10.256 z m -76.39,-250.08 1.88,103.226 -101.87,-16.764 c -6.24,-1.028 -10.47,-6.923 -9.44,-13.167 1.02,-6.244 6.92,-10.473 13.16,-9.446 l 88.31,14.531 -13.32,11.515 -1.63,-89.477 c -0.12,-6.327 4.92,-11.55 11.25,-11.665 6.32,-0.116 11.55,4.92 11.66,11.247 z"
         fill="#8ebae5"
         fill-rule="nonzero"
         fill-opacity="1"
         id="path1" /><path
         d="m 903,981.5 c 0,-21.263 17.237,-38.5 38.5,-38.5 21.263,0 38.5,17.237 38.5,38.5 0,21.26 -17.237,38.5 -38.5,38.5 -21.263,0 -38.5,-17.24 -38.5,-38.5 z"
         fill="#8ebae5"
         fill-rule="evenodd"
         fill-opacity="1"
         id="path2" /><path
         d="m 942.5,854.5 v 88.939"
         stroke="#8ebae5"
         stroke-width="22.9167"
         stroke-linecap="round"
         stroke-linejoin="miter"
         stroke-miterlimit="8"
         stroke-opacity="1"
         fill="none"
         fill-rule="evenodd"
         id="path3" /><path
         d="m 969.5,1009.5 95.3,100.21"
         stroke="#8ebae5"
         stroke-width="22.9167"
         stroke-linecap="round"
         stroke-linejoin="miter"
         stroke-miterlimit="8"
         stroke-opacity="1"
         fill="none"
         fill-rule="evenodd"
         id="path4" /></g></g></svg>
