<?xml version="1.0" encoding="UTF-8" standalone="no"?>
<svg
   id="Layer_1"
   data-name="Layer 1"
   viewBox="0 0 1615 468"
   version="1.1"
   xmlns="http://www.w3.org/2000/svg"
   xmlns:svg="http://www.w3.org/2000/svg">
  <defs
     id="defs1">
    <style
       id="style1">
      .cls-1 {
        fill: #316733;
      }

      .cls-1, .cls-2, .cls-3 {
        stroke-width: 0px;
      }

      .cls-2 {
        fill: #222832;
      }

      .cls-3 {
        fill: #74b944;
      }
    </style>
  </defs>
  <g
     id="g9">
    <path
       class="cls-1"
       d="m 197,199.3 c -28.32,-7.58 -44.77,-26.36 -50.97,-55.31 -3.28,-15.3 -3.32,-30.76 -2.93,-46.35 0.38,-0.06 0.73,-0.25 0.95,-0.14 17.17,8.39 34.4,16.71 49.6,28.69 4.48,3.53 8.37,7.86 12.49,11.87 1.17,1.13 1.46,2.28 0.37,3.93 -7.09,10.68 -9.73,22.65 -9.43,35.48 0.15,6.51 0.12,13.03 0.14,19.55 0,0.73 -0.14,1.46 -0.23,2.28 z"
       id="path1" />
    <path
       class="cls-1"
       d="m 287.04,382.73 c -8.28,-3.49 -16.6,-6.91 -24.85,-10.5 -10.89,-4.74 -21.62,-9.81 -30.71,-17.69 -2.38,-2.06 -4.48,-4.44 -6.83,-6.54 -1.41,-1.27 -1.28,-2.31 -0.33,-3.8 4.09,-6.46 7.3,-13.4 8.28,-21.01 0.76,-5.93 0.59,-11.99 0.7,-18 0.1,-5.15 0.02,-10.31 0.02,-16.03 2.88,1.09 5.39,2.01 7.87,2.97 27.2,10.46 41.89,30.64 45.09,59.4 1.13,10.14 1.22,20.39 1.79,30.59 -0.34,0.21 -0.68,0.41 -1.03,0.62 z"
       id="path2" />
    <path
       class="cls-3"
       d="m 233.23,199.77 c 0.29,-6.08 -1.48,-11.53 2.35,-16.92 10.12,-14.24 19.83,-28.8 29.62,-43.3 1.14,-1.68 3.75,-3.7 1.23,-5.81 -2.53,-2.11 -3.55,1.22 -4.81,2.56 -10.12,10.76 -19.11,22.47 -27.05,35.05 -0.28,0.44 -0.6,0.85 -1.47,2.07 0.56,-12.74 -3.85,-22.98 -10.31,-32.67 4.36,-6.23 9.59,-11.5 15.59,-15.91 13.74,-10.07 28.82,-17.72 43.81,-25.52 1.54,-0.8 3.14,-1.51 5.35,-2.56 0,3.99 -0.06,7.32 0.01,10.64 0.27,12.62 -0.35,25.12 -3.18,37.48 -5.91,25.77 -20.59,43.39 -44.74,52.42 -1.94,0.73 -3.87,1.5 -6.4,2.48 z"
       id="path3" />
    <path
       class="cls-1"
       d="m 197.44,288.81 c 0,4.19 0.17,7.89 -0.09,11.56 -0.09,1.34 -1.02,2.72 -1.84,3.89 -9.67,13.79 -19.38,27.54 -29.09,41.31 -0.18,0.26 -0.47,0.49 -0.53,0.78 -0.26,1.3 -0.46,2.61 -0.68,3.92 1.22,-0.53 2.83,-0.73 3.61,-1.64 8.7,-10.27 17.28,-20.65 25.89,-31 0.65,-0.78 1.31,-1.57 2.23,-2.67 0.43,3.98 0.21,7.69 1.32,10.93 2.07,6.03 4.67,11.91 7.55,17.6 1.1,2.16 1.02,3.21 -0.59,4.8 -7.4,7.34 -15.77,13.31 -25.11,17.79 -12.07,5.8 -24.31,11.23 -36.66,16.9 0,-9.41 -0.33,-18.03 0.08,-26.61 0.57,-12.06 3.91,-23.44 9.63,-34.1 7.85,-14.65 20.11,-24.04 35.22,-30.05 2.89,-1.15 5.81,-2.19 9.05,-3.41 z"
       id="path4" />
    <g
       id="g8">
      <path
         class="cls-2"
         d="m 215.32,54 c 31.19,0 62.38,0 93.57,0 10.23,0 14.81,4.56 14.84,14.82 0.05,19.96 0.6,39.94 -0.02,59.88 -0.94,30.05 -12.54,55.56 -34.11,76.56 -10.54,10.26 -23.12,17.02 -36.19,23.16 -2.46,1.16 -4.95,2.34 -7.22,3.84 -6.43,4.23 -6.59,11.57 -0.16,15.83 3.74,2.48 7.87,4.41 11.96,6.31 20.94,9.72 37.95,23.97 50,43.88 10.5,17.35 15.83,36.18 15.73,56.55 -0.08,15 0.02,29.99 0.02,44.99 0,9.1 -5.01,14.18 -13.96,14.18 -62.17,0 -124.33,0 -186.5,0 -1.16,0 -2.31,0 -3.47,-0.02 -7.27,-0.12 -12.88,-5.46 -12.92,-12.76 -0.1,-17.32 -0.96,-34.71 0.21,-51.95 2.6,-38.26 19.57,-68.38 52.96,-88.14 6.22,-3.68 12.92,-6.52 19.33,-9.86 2.41,-1.25 4.87,-2.58 6.89,-4.35 4.53,-3.95 4.48,-9.7 -0.31,-13.31 -2.97,-2.24 -6.49,-3.82 -9.93,-5.33 -12.48,-5.47 -24.34,-11.96 -34.19,-21.55 -18.87,-18.37 -30.61,-40.53 -33.68,-66.89 -1.08,-9.29 -1.14,-18.73 -1.27,-28.1 -0.2,-14.57 -0.07,-29.15 -0.08,-43.72 0,-9 4.85,-14.01 13.68,-14.01 31.61,-0.02 63.22,0 94.83,0 z m -0.14,296.58 c 0.49,0.4 0.82,0.65 1.12,0.94 14.26,13.49 30.7,23.71 47.85,33.02 11.81,6.42 24.24,6.45 37.31,5.61 0,-1.24 0,-2.37 0,-3.5 -0.01,-10.67 0.11,-21.33 -0.1,-32 -0.1,-4.93 -0.45,-9.92 -1.34,-14.76 -4.83,-26.06 -18.95,-45.82 -41.23,-59.64 -6.83,-4.24 -14.29,-7.45 -21.42,-11.22 -11.65,-6.16 -17.58,-15.67 -17.24,-29.15 0.31,-12.03 5.08,-21.1 15.94,-26.61 4.3,-2.19 8.59,-4.41 12.93,-6.52 14.77,-7.18 26.79,-17.63 36.34,-30.99 11.23,-15.72 16.1,-33.41 16.11,-52.6 0.01,-13.94 -0.02,-27.88 -0.03,-41.82 0,-1.13 0,-2.26 0,-3.57 H 129.53 c -0.05,0.85 -0.13,1.47 -0.13,2.09 -0.02,15.31 -0.11,30.62 -0.01,45.93 0.03,4.42 0.28,8.89 0.95,13.25 4.17,26.78 18.7,46.83 40.67,61.64 7.1,4.79 15.04,8.34 22.65,12.33 4.61,2.42 8.8,5.21 11.91,9.57 7.18,10.1 6.87,28.54 -2.8,38.84 -5.23,5.56 -11.86,8.63 -18.45,11.83 -10.17,4.93 -19.78,10.55 -27.9,18.62 -16.52,16.41 -26.39,35.85 -26.96,59.46 -0.3,12.45 -0.07,24.92 -0.06,37.38 0,0.49 0.18,0.97 0.33,1.75 4.21,0 8.31,-0.23 12.36,0.05 8.46,0.59 16.34,-1.46 23.53,-5.63 10.16,-5.89 20.24,-11.99 29.94,-18.61 6.83,-4.66 12.98,-10.32 19.63,-15.68 z"
         id="path5" />
      <path
         class="cls-2"
         d="M 215.44,125.37 C 202.85,112.32 188.69,102.62 172.55,93.94 h 84.7 c -15.3,8.88 -30.19,17.58 -41.81,31.43 z"
         id="path6" />
      <path
         class="cls-2"
         d="m 215.22,221.39 c -2.1,-3.6 -4.41,-7.42 -6.55,-11.34 -0.68,-1.24 -1.24,-2.74 -1.24,-4.12 -0.02,-12.34 -0.13,-24.69 0.26,-37.02 0.22,-7.15 2.56,-13.8 7.29,-19.89 3.59,4.25 5.79,8.94 6.99,14.03 0.77,3.25 1.14,6.67 1.19,10.01 0.17,10.65 0.14,21.31 0.09,31.96 0,1.39 -0.39,2.92 -1.05,4.14 -2.27,4.23 -4.75,8.36 -6.97,12.23 z"
         id="path7" />
      <path
         class="cls-2"
         d="m 215.14,332.21 c -4.39,-5.75 -7.41,-11.78 -7.53,-18.89 -0.23,-12.55 -0.38,-25.1 -0.4,-37.65 0,-6.86 4.8,-10.6 10.62,-8.52 3.31,1.18 5.34,3.71 5.34,7.12 0,13.7 0.02,27.41 -0.57,41.09 -0.27,6.24 -3.16,11.85 -7.46,16.85 z"
         id="path8" />
    </g>
  </g>
  <g
     id="text1"
     style="font-weight:600;font-size:280.326px;line-height:0;font-family:TheSansMonoSCd;-inkscape-font-specification:'TheSansMonoSCd Semi-Bold';fill:#222832;stroke:#222832;stroke-width:4"
     transform="scale(1.0159479,0.98430245)"
     aria-label="optimex">
    <path
       style="fill:#316733;stroke:#316733"
       d="m 566.85344,263.79562 c 0,-49.33737 -25.50966,-70.64215 -61.95204,-70.64215 -39.52597,0 -66.71759,31.39651 -66.71759,73.72574 0,50.739 25.78999,71.2028 61.67172,71.2028 39.52597,0 66.99791,-31.11619 66.99791,-74.28639 z m -29.43423,1.96228 c 0,31.67684 -15.41793,47.93575 -34.76042,47.93575 -22.42608,0 -35.04075,-17.09989 -35.04075,-49.05705 0,-32.51782 16.81956,-47.65542 35.32108,-47.65542 22.42608,0 34.48009,17.38021 34.48009,48.77672 z m 181.65103,-6.72782 c 0,-42.0489 -18.22119,-65.87661 -49.05705,-65.87661 -20.18347,0 -36.44238,11.77369 -44.01118,32.51782 l -0.56065,-0.28033 c 1.68195,-10.37206 1.96228,-21.02445 1.96228,-29.43423 h -26.63097 v 207.72156 h 28.31293 v -68.39954 c 5.32619,1.40163 12.89499,1.96228 20.74412,1.96228 41.48825,0 69.24052,-28.87358 69.24052,-78.21095 z m -30.27521,2.80326 c 0,37.56368 -17.38021,52.98161 -38.12433,52.98161 -8.97043,0 -15.69826,-1.40163 -21.5851,-3.36391 V 271.0841 c 0,-26.63097 12.89499,-54.10292 32.79814,-54.10292 17.09988,0 26.91129,15.1376 26.91129,44.85216 z m 180.52972,68.67987 -4.76554,-22.14576 c -8.40978,3.36391 -18.50152,5.3262 -27.47195,5.3262 -15.69825,0 -25.78999,-7.00815 -25.78999,-30.83586 v -64.19465 h 54.66357 V 195.95673 H 811.29727 V 143.8161 l -28.0326,7.5688 v 44.57183 h -40.92759 v 22.70641 h 40.92759 v 71.48312 c 0,34.76043 16.53924,47.65542 45.69314,47.65542 12.61467,0 28.31292,-2.52293 40.36694,-7.28847 z"
       id="path10" />
    <path
       d="M 1024.9055,335.27875 V 312.85267 H 983.69754 V 195.95673 h -70.92248 v 21.86543 h 42.60955 v 95.03051 h -47.09476 v 22.42608 z M 968.84026,131.76208 c -12.05402,0 -21.5851,9.53108 -21.5851,21.02445 0,11.77369 9.53108,21.30477 21.5851,21.30477 11.77369,0 21.30478,-9.53108 21.30478,-21.30477 0,-11.49337 -9.53109,-21.02445 -21.30478,-21.02445 z M 1185.532,335.27875 v -96.99279 c 0,-28.87358 -7.0081,-45.13249 -26.0703,-45.13249 -15.9786,0 -26.631,12.895 -31.6768,32.51782 -0.5607,-20.18348 -7.5688,-32.51782 -23.2671,-32.51782 -15.9786,0 -26.6309,13.17532 -31.6768,32.79814 h -0.2803 c 1.1213,-10.93271 1.9622,-20.74412 1.9622,-29.99488 h -21.8654 v 139.32202 h 22.9867 v -66.71759 c 0,-29.71455 10.9328,-52.70128 21.8655,-52.70128 8.4098,0 10.0917,8.6901 10.0917,29.1539 v 90.26497 h 22.9867 v -66.71759 c 0,-29.71455 10.9328,-52.70128 21.8655,-52.70128 8.4097,0 9.8114,8.6901 9.8114,28.31292 v 91.10595 z m 148.2923,-80.73389 c 0,-33.35879 -19.6229,-61.67171 -58.5882,-61.67171 -39.8063,0 -64.1946,31.39651 -64.1946,73.72573 0,48.77672 25.5096,71.76345 66.7176,71.76345 17.6605,0 37.844,-4.20489 52.4209,-10.65238 l -4.4852,-22.14576 c -12.6147,6.16717 -29.4342,9.81141 -42.8899,9.81141 -25.5096,0 -42.8898,-13.17532 -42.8898,-44.2915 0,-0.84098 0,-1.40163 0,-2.24261 h 93.0682 c 0.5606,-5.04587 0.841,-10.37206 0.841,-14.29663 z m -28.313,-5.60652 h -65.0356 c 2.2426,-22.14575 16.8196,-35.04075 33.9195,-35.04075 17.6605,0 31.1161,12.895 31.1161,35.04075 z m 191.4625,86.34041 -49.8981,-70.92248 47.0948,-68.39954 h -31.6768 l -33.6391,49.89803 -33.6392,-49.89803 h -34.1997 l 48.216,68.67987 -51.2996,70.64215 h 34.1998 l 34.4801,-51.57998 34.1997,51.57998 z"
       id="path11" />
  </g>
</svg>
